<svg width="147" height="192" viewBox="0 0 147 192" fill="none" xmlns="http://www.w3.org/2000/svg">
<g filter="url(#filter0_d)">
<path d="M74.6795 41.6174C74.6795 41.6174 74.1131 28.8468 76.6156 29.3927C79.1181 29.9386 86.8761 34.6226 86.8761 34.6226C86.8761 34.6226 101.683 32.7619 106.781 39.0128C111.878 45.2637 106.781 39.0128 106.781 39.0128C106.781 39.0128 117.167 37.623 116.703 39.1868C116.238 40.7506 113.552 50.1342 114.047 50.6416C114.543 51.1489 120.7 70.559 114.399 86.3883C108.098 102.218 114.399 86.3883 114.399 86.3883C114.399 86.3883 113.79 89.4491 101.485 88.6709C89.1801 87.8927 75.0692 86.6321 71.4276 82.62C67.7861 78.608 60.0645 66.8116 61.2024 63.6799C62.3404 60.5482 65.3376 48.0412 74.6795 41.6174Z" fill="white"/>
<path d="M78.2941 32.589C78.2941 32.589 75.1067 36.3229 78.2941 40.0994L82.6101 36.5823L78.2941 32.589Z" fill="url(#paint0_radial)"/>
<path d="M110.117 42.1633L116.703 39.8452C116.703 39.8452 115.986 45.9575 114.047 48.6933L110.117 42.1633Z" fill="url(#paint1_radial)"/>
<path d="M95.2297 60.2835C95.2297 60.2835 97.7104 59.7803 99.2973 58.8604C99.2973 58.8604 99.6632 60.4763 102.226 60.9013C102.226 60.9013 100.57 66.5771 98.891 66.3625C98.89 66.3625 94.8234 67.1845 95.2297 60.2835Z" fill="#FFC4D5"/>
<path d="M72.9241 78.4809C68.6092 72.5853 68.5073 66.2886 69.8303 59.2761C70.8477 53.8847 71.0847 48.6965 73.8636 43.8802C74.5256 42.7321 72.8368 41.6872 72.178 42.8279C71.6978 43.6604 71.2852 44.5188 70.9173 45.3939C70.6045 45.3793 70.2844 45.5137 70.0631 45.8669C66.7042 51.2333 59.6861 59.5866 62.541 66.7782C64.1258 70.7684 66.1066 74.6293 67.785 78.607C68.5489 80.4197 70.616 83.591 72.5053 84.2203C77.1196 85.758 74.1536 80.1614 72.9241 78.4809Z" fill="#E2E2E2"/>
<path d="M100.584 64.5144C100.278 65.1478 99.8949 65.8031 99.4501 66.3302C99.2745 66.1677 99.0001 66.1031 98.7683 66.2969C97.5826 67.295 95.9353 66.1927 95.74 64.7686C95.6932 64.4248 95.4188 64.3393 95.1767 64.4237C95.0779 63.2767 95.2733 62.014 95.3918 61.0649C95.4749 60.4002 94.497 60.4086 94.4159 61.0649C94.0969 63.6371 93.9233 66.373 96.1442 68.0065C98.4441 69.6984 100.48 67.0032 101.427 65.0394C101.715 64.4435 100.873 63.9174 100.584 64.5144Z" fill="#E2E2E2"/>
<path d="M78.6815 32.0441C78.6815 32.0441 79.303 32.4879 80.1978 33.1922C80.6457 33.5464 81.1643 33.9631 81.7058 34.4476C81.976 34.6945 82.2524 34.9487 82.5268 35.2477C82.6629 35.3904 82.8022 35.5571 82.9373 35.7457C83.0048 35.829 83.0776 35.9801 83.141 36.0978C83.1711 36.1374 83.2096 36.2885 83.2272 36.3989C83.2366 36.4593 83.2438 36.5187 83.247 36.5781L83.249 36.6219V36.6333L83.2272 36.7562L83.2241 36.7646L83.2137 36.7979C83.221 36.8833 82.9321 37.4199 82.8313 37.5022C82.6972 37.6793 82.5621 37.8262 82.428 37.972C82.1578 38.2596 81.8866 38.519 81.6226 38.7659C81.0926 39.2556 80.5865 39.6848 80.149 40.0484C79.2739 40.7756 78.6711 41.2381 78.6711 41.2381C78.402 41.4465 78.0154 41.3965 77.8065 41.1267C77.5997 40.8579 77.6506 40.4714 77.9156 40.2609C77.9156 40.2609 78.4986 39.8056 79.3477 39.0889C79.7717 38.7294 80.2622 38.3065 80.7611 37.8366C81.0095 37.6012 81.261 37.3563 81.4937 37.1032C81.6081 36.9761 81.7245 36.8479 81.8138 36.726L81.8824 36.6375C81.8855 36.6281 81.8907 36.6208 81.8991 36.6156C81.9074 36.6062 81.9188 36.6156 81.9333 36.5927L81.976 36.4583L81.9864 36.425L81.9895 36.4166C81.9801 36.4677 82.0113 36.2947 81.9697 36.5312L81.9687 36.5333L81.9645 36.5427C81.9593 36.5552 81.9562 36.5698 81.9573 36.5833C81.951 36.6041 81.9926 36.6552 81.9656 36.6177C81.9313 36.575 81.9354 36.5489 81.8835 36.4875C81.7993 36.3729 81.7006 36.2531 81.58 36.1301C81.3534 35.8863 81.0936 35.6498 80.8432 35.4248C80.3329 34.9758 79.8257 34.5747 79.3893 34.2351C78.5111 33.5558 77.9083 33.1328 77.9083 33.1328C77.6059 32.9213 77.5332 32.5036 77.7441 32.2014C77.9551 31.8993 78.3718 31.8253 78.6732 32.0368L78.6784 32.04L78.6815 32.0441Z" fill="#7E5053"/>
<path d="M114.205 41.2913C113.474 41.5403 112.738 41.807 112.023 42.0914C111.666 42.2341 111.311 42.3821 110.976 42.5394C110.81 42.6175 110.646 42.6998 110.504 42.7821C110.436 42.8227 110.367 42.8655 110.328 42.8967C110.304 42.9144 110.295 42.9259 110.299 42.9238C110.3 42.9176 110.358 42.9009 110.426 42.7134V42.7123L110.266 41.981C110.945 42.7561 111.599 43.5041 112.2 44.3782C112.827 45.2273 113.279 46.1711 113.729 47.0723C114.612 48.9069 115.328 50.8072 115.923 52.745C117.094 56.6257 117.739 60.6607 117.859 64.7123C117.992 68.766 117.569 72.8301 116.701 76.7859C116.496 77.7787 116.225 78.7549 115.966 79.7342C115.675 80.7031 115.402 81.6793 115.057 82.6315C114.744 83.5941 114.373 84.5359 114.003 85.4767C113.641 86.4216 113.207 87.3353 112.812 88.2656C112.691 88.549 112.451 88.7449 112.176 88.8199L112.146 88.8282H112.145C110.769 89.1699 109.481 89.3783 108.148 89.5689C106.824 89.7502 105.499 89.8742 104.171 89.9805C102.844 90.0586 101.517 90.1315 100.189 90.144C98.8608 90.1878 97.5347 90.1357 96.2086 90.119C94.8857 90.043 93.5575 90.0253 92.2387 89.8909C90.9178 89.7877 89.5969 89.6742 88.2843 89.496C86.9666 89.3543 85.6571 89.1616 84.3518 88.9397C83.0413 88.749 81.7422 88.4969 80.4463 88.2281C79.1452 87.9864 77.8554 87.6916 76.572 87.3697C75.2739 87.003 74.0559 86.9352 72.576 86.0872C71.2905 85.3559 70.2357 84.3922 69.3055 83.3681C68.3764 82.3388 67.57 81.2365 66.8321 80.103C65.3605 77.8329 64.1487 75.4419 63.0638 73.0093C61.984 70.5663 61.032 68.1055 60.2069 65.5395C60.158 65.3874 60.1487 65.227 60.1715 65.079C60.2734 64.4466 60.3919 63.8841 60.5249 63.2965C60.6579 62.7162 60.8013 62.1401 60.9593 61.5691C61.2721 60.4252 61.6275 59.2949 62.0256 58.1801C62.8258 55.9517 63.785 53.7774 64.9282 51.6959C66.0714 49.6154 67.3912 47.6224 68.9127 45.7846C70.4196 43.9354 72.1572 42.2675 74.0424 40.7912L73.6423 41.7268C73.4459 39.6577 73.3461 37.6262 73.3825 35.5446C73.4064 34.5049 73.4667 33.46 73.6257 32.39C73.7099 31.8535 73.8179 31.3117 73.9967 30.7512C74.1952 30.1939 74.3906 29.6 74.9985 28.9958C75.7395 28.3322 76.5959 28.3071 77.2111 28.3509C77.8554 28.4072 78.4094 28.5676 78.9383 28.7499C79.9901 29.1239 80.9306 29.6178 81.8399 30.1501C82.7462 30.6867 83.6119 31.2722 84.4485 31.9087C84.8662 32.2285 85.2767 32.5598 85.6821 32.9245C85.8837 33.1078 86.0853 33.2974 86.2879 33.5152C86.3908 33.6256 86.4927 33.7412 86.6018 33.884C86.7057 34.059 86.8419 34.1236 86.978 34.6831L85.6613 33.8433C86.1726 33.7017 86.6195 33.6058 87.0975 33.51C87.5683 33.4162 88.0401 33.3381 88.513 33.2683C89.4587 33.1318 90.4086 33.038 91.3626 32.9911C93.2696 32.8984 95.1954 32.9776 97.0972 33.2954C98.998 33.6058 100.88 34.1517 102.645 34.9831C104.42 35.7947 106.051 36.924 107.488 38.2523L106.613 37.9835H106.614C108.411 37.7564 110.181 37.5908 111.994 37.521C112.9 37.4907 113.809 37.4803 114.753 37.5605C115.229 37.6074 115.705 37.6616 116.245 37.8345C116.515 37.9377 116.823 38.0294 117.169 38.4055C117.339 38.5846 117.476 38.9295 117.473 39.1879L117.476 39.5202C117.452 40.0734 117.396 40.5235 117.317 40.9787C117.243 41.435 117.153 41.8799 117.054 42.3227C116.858 43.2072 116.629 44.0771 116.378 44.9408C115.863 46.6639 115.29 48.3652 114.503 50.0133C114.382 50.2665 114.08 50.3728 113.827 50.2519C113.583 50.1342 113.476 49.8467 113.579 49.5987L113.583 49.5893C114.25 48.0026 114.732 46.3066 115.15 44.6126C115.353 43.7625 115.534 42.9071 115.679 42.0518C115.753 41.6247 115.817 41.1975 115.865 40.7745C115.921 40.3526 115.941 39.9192 115.946 39.5858L115.926 39.2535C115.917 39.291 115.967 39.4181 115.988 39.4337C116.034 39.4775 115.915 39.3962 115.768 39.3639C115.461 39.2816 115.05 39.2431 114.646 39.2285C113.824 39.2014 112.961 39.2514 112.103 39.3264C110.386 39.4806 108.64 39.7358 106.941 40.0411H106.94C106.615 40.0932 106.302 39.988 106.075 39.7817L106.065 39.7713C104.79 38.5961 103.351 37.596 101.768 36.8719C100.194 36.1301 98.4971 35.6353 96.7605 35.3519C95.0239 35.0612 93.2416 34.9862 91.4665 35.0727C90.579 35.1164 89.6915 35.2029 88.8123 35.3311C88.3727 35.3967 87.9341 35.4686 87.5007 35.555C87.0747 35.6394 86.6195 35.7405 86.2422 35.8447L84.9255 35.005C85.0055 35.3165 84.991 35.1685 84.9463 35.1425C84.9026 35.0852 84.8382 35.0112 84.7686 34.9362C84.6272 34.7851 84.463 34.6278 84.2915 34.4726C83.9465 34.1621 83.5724 33.859 83.1899 33.5662C82.423 32.9818 81.6144 32.4359 80.7861 31.9452C79.9589 31.4576 79.1005 31.0159 78.2524 30.7158C77.8315 30.5668 77.4065 30.4554 77.0448 30.4272C76.6738 30.3887 76.4338 30.4814 76.4171 30.52C76.2924 30.6241 76.096 31.0013 75.9765 31.392C75.8476 31.7931 75.7551 32.2442 75.6824 32.7046C75.5441 33.6339 75.4849 34.608 75.4631 35.5873C75.4267 37.5449 75.5265 39.5546 75.7115 41.5059C75.7468 41.8768 75.5816 42.2258 75.3103 42.4414C73.5561 43.8166 71.9327 45.3721 70.5162 47.1109C69.0852 48.8382 67.8371 50.7218 66.751 52.6981C65.665 54.6755 64.7484 56.7518 63.9835 58.8813C63.6021 59.946 63.2623 61.0274 62.964 62.1171C62.8133 62.662 62.6772 63.21 62.5525 63.759C62.4288 64.3008 62.3103 64.8717 62.2282 65.3832L62.1929 64.9238C62.9744 67.3575 63.9191 69.8026 64.9625 72.1613C66.0142 74.522 67.1875 76.8276 68.5718 78.9643C69.954 81.0709 71.5815 83.1097 73.5883 84.2672C74.374 84.8058 75.8414 85.0235 77.0563 85.3433C78.3148 85.6601 79.5796 85.9497 80.8558 86.1851C82.1257 86.4477 83.3988 86.6956 84.6823 86.8821C85.9606 87.0998 87.243 87.2884 88.5317 87.4259C89.8162 87.5999 91.107 87.7114 92.3977 87.8125C93.6874 87.9427 94.9813 87.9604 96.2741 88.0354C97.5669 88.051 98.8608 88.1021 100.153 88.0594C101.445 88.0479 102.734 87.976 104.023 87.901C105.308 87.7989 106.591 87.6791 107.864 87.5041C109.123 87.327 110.426 87.1082 111.593 86.8186H111.594L110.928 87.3811C111.318 86.4873 111.751 85.609 112.11 84.7016C112.478 83.7973 112.847 82.893 113.16 81.9679C113.505 81.0542 113.777 80.1166 114.07 79.1862C114.33 78.2476 114.603 77.3089 114.812 76.3567C115.694 72.5592 116.148 68.6556 116.067 64.755C115.997 60.8565 115.423 56.9633 114.342 53.2169C113.791 51.3479 113.124 49.5091 112.304 47.7505C111.878 46.8733 111.476 46.0044 110.927 45.2502C110.413 44.4782 109.768 43.7156 109.148 42.9915L109.117 42.9551C108.947 42.7561 108.907 42.4894 108.988 42.2591L108.989 42.257C109.096 41.9778 109.22 41.8862 109.294 41.8143C109.372 41.7476 109.441 41.6997 109.499 41.6632C109.622 41.5851 109.726 41.534 109.831 41.483C110.038 41.385 110.233 41.3079 110.429 41.234C110.818 41.0881 111.201 40.9641 111.584 40.8454C112.351 40.6099 113.112 40.4016 113.886 40.2057C114.189 40.1297 114.494 40.313 114.571 40.6151C114.647 40.9037 114.48 41.1965 114.205 41.2913Z" fill="#7E5053"/>
<path d="M80.7715 56.5747L86.9769 59.5897" stroke="#7E5053" stroke-miterlimit="10" stroke-linecap="round" stroke-linejoin="round"/>
<path d="M81.2102 62.5151L86.8762 61.6639" stroke="#7E5053" stroke-miterlimit="10" stroke-linecap="round" stroke-linejoin="round"/>
<path d="M108.057 62.9652L114.643 63.6799" stroke="#7E5053" stroke-miterlimit="10" stroke-linecap="round" stroke-linejoin="round"/>
<path d="M107.5 65.0988L112.733 68.6858" stroke="#7E5053" stroke-miterlimit="10" stroke-linecap="round" stroke-linejoin="round"/>
<path d="M87.2576 47.6953L93.7654 56.9904C93.7654 56.9904 91.6505 59.3105 88.5545 56.9904C88.5545 56.9904 85.5397 54.3796 88.5545 50.2998" stroke="#7E5053" stroke-miterlimit="10" stroke-linecap="round" stroke-linejoin="round"/>
<path d="M112.553 52.6273L104.342 58.3604C104.342 58.3604 105.463 61.0264 108.76 60.0804C108.76 60.0804 112.073 58.8615 110.698 54.4077" stroke="#7E5053" stroke-miterlimit="10" stroke-linecap="round" stroke-linejoin="round"/>
<path d="M99.2972 58.1186L98.2393 57.2529L100.354 57.5092L99.2972 58.1186Z" stroke="#7E5053" stroke-width="1.5" stroke-miterlimit="10" stroke-linecap="round" stroke-linejoin="round"/>
<path d="M94.6602 59.7824C94.6602 59.7824 97.0193 61.0826 99.2973 58.8604C99.2973 58.8604 99.5405 61.2618 103.121 60.9013" stroke="#7E5053" stroke-miterlimit="10" stroke-linecap="round" stroke-linejoin="round"/>
<path d="M95.2296 60.2835C95.2296 60.2835 94.6289 66.299 98.2393 66.3615C101.574 66.4198 102.225 60.9003 102.225 60.9003" stroke="#7E5053" stroke-miterlimit="10" stroke-linecap="round" stroke-linejoin="round"/>
<path d="M101.118 54.8453L97.887 54.4265" stroke="#7E5053" stroke-miterlimit="10" stroke-linecap="round" stroke-linejoin="round"/>
<path d="M97.228 52.3064L102.073 52.9346" stroke="#7E5053" stroke-miterlimit="10" stroke-linecap="round" stroke-linejoin="round"/>
<path d="M96.3374 50.1978L103.184 51.0854" stroke="#7E5053" stroke-miterlimit="10" stroke-linecap="round" stroke-linejoin="round"/>
<path d="M95.5881 48.1047L104.671 49.282" stroke="#7E5053" stroke-miterlimit="10" stroke-linecap="round" stroke-linejoin="round"/>
<path d="M75.4922 83.3347C75.4922 83.3347 81.177 85.4183 82.2141 81.1209C82.2141 81.1209 83.7075 69.2556 81.1021 65.0665C78.4978 60.8774 76.2925 57.3915 71.2292 59.7824C66.167 62.1723 69.2671 71.0684 69.6891 72.1425C70.112 73.2156 74.5039 82.4877 75.4922 83.3347Z" fill="white"/>
<path d="M75.2991 83.0305C75.2991 83.0305 68.0586 71.9175 68.3839 65.927C68.7092 59.9366 72.6147 58.3739 75.2991 58.9813C77.9835 59.5887 84.2357 63.7101 82.2133 81.1198" stroke="#7E5053" stroke-width="1.5" stroke-miterlimit="10" stroke-linecap="round" stroke-linejoin="round"/>
<path d="M68.9544 61.2524L67.7104 58.3124L70.2836 59.7824L68.9544 61.2524Z" fill="#7E5053" stroke="#7E5053" stroke-miterlimit="10" stroke-linecap="round" stroke-linejoin="round"/>
<path d="M71.801 59.1313L72.4526 55.3724L74.6798 58.7L71.801 59.1313Z" fill="#7E5053" stroke="#7E5053" stroke-miterlimit="10" stroke-linecap="round" stroke-linejoin="round"/>
<path d="M75.4924 58.6219L77.7403 56.4549V59.7824L75.4924 58.6219Z" fill="#7E5053" stroke="#7E5053" stroke-miterlimit="10" stroke-linecap="round" stroke-linejoin="round"/>
<path d="M74.6796 69.7766C76.6684 69.7766 78.2806 68.0559 78.2806 65.9333C78.2806 63.8107 76.6684 62.0901 74.6796 62.0901C72.6908 62.0901 71.0786 63.8107 71.0786 65.9333C71.0786 68.0559 72.6908 69.7766 74.6796 69.7766Z" fill="url(#paint2_radial)"/>
<path d="M116.703 65.2343L117.376 62.0901L118.595 64.9196L116.703 65.2343Z" fill="#7E5053" stroke="#7E5053" stroke-miterlimit="10" stroke-linecap="round" stroke-linejoin="round"/>
<path d="M120.173 65.3801L122.82 62.8047L122.711 66.8928L120.173 65.3801Z" fill="#7E5053" stroke="#7E5053" stroke-miterlimit="10" stroke-linecap="round" stroke-linejoin="round"/>
<path d="M123.401 67.3533L126.419 67.0772L124.536 69.7276L123.401 67.3533Z" fill="#7E5053" stroke="#7E5053" stroke-miterlimit="10" stroke-linecap="round" stroke-linejoin="round"/>
<path d="M104.341 85.2881C104.341 85.2881 107.27 89.8898 112.404 86.6342C112.404 86.6342 118.758 82.3721 120.692 79.579C122.626 76.7849 126.258 70.5913 123.401 68.0972C120.545 65.6031 117.18 62.7131 112.143 68.0972C107.105 73.4813 104.341 85.2881 104.341 85.2881Z" fill="white"/>
<path d="M111.351 87.2926C129.179 76.4473 125.817 64.7123 117.357 65.227C108.896 65.7416 104.341 84.9412 104.341 84.9412" stroke="#7E5053" stroke-width="1.5" stroke-miterlimit="10" stroke-linecap="round" stroke-linejoin="round"/>
<path d="M117.65 76.1327C119.639 76.1327 121.252 74.412 121.252 72.2894C121.252 70.1669 119.639 68.4462 117.65 68.4462C115.66 68.4462 114.048 70.1669 114.048 72.2894C114.048 74.412 115.66 76.1327 117.65 76.1327Z" fill="url(#paint3_radial)"/>
<path d="M7.79956 102.837L15.8101 102.218C15.8101 102.218 42.9388 101.787 60.3535 90.1284C70.2836 83.0743 73.8752 85.2881 71.2085 92.6954C68.759 99.4974 68.5064 105.865 67.7655 113.682C67.013 121.625 62.1213 144.759 80.8715 173.755L78.2931 177.464C78.2931 177.464 51.7901 155.522 48.6983 133.818C45.6065 112.114 47.4502 103.827 47.4502 103.827C47.4502 103.827 29.1333 108.864 20.8827 107.028C12.631 105.189 7.79956 102.837 7.79956 102.837Z" fill="#E0DE50"/>
<path d="M72.0856 86.9446C70.7949 87.3488 71.3134 89.4554 70.2835 97.0564C69.1799 105.203 60.4117 151.298 83.19 175.375L92.7096 172.54C92.7096 172.54 94.2144 168.373 97.2521 161.545C100.289 154.717 105.177 141.699 104.434 137.324L111.352 140.931C111.352 140.931 109.502 138.51 108.06 135.294C108.06 135.294 92.5952 116.626 89.439 107.422C86.2828 98.2191 80.2614 84.3859 72.0856 86.9446Z" fill="#FBF260"/>
<path d="M112.232 90.7576C112.232 90.7576 123.667 104.182 125.762 107.159C127.857 110.135 133.26 120.139 135.071 135.92C135.071 135.92 138.459 135.83 139.054 134.774C139.649 133.719 139.054 134.338 139.054 134.338L134.594 116.841C134.594 116.841 127.754 102.86 123.169 97.5451C118.584 92.2297 115.869 89.4564 115.869 89.4564L112.232 90.7576Z" fill="#FBF260"/>
<path d="M6.05148 100.815C6.05148 100.815 7.96266 105.542 29.7953 101.621C51.6279 97.7011 63.7799 87.7341 63.7799 87.7341C63.7799 87.7341 73.4189 82.6188 84.3872 95.1372C87.9123 105.421 103.69 137.811 116.704 143.077C116.704 143.077 120.118 141.652 119.347 135.295C118.575 128.938 115.665 112.121 115.869 109.855C116.075 107.588 115.012 96.9802 113.733 94.1298C112.453 91.2794 112.668 90.9377 112.668 90.9377L115.87 89.4562C115.87 89.4562 125.867 99.4399 129.746 106.939C133.626 114.438 138.137 125.519 137.103 136.526C137.103 136.526 140.617 134.159 141.118 130.17C141.925 123.745 140.755 109.129 138.272 102.36C136.069 96.3562 127.369 82.1729 122.527 79.3454C122.527 79.3454 115.895 88.6717 103.205 88.6717C90.5146 88.6717 76.7788 88.9176 70.7927 81.9364C64.8066 74.9552 61.2046 65.2341 61.2046 65.2341C61.2046 65.2341 54.571 64.933 50.466 68.6199C46.361 72.3069 31.9424 88.6728 25.922 91.6242C19.9006 94.5747 5.54328 95.5946 6.05148 100.815Z" fill="#FFFECE"/>
<path d="M94.0908 166.072C94.4504 165.272 94.256 164.169 93.2199 163.871C89.1076 162.689 85.0576 163.937 80.9079 164.116C76.4193 164.31 75.4518 165.231 72.6375 168.83C71.8757 169.804 72.4265 171.052 73.2413 171.441C73.4492 171.915 73.8971 172.306 74.4157 172.419C74.4905 172.771 74.6734 173.108 75.0091 173.367C76.1491 174.249 77.0814 175.235 78.3035 175.972C79.0154 176.401 79.8769 176.139 80.3072 175.41C82.9968 170.851 88.7989 174.762 92.5943 172.586C94.1178 171.712 95.0822 167.932 94.0908 166.072Z" fill="#CFE63E"/>
<path d="M92.0663 176.517C92.2471 176.05 92.3729 175.561 92.3926 175.035C92.4882 172.516 89.2988 172.445 87.7357 172.539C85.5481 172.67 81.2945 171.981 79.7335 174.06C78.8491 175.237 78.5716 176.265 78.7722 177.16C78.5072 177.724 78.3856 178.396 78.5061 179.241C79.0164 182.844 83.2379 182.844 86.7848 181.817C88.4934 181.669 90.1364 180.987 91.0936 179.783C91.1268 179.756 91.1705 179.728 91.2016 179.7C91.3825 179.541 91.4604 179.36 91.4947 179.176C91.501 179.165 91.5103 179.155 91.5165 179.142C91.6433 178.897 91.6527 178.664 91.6111 178.448C91.978 177.921 92.1682 177.283 92.0663 176.517Z" fill="#7E5053"/>
<path d="M78.293 178.4C78.293 178.4 79.4985 173.535 80.8714 172.991C83.6534 171.889 92.7084 172.54 92.7084 172.54" stroke="#7E5053" stroke-width="2" stroke-miterlimit="10" stroke-linecap="round" stroke-linejoin="round"/>
<path d="M74.3709 88.674C74.3709 88.674 79.1223 94.1289 82.2131 103.92C84.3331 110.633 94.0907 128.002 100.005 133.212C105.477 138.03 115.137 143.89 117.821 142.588C120.505 141.286 119.285 131.649 117.821 125.138C116.357 118.626 115.868 113.678 116.112 106.124C116.357 98.5712 112.452 91.2785 112.452 91.2785C115.625 92.0599 120.14 99.786 126.485 108.121C132.831 116.455 133.871 129.999 133.789 132.082C133.707 134.166 135.637 139.462 139.053 134.774C142.469 130.086 141.046 112.288 139.053 104.822C135.724 92.3568 122.051 78.8653 122.051 78.8653C121.644 80.777 113.915 87.8926 110.011 88.4135C106.107 88.9345 82.6776 88.4136 75.3561 85.4819C68.0346 82.5502 61.2015 65.2332 61.2015 65.2332C61.2015 65.2332 56.8086 63.9309 50.4629 68.6191C44.1172 73.3072 31.6722 89.9429 23.3748 92.6944C15.0774 95.4458 2.63129 97.5294 6.77999 101.957C10.9287 106.385 29.232 110.596 44.8509 103.932C60.4698 97.269 69.7441 89.1949 69.7441 89.1949" stroke="#7E5053" stroke-width="2" stroke-miterlimit="10" stroke-linecap="round" stroke-linejoin="round"/>
<path d="M15.8101 102.218C15.8101 102.218 43.1434 105.002 66.0839 85.8986" stroke="#7E5053" stroke-miterlimit="10" stroke-linecap="round" stroke-linejoin="round"/>
<path d="M84.3872 95.1364C84.3872 95.1364 87.8043 113.416 108.06 135.294" stroke="#7E5053" stroke-miterlimit="10" stroke-linecap="round" stroke-linejoin="round"/>
<path d="M115.869 89.4554C115.869 89.4554 135.881 108.208 137.101 128.002" stroke="#7E5053" stroke-miterlimit="10" stroke-linecap="round" stroke-linejoin="round"/>
<path d="M47.4501 103.825C47.4501 103.825 47.3846 129.123 50.2207 138.942C55.2237 156.262 77.3712 175.906 78.294 178.4C80.1242 183.349 88.2927 182.698 90.2454 181.395C92.1972 180.093 94.3941 176.186 93.1741 173.842C91.954 171.498 93.145 169.936 93.5253 168.633C93.9067 167.331 103.494 152.897 104.435 137.324" stroke="#7E5053" stroke-width="3" stroke-miterlimit="10" stroke-linecap="round" stroke-linejoin="round"/>
<path d="M71.2084 92.6944C71.2084 92.6944 60.7421 136.077 73.4188 157.173" stroke="#7E5053" stroke-miterlimit="10" stroke-linecap="round" stroke-linejoin="round"/>
<path d="M75.7146 163.685C75.7146 163.685 77.3566 170.577 80.8714 172.991" stroke="#7E5053" stroke-miterlimit="10" stroke-linecap="round" stroke-linejoin="round"/>
<path d="M47.45 36.6687C47.45 36.6687 47.0634 38.0585 46.3868 40.4912C45.6937 42.9186 44.7022 46.3847 43.5123 50.5457C42.2922 54.6963 40.8684 59.5397 39.3428 64.729C37.7829 69.9068 36.119 75.4305 34.4552 80.9542C32.7467 86.4643 31.0381 91.9734 29.4366 97.1387C27.8393 102.305 26.27 107.104 24.9647 111.228C23.6241 115.342 22.5069 118.771 21.7254 121.17C20.9262 123.564 20.47 124.933 20.47 124.933C20.47 124.933 20.8566 123.544 21.5321 121.111C22.2253 118.683 23.2167 115.216 24.4056 111.056C25.6299 106.907 27.011 102.05 28.5751 96.8741C30.135 91.6963 31.7989 86.1726 33.4637 80.6489C35.1723 75.1388 36.8808 69.6296 38.4833 64.4643C40.1202 59.3094 41.6468 54.4983 42.9563 50.3748C44.2969 46.2607 45.4131 42.8321 46.1956 40.4318C46.9938 38.0377 47.45 36.6687 47.45 36.6687Z" fill="#7E5053"/>
<path d="M61.2024 11.5798C61.2024 11.5798 60.8293 12.7747 60.1767 14.8657C59.5033 16.9493 58.5794 19.9403 57.4019 23.5044C56.2192 27.0674 54.8838 31.2388 53.3737 35.6821C51.8658 40.1255 50.257 44.8657 48.6493 49.6049C46.9969 54.3296 45.3434 59.0542 43.795 63.4829C42.2506 67.9138 40.7302 72.0217 39.4665 75.5576C38.1996 79.0914 37.0835 82.0147 36.33 84.0713C35.5558 86.1205 35.113 87.2915 35.113 87.2915C35.113 87.2915 35.4861 86.0966 36.1388 84.0056C36.8122 81.922 37.734 78.9299 38.9136 75.3659C40.0963 71.8029 41.4296 67.6304 42.9417 63.1881C44.4497 58.7448 46.0584 54.0056 47.6672 49.2653C49.3196 44.5407 50.9731 39.8171 52.5226 35.3873C54.07 30.9575 55.5873 26.8486 56.8511 23.3137C58.119 19.7799 59.233 16.8555 59.9865 14.8C60.7597 12.7508 61.2024 11.5798 61.2024 11.5798Z" fill="#7E5053"/>
<path d="M64.398 26.9465C64.398 26.9465 63.8639 28.4655 62.9296 31.1232C61.9787 33.7746 60.6193 37.5626 58.9887 42.107C57.328 46.641 55.3898 51.9303 53.3134 57.5977C51.2037 63.2517 48.9527 69.2838 46.7017 75.3148C44.407 81.3292 42.1123 87.3436 39.9621 92.983C37.7776 98.6088 35.7386 103.86 33.9906 108.361C32.2124 112.85 30.7294 116.592 29.6922 119.21C28.6374 121.822 28.0356 123.314 28.0356 123.314C28.0356 123.314 28.5698 121.795 29.5041 119.138C30.455 116.486 31.8144 112.698 33.445 108.153C35.1057 103.619 37.0439 98.3296 39.1203 92.6631C41.23 87.0092 43.481 80.9771 45.732 74.946C48.0267 68.9316 50.3214 62.9172 52.4726 57.2779C54.6582 51.6521 56.6972 46.4014 58.4452 41.9007C60.2234 37.4116 61.7053 33.6704 62.7425 31.0513C63.7963 28.4384 64.398 26.9465 64.398 26.9465Z" fill="#7E5053"/>
<path d="M64.3982 42.3362C64.3982 42.3362 63.9742 43.5093 63.2332 45.5617C62.4714 47.6057 61.4218 50.5426 60.0926 54.0379C58.7602 57.5321 57.2471 61.6254 55.55 65.9812C53.855 70.3371 52.0456 74.9846 50.2373 79.6311C48.3854 84.2599 46.5334 88.8897 44.7969 93.2299C43.0644 97.5711 41.3725 101.594 39.9591 105.057C38.5437 108.517 37.3038 111.378 36.4641 113.392C35.6036 115.398 35.1121 116.544 35.1121 116.544C35.1121 116.544 35.535 115.371 36.276 113.318C37.0378 111.273 38.0864 108.336 39.4156 104.841C40.749 101.347 42.258 97.2523 43.9582 92.8975C45.6542 88.5417 47.4625 83.8952 49.2719 79.2487C51.1238 74.62 52.9758 69.9901 54.7124 65.651C56.4469 61.3097 58.1377 57.2873 59.5501 53.8243C60.9666 50.3634 62.2054 47.5015 63.0451 45.4887C63.9066 43.4822 64.3982 42.3362 64.3982 42.3362Z" fill="#7E5053"/>
<path d="M87.2139 5.58932C87.2139 5.58932 87.1567 5.85395 87.0351 6.30922C86.9032 6.76032 86.7421 7.41563 86.4989 8.18136C86.026 9.72012 85.3141 11.7381 84.5253 13.7259C83.7293 15.7105 82.8573 17.665 82.1403 19.1048C81.789 19.8278 81.4533 20.4133 81.2382 20.8311C81.0137 21.2447 80.8713 21.4759 80.8713 21.4759C80.8713 21.4759 80.9275 21.2103 81.0501 20.7561C81.1821 20.3049 81.3421 19.6486 81.5853 18.8829C82.0571 17.3441 82.77 15.3261 83.5599 13.3394C84.3559 11.3547 85.2289 9.40132 85.946 7.96049C86.2973 7.23747 86.6319 6.65198 86.847 6.23317C87.0726 5.82061 87.2139 5.58932 87.2139 5.58932Z" fill="#7E5053"/>
<path d="M92.3945 1.16162C92.3945 1.16162 92.248 1.6419 91.9933 2.48368C91.7169 3.31713 91.3625 4.52251 90.8668 5.94146C90.369 7.36042 89.8203 9.02732 89.1749 10.7922C88.541 12.5601 87.828 14.4333 87.1182 16.3065C86.3876 18.1724 85.6622 20.0393 84.9451 21.776C84.2416 23.5179 83.5286 25.1213 82.9456 26.5079C82.3616 27.8935 81.816 29.0249 81.4616 29.8282C81.0864 30.6231 80.8723 31.0773 80.8723 31.0773C80.8723 31.0773 81.0178 30.597 81.2735 29.7553C81.5499 28.9228 81.9033 27.7164 82.4 26.2975C82.8978 24.8785 83.4455 23.2106 84.0909 21.4468C84.7248 19.6778 85.4388 17.8056 86.1486 15.9325C86.8792 14.0666 87.6067 12.1996 88.3227 10.4629C89.0284 8.72207 89.7392 7.11767 90.3222 5.73102C90.9063 4.3454 91.4509 3.21399 91.8052 2.41076C92.1804 1.61585 92.3945 1.16162 92.3945 1.16162Z" fill="#7E5053"/>
<path d="M95.1922 2.72433C95.1922 2.72433 95.0519 3.20357 94.8077 4.04327C94.5417 4.87464 94.2018 6.07689 93.7238 7.49376C93.2436 8.90958 92.7157 10.5734 92.0932 12.3351C91.4811 14.0999 90.792 15.97 90.1051 17.84C89.3984 19.7028 88.6948 21.5666 88.0006 23.3012C87.3189 25.04 86.6257 26.6423 86.0603 28.0269C85.495 29.4104 84.9618 30.5408 84.6179 31.343C84.252 32.1368 84.0442 32.5911 84.0442 32.5911C84.0442 32.5911 84.1834 32.1118 84.4287 31.2721C84.6948 30.4408 85.0336 29.2375 85.5126 27.8216C85.9928 26.4058 86.5197 24.741 87.1432 22.9803C87.7554 21.2155 88.4454 19.3465 89.1324 17.4754C89.8401 15.6126 90.5437 13.7488 91.2379 12.0142C91.9217 10.2764 92.6128 8.67309 93.1782 7.28956C93.7446 5.90603 94.2756 4.77462 94.6196 3.97347C94.9833 3.17752 95.1922 2.72433 95.1922 2.72433Z" fill="#7E5053"/>
<path d="M126.485 18.8725C126.485 18.8725 126.34 19.4069 126.086 20.3425C125.811 21.2707 125.457 22.6095 124.962 24.192C124.465 25.7745 123.918 27.631 123.274 29.6C122.641 31.5743 121.929 33.6662 121.22 35.7592C120.491 37.8449 119.765 39.9327 119.048 41.8778C118.345 43.827 117.632 45.6263 117.049 47.1786C116.466 48.7309 115.918 50.0029 115.564 50.903C115.189 51.7959 114.973 52.3064 114.973 52.3064C114.973 52.3064 115.119 51.7719 115.372 50.8364C115.648 49.9081 116 48.5683 116.496 46.9858C116.993 45.4033 117.538 43.5468 118.184 41.5778C118.816 39.6046 119.528 37.5126 120.238 35.4196C120.968 33.3339 121.695 31.2461 122.411 29.301C123.117 27.3528 123.828 25.5526 124.411 24.0003C124.995 22.449 125.541 21.1759 125.895 20.2747C126.27 19.3819 126.485 18.8725 126.485 18.8725Z" fill="#7E5053"/>
<path d="M129.315 18.8725C129.315 18.8725 129.153 19.4548 128.868 20.4737C128.564 21.4853 128.167 22.9449 127.62 24.6712C127.072 26.3975 126.464 28.4217 125.757 30.571C125.059 32.7244 124.279 35.0081 123.5 37.2928C122.702 39.5712 121.907 41.8497 121.127 43.9739C120.359 46.1024 119.585 48.0693 118.95 49.7654C118.315 51.4615 117.725 52.8533 117.341 53.8378C116.935 54.815 116.704 55.3735 116.704 55.3735C116.704 55.3735 116.866 54.7911 117.15 53.7722C117.455 52.7606 117.851 51.3 118.399 49.5747C118.946 47.8484 119.552 45.8232 120.262 43.6749C120.959 41.5215 121.741 39.2379 122.519 36.9532C123.318 34.6747 124.113 32.3963 124.894 30.272C125.664 28.1446 126.435 26.1756 127.07 24.4806C127.706 22.7845 128.294 21.3926 128.679 20.4081C129.083 19.4309 129.315 18.8725 129.315 18.8725Z" fill="#7E5053"/>
<path d="M133.22 16.119C133.22 16.119 132.996 16.8607 132.604 18.1588C132.193 19.4496 131.643 21.3072 130.913 23.5117C130.18 25.7141 129.367 28.2998 128.418 31.0419C127.471 33.785 126.461 36.7104 125.451 39.6358C124.397 42.5456 123.344 45.4564 122.355 48.185C121.371 50.9145 120.375 53.4347 119.561 55.6089C118.743 57.7811 118.001 59.5709 117.509 60.8336C116.997 62.089 116.705 62.8058 116.705 62.8058C116.705 62.8058 116.928 62.064 117.319 60.7659C117.731 59.4751 118.279 57.6175 119.01 55.4131C119.744 53.2107 120.554 50.6238 121.506 47.8828C122.453 45.1397 123.463 42.2143 124.474 39.2889C125.528 36.3791 126.583 33.4693 127.571 30.7408C128.558 28.0113 129.551 25.4911 130.366 23.3169C131.185 21.1447 131.926 19.3548 132.417 18.0922C132.928 16.8357 133.22 16.119 133.22 16.119Z" fill="#7E5053"/>
<path d="M134.684 18.8725C134.684 18.8725 134.579 19.3069 134.397 20.0674C134.193 20.8217 133.942 21.9114 133.569 23.196C133.195 24.4795 132.789 25.9881 132.299 27.5862C131.819 29.1875 131.27 30.8825 130.723 32.5786C130.157 34.2684 129.594 35.9593 129.029 37.5324C128.478 39.1097 127.907 40.5641 127.445 41.8184C126.984 43.0738 126.538 44.099 126.254 44.8272C125.95 45.5481 125.775 45.9596 125.775 45.9596C125.775 45.9596 125.879 45.5252 126.062 44.7647C126.266 44.0104 126.516 42.9196 126.889 41.6361C127.264 40.3515 127.667 38.843 128.159 37.2459C128.64 35.6446 129.19 33.9496 129.737 32.2535C130.304 30.5637 130.869 28.8728 131.432 27.2997C131.985 25.7234 132.554 24.2691 133.016 23.0137C133.478 21.7583 133.923 20.7331 134.206 20.0049C134.51 19.284 134.684 18.8725 134.684 18.8725Z" fill="#7E5053"/>
<path d="M133.219 75.1304C133.219 75.1304 132.999 75.6993 132.614 76.6942C132.207 77.6798 131.666 79.106 130.948 80.7864C130.229 82.4658 129.419 84.439 128.498 86.5279C127.587 88.6219 126.58 90.8389 125.575 93.058C124.55 95.2677 123.53 97.4784 122.538 99.5349C121.559 101.598 120.591 103.498 119.788 105.139C118.986 106.78 118.257 108.121 117.775 109.071C117.273 110.012 116.985 110.55 116.985 110.55C116.985 110.55 117.206 109.981 117.591 108.986C117.997 108 118.537 106.573 119.256 104.893C119.975 103.214 120.783 101.239 121.706 99.1515C122.616 97.0575 123.625 94.8405 124.63 92.6225C125.655 90.4128 126.676 88.2021 127.668 86.1455C128.649 84.0838 129.615 82.1825 130.418 80.5416C131.221 78.9008 131.947 77.5599 132.43 76.6088C132.933 75.668 133.219 75.1304 133.219 75.1304Z" fill="#7E5053"/>
<path d="M129.315 92.8412C129.315 92.8412 129.163 93.233 128.874 93.906C128.574 94.5738 128.182 95.5458 127.647 96.6793C127.11 97.8117 126.512 99.1484 125.819 100.552C125.135 101.961 124.371 103.446 123.611 104.933C122.831 106.409 122.054 107.887 121.292 109.255C120.543 110.629 119.789 111.885 119.171 112.974C118.553 114.064 117.979 114.942 117.605 115.571C117.218 116.194 116.985 116.543 116.985 116.543C116.985 116.543 117.137 116.151 117.425 115.478C117.725 114.81 118.115 113.837 118.652 112.704C119.191 111.572 119.785 110.234 120.48 108.832C121.164 107.422 121.928 105.939 122.689 104.452C123.469 102.976 124.247 101.499 125.008 100.13C125.76 98.7567 126.511 97.5002 127.129 96.4105C127.749 95.3218 128.32 94.4425 128.695 93.8133C129.082 93.1903 129.315 92.8412 129.315 92.8412Z" fill="#7E5053"/>
<path d="M125.103 84.4859C125.103 84.4859 124.999 84.7807 124.795 85.285C124.582 85.784 124.304 86.5112 123.923 87.3582C123.174 89.0595 122.096 91.2869 120.946 93.4736C119.789 95.6583 118.559 97.8045 117.577 99.3818C117.092 100.175 116.647 100.813 116.356 101.271C116.055 101.723 115.87 101.975 115.87 101.975C115.87 101.975 115.974 101.68 116.178 101.176C116.391 100.677 116.668 99.9485 117.05 99.1026C117.798 97.4013 118.877 95.1749 120.028 92.9871C121.186 90.8024 122.416 88.6573 123.398 87.08C123.883 86.2872 124.327 85.6475 124.619 85.1912C124.918 84.737 125.103 84.4859 125.103 84.4859Z" fill="#7E5053"/>
</g>
<defs>
<filter id="filter0_d" x="0" y="0" width="147" height="192" filterUnits="userSpaceOnUse" color-interpolation-filters="sRGB">
<feFlood flood-opacity="0" result="BackgroundImageFix"/>
<feColorMatrix in="SourceAlpha" type="matrix" values="0 0 0 0 0 0 0 0 0 0 0 0 0 0 0 0 0 0 127 0"/>
<feOffset dy="4"/>
<feGaussianBlur stdDeviation="2"/>
<feColorMatrix type="matrix" values="0 0 0 0 0 0 0 0 0 0 0 0 0 0 0 0 0 0 0.25 0"/>
<feBlend mode="normal" in2="BackgroundImageFix" result="effect1_dropShadow"/>
<feBlend mode="normal" in="SourceGraphic" in2="effect1_dropShadow" result="shape"/>
</filter>
<radialGradient id="paint0_radial" cx="0" cy="0" r="1" gradientUnits="userSpaceOnUse" gradientTransform="translate(79.7417 36.344) scale(3.20897 3.42476)">
<stop offset="0.4828" stop-color="#FFD2DF"/>
<stop offset="0.6488" stop-color="#FADEE6"/>
<stop offset="0.8285" stop-color="#FCEBF0"/>
<stop offset="1" stop-color="white"/>
</radialGradient>
<radialGradient id="paint1_radial" cx="0" cy="0" r="1" gradientUnits="userSpaceOnUse" gradientTransform="translate(113.408 44.269) scale(3.74341 3.99515)">
<stop offset="0.4828" stop-color="#FFD3E0"/>
<stop offset="0.6488" stop-color="#FADEE6"/>
<stop offset="0.8285" stop-color="#FCEBF0"/>
<stop offset="1" stop-color="white"/>
</radialGradient>
<radialGradient id="paint2_radial" cx="0" cy="0" r="1" gradientUnits="userSpaceOnUse" gradientTransform="translate(74.6783 65.9339) scale(3.60158 3.84377)">
<stop offset="0.4828" stop-color="#FACEDB"/>
<stop offset="0.6488" stop-color="#FADEE6"/>
<stop offset="0.8285" stop-color="#FCEBF0"/>
<stop offset="1" stop-color="white"/>
</radialGradient>
<radialGradient id="paint3_radial" cx="0" cy="0" r="1" gradientUnits="userSpaceOnUse" gradientTransform="translate(117.647 72.2896) scale(3.60158 3.84378)">
<stop offset="0.4828" stop-color="#FFD2DF"/>
<stop offset="0.6488" stop-color="#FADEE6"/>
<stop offset="0.8285" stop-color="#FCEBF0"/>
<stop offset="1" stop-color="white"/>
</radialGradient>
</defs>
</svg>
