<svg width="311" height="41" viewBox="0 0 311 41" fill="none" xmlns="http://www.w3.org/2000/svg">
<g filter="url(#filter0_d)">
<mask id="path-1-outside-1" maskUnits="userSpaceOnUse" x="2.85938" y="0.0976562" width="306" height="37" fill="black">
<rect fill="white" x="2.85938" y="0.0976562" width="306" height="37"/>
<path d="M31.793 16.0977C31.5742 16.0977 31.3828 16.2708 31.2188 16.6172C30.526 17.9661 29.7878 19.1875 29.0039 20.2812C28.2383 21.375 27.4635 22.3047 26.6797 23.0703C25.8958 23.8359 25.1211 24.4284 24.3555 24.8477C23.5898 25.2487 22.8698 25.4492 22.1953 25.4492C21.5391 25.4492 20.9284 25.3125 20.3633 25.0391C19.8164 24.7474 19.2148 24.2096 18.5586 23.4258C17.9206 22.6419 17.1823 21.5573 16.3438 20.1719C15.5234 18.7865 14.5117 16.9818 13.3086 14.7578C13.1081 14.3932 12.8984 14.1289 12.6797 13.9648C12.4792 13.7826 12.2969 13.6914 12.1328 13.6914C11.8958 13.6914 11.6771 13.9466 11.4766 14.457C11.276 14.9492 11.1029 15.651 10.957 16.5625C10.8112 17.4557 10.6927 18.5404 10.6016 19.8164C10.5286 21.0742 10.4922 22.4688 10.4922 24C10.4922 24.9115 10.5378 25.8229 10.6289 26.7344C10.7383 27.6458 10.793 28.5846 10.793 29.5508C10.793 29.8789 10.7018 30.1888 10.5195 30.4805C10.3372 30.7539 10.0911 30.9909 9.78125 31.1914C9.48958 31.4102 9.13411 31.5833 8.71484 31.7109C8.3138 31.8385 7.88542 31.9023 7.42969 31.9023C6.51823 31.9023 5.86198 31.3555 5.46094 30.2617C5.0599 29.168 4.85938 27.418 4.85938 25.0117C4.85938 21.9674 5.02344 19.2057 5.35156 16.7266C5.69792 14.2292 6.18099 12.0964 6.80078 10.3281C7.4388 8.54167 8.1862 7.16536 9.04297 6.19922C9.91797 5.21484 10.8932 4.72266 11.9688 4.72266C12.9167 4.72266 13.819 5.26953 14.6758 6.36328C15.5508 7.4388 16.4896 9.1888 17.4922 11.6133C17.8932 12.5977 18.3216 13.5182 18.7773 14.375C19.2513 15.2318 19.7161 15.9792 20.1719 16.6172C20.6458 17.237 21.1016 17.7292 21.5391 18.0938C21.9766 18.4401 22.3685 18.6133 22.7148 18.6133C23.0612 18.6133 23.3893 18.5404 23.6992 18.3945C24.0273 18.2305 24.3919 17.8932 24.793 17.3828C25.2122 16.8542 25.6953 16.0885 26.2422 15.0859C26.8073 14.0833 27.5 12.7435 28.3203 11.0664C28.7578 10.1914 29.1497 9.46224 29.4961 8.87891C29.8424 8.29557 30.1888 7.83073 30.5352 7.48438C30.8815 7.11979 31.2461 6.86458 31.6289 6.71875C32.0117 6.55469 32.4401 6.47266 32.9141 6.47266C33.4792 6.47266 34.0352 6.77344 34.582 7.375C35.1289 7.97656 35.6576 8.77865 36.168 9.78125C36.6966 10.7839 37.207 11.9505 37.6992 13.2812C38.1914 14.612 38.6654 16.0065 39.1211 17.4648C39.5951 18.9232 40.0508 20.4089 40.4883 21.9219C40.944 23.4167 41.3815 24.8385 41.8008 26.1875C41.9102 26.5885 41.9831 26.8711 42.0195 27.0352C42.0742 27.181 42.1016 27.3633 42.1016 27.582C42.1016 27.8919 42.0013 28.2018 41.8008 28.5117C41.6185 28.8034 41.3724 29.0677 41.0625 29.3047C40.7526 29.5417 40.3971 29.7331 39.9961 29.8789C39.6133 30.0247 39.2305 30.0977 38.8477 30.0977C38.3372 30.0977 37.9362 30.043 37.6445 29.9336C37.3711 29.806 37.1523 29.5872 36.9883 29.2773C36.8971 29.1133 36.7422 28.6758 36.5234 27.9648C36.3047 27.2539 36.0404 26.4154 35.7305 25.4492C35.4388 24.4648 35.1107 23.4258 34.7461 22.332C34.3997 21.2383 34.0443 20.2357 33.6797 19.3242C33.3333 18.3945 32.9961 17.6289 32.668 17.0273C32.3398 16.4076 32.0482 16.0977 31.793 16.0977Z"/>
<path d="M46.2578 24.2734C46.2031 24.2734 46.112 24.2826 45.9844 24.3008C45.875 24.319 45.7474 24.3372 45.6016 24.3555C45.474 24.3737 45.3464 24.3919 45.2188 24.4102C45.0911 24.4284 44.9909 24.4375 44.918 24.4375C44.4076 24.4375 43.9609 24.2279 43.5781 23.8086C43.1953 23.3711 43.0039 22.7969 43.0039 22.0859C43.0039 21.612 43.1589 21.1562 43.4688 20.7188C43.7786 20.2812 44.2617 19.9167 44.918 19.625C45.1185 19.5339 45.2734 19.4336 45.3828 19.3242C45.5104 19.1966 45.5742 19.0234 45.5742 18.8047C45.5742 18.2214 45.556 17.6016 45.5195 16.9453C45.5013 16.2708 45.4648 15.487 45.4102 14.5938C45.3919 14.4115 45.3281 14.2383 45.2188 14.0742C45.1276 13.9102 45.0182 13.7279 44.8906 13.5273C44.7812 13.3086 44.681 13.0716 44.5898 12.8164C44.4987 12.5612 44.4531 12.2422 44.4531 11.8594C44.4531 11.513 44.4987 11.1211 44.5898 10.6836C44.6992 10.2279 44.9089 9.80859 45.2188 9.42578C45.5469 9.02474 45.9935 8.69661 46.5586 8.44141C47.1419 8.16797 47.8984 8.03125 48.8281 8.03125C49.2109 8.03125 49.5299 8.06771 49.7852 8.14062C50.0404 8.21354 50.2591 8.30469 50.4414 8.41406C50.6419 8.50521 50.8151 8.58724 50.9609 8.66016C51.125 8.73307 51.2891 8.76953 51.4531 8.76953C51.7448 8.76953 52.3281 8.71484 53.2031 8.60547C54.0781 8.49609 55.1263 8.34115 56.3477 8.14062C57.5872 7.9401 58.9453 7.71224 60.4219 7.45703C61.9167 7.20182 63.4297 6.92839 64.9609 6.63672C66.4922 6.32682 67.987 6.01693 69.4453 5.70703C70.9036 5.39714 72.2253 5.09635 73.4102 4.80469C73.7747 4.71354 74.0938 4.66797 74.3672 4.66797C74.75 4.66797 75.0508 4.75911 75.2695 4.94141C75.5065 5.10547 75.6797 5.3151 75.7891 5.57031C75.8984 5.82552 75.9622 6.11719 75.9805 6.44531C76.0169 6.75521 76.0352 7.04688 76.0352 7.32031C76.0352 7.79427 75.8711 8.24089 75.543 8.66016C75.2331 9.0612 74.7135 9.38021 73.9844 9.61719C72.1797 10.1458 70.3568 10.6107 68.5156 11.0117C66.6927 11.3945 64.8516 11.75 62.9922 12.0781C61.1328 12.388 59.2643 12.6706 57.3867 12.9258C55.5091 13.181 53.6406 13.4362 51.7812 13.6914C51.526 13.7279 51.3346 13.8281 51.207 13.9922C51.0794 14.138 51.0156 14.3385 51.0156 14.5938V15.7148C51.0156 16.0247 51.0247 16.3438 51.043 16.6719C51.0612 17 51.0977 17.3008 51.1523 17.5742C51.2253 17.8477 51.3164 18.0755 51.4258 18.2578C51.5352 18.4219 51.681 18.5039 51.8633 18.5039C52.3008 18.5039 52.9753 18.4128 53.8867 18.2305C54.8164 18.0482 55.8555 17.8294 57.0039 17.5742C58.1706 17.3008 59.3828 17.0091 60.6406 16.6992C61.9167 16.3711 63.1198 16.0794 64.25 15.8242C65.3802 15.5508 66.3737 15.3229 67.2305 15.1406C68.0872 14.9583 68.6888 14.8672 69.0352 14.8672C69.5456 14.8672 69.9284 15.0586 70.1836 15.4414C70.457 15.806 70.6393 16.2708 70.7305 16.8359C70.7305 16.9271 70.7396 17.0091 70.7578 17.082C70.776 17.1549 70.7852 17.237 70.7852 17.3281C70.7852 17.8568 70.6211 18.349 70.293 18.8047C69.9831 19.2422 69.418 19.5703 68.5977 19.7891C68.3789 19.862 67.9414 19.9805 67.2852 20.1445C66.6289 20.2904 65.8542 20.4727 64.9609 20.6914C64.0677 20.8919 63.1016 21.1107 62.0625 21.3477C61.0234 21.5846 60.0026 21.8216 59 22.0586C57.9974 22.2773 57.0586 22.4961 56.1836 22.7148C55.3268 22.9154 54.625 23.0794 54.0781 23.207C53.5859 23.3346 53.2852 23.4349 53.1758 23.5078C53.0846 23.5807 53.0391 23.6719 53.0391 23.7812C53.0755 24.1823 53.276 24.556 53.6406 24.9023C54.0234 25.2487 54.4974 25.5677 55.0625 25.8594C55.6458 26.151 56.293 26.4154 57.0039 26.6523C57.7331 26.8893 58.4805 27.0898 59.2461 27.2539C60.0299 27.3997 60.7956 27.5182 61.543 27.6094C62.2904 27.7005 62.9831 27.7461 63.6211 27.7461C63.8945 27.7461 64.2865 27.7461 64.7969 27.7461C65.3073 27.7461 65.8633 27.737 66.4648 27.7188C67.0846 27.6823 67.7135 27.6367 68.3516 27.582C69.0078 27.5273 69.5911 27.4544 70.1016 27.3633C70.6302 27.2539 71.0586 27.1263 71.3867 26.9805C71.7331 26.8164 71.9062 26.625 71.9062 26.4062C71.9062 26.2057 71.8333 25.9961 71.6875 25.7773C71.5599 25.5586 71.4961 25.3216 71.4961 25.0664C71.4961 24.7018 71.5964 24.3464 71.7969 24C71.9974 23.6354 72.2526 23.3164 72.5625 23.043C72.8906 22.7513 73.2552 22.5234 73.6562 22.3594C74.0755 22.1771 74.4948 22.0859 74.9141 22.0859C75.4427 22.0859 75.9258 22.1953 76.3633 22.4141C76.8008 22.6146 77.1745 22.888 77.4844 23.2344C77.8125 23.5625 78.0586 23.9453 78.2227 24.3828C78.4049 24.8203 78.4961 25.2669 78.4961 25.7227C78.4961 26.9258 78.0495 27.9648 77.1562 28.8398C76.2812 29.7148 75.1328 30.4349 73.7109 31C72.2891 31.5833 70.6849 32.0117 68.8984 32.2852C67.112 32.5768 65.3164 32.7227 63.5117 32.7227C61.3971 32.7227 59.4648 32.5768 57.7148 32.2852C55.9648 32.0117 54.3971 31.5651 53.0117 30.9453C51.6263 30.3255 50.4323 29.5234 49.4297 28.5391C48.4271 27.5365 47.6068 26.3242 46.9688 24.9023C46.75 24.4831 46.513 24.2734 46.2578 24.2734Z"/>
<path d="M105.566 16.0977C105.348 16.0977 105.156 16.2708 104.992 16.6172C104.299 17.9661 103.561 19.1875 102.777 20.2812C102.012 21.375 101.237 22.3047 100.453 23.0703C99.6693 23.8359 98.8945 24.4284 98.1289 24.8477C97.3633 25.2487 96.6432 25.4492 95.9688 25.4492C95.3125 25.4492 94.7018 25.3125 94.1367 25.0391C93.5898 24.7474 92.9883 24.2096 92.332 23.4258C91.694 22.6419 90.9557 21.5573 90.1172 20.1719C89.2969 18.7865 88.2852 16.9818 87.082 14.7578C86.8815 14.3932 86.6719 14.1289 86.4531 13.9648C86.2526 13.7826 86.0703 13.6914 85.9062 13.6914C85.6693 13.6914 85.4505 13.9466 85.25 14.457C85.0495 14.9492 84.8763 15.651 84.7305 16.5625C84.5846 17.4557 84.4661 18.5404 84.375 19.8164C84.3021 21.0742 84.2656 22.4688 84.2656 24C84.2656 24.9115 84.3112 25.8229 84.4023 26.7344C84.5117 27.6458 84.5664 28.5846 84.5664 29.5508C84.5664 29.8789 84.4753 30.1888 84.293 30.4805C84.1107 30.7539 83.8646 30.9909 83.5547 31.1914C83.263 31.4102 82.9076 31.5833 82.4883 31.7109C82.0872 31.8385 81.6589 31.9023 81.2031 31.9023C80.2917 31.9023 79.6354 31.3555 79.2344 30.2617C78.8333 29.168 78.6328 27.418 78.6328 25.0117C78.6328 21.9674 78.7969 19.2057 79.125 16.7266C79.4714 14.2292 79.9544 12.0964 80.5742 10.3281C81.2122 8.54167 81.9596 7.16536 82.8164 6.19922C83.6914 5.21484 84.6667 4.72266 85.7422 4.72266C86.6901 4.72266 87.5924 5.26953 88.4492 6.36328C89.3242 7.4388 90.263 9.1888 91.2656 11.6133C91.6667 12.5977 92.0951 13.5182 92.5508 14.375C93.0247 15.2318 93.4896 15.9792 93.9453 16.6172C94.4193 17.237 94.875 17.7292 95.3125 18.0938C95.75 18.4401 96.1419 18.6133 96.4883 18.6133C96.8346 18.6133 97.1628 18.5404 97.4727 18.3945C97.8008 18.2305 98.1654 17.8932 98.5664 17.3828C98.9857 16.8542 99.4688 16.0885 100.016 15.0859C100.581 14.0833 101.273 12.7435 102.094 11.0664C102.531 10.1914 102.923 9.46224 103.27 8.87891C103.616 8.29557 103.962 7.83073 104.309 7.48438C104.655 7.11979 105.02 6.86458 105.402 6.71875C105.785 6.55469 106.214 6.47266 106.688 6.47266C107.253 6.47266 107.809 6.77344 108.355 7.375C108.902 7.97656 109.431 8.77865 109.941 9.78125C110.47 10.7839 110.98 11.9505 111.473 13.2812C111.965 14.612 112.439 16.0065 112.895 17.4648C113.368 18.9232 113.824 20.4089 114.262 21.9219C114.717 23.4167 115.155 24.8385 115.574 26.1875C115.684 26.5885 115.757 26.8711 115.793 27.0352C115.848 27.181 115.875 27.3633 115.875 27.582C115.875 27.8919 115.775 28.2018 115.574 28.5117C115.392 28.8034 115.146 29.0677 114.836 29.3047C114.526 29.5417 114.171 29.7331 113.77 29.8789C113.387 30.0247 113.004 30.0977 112.621 30.0977C112.111 30.0977 111.71 30.043 111.418 29.9336C111.145 29.806 110.926 29.5872 110.762 29.2773C110.671 29.1133 110.516 28.6758 110.297 27.9648C110.078 27.2539 109.814 26.4154 109.504 25.4492C109.212 24.4648 108.884 23.4258 108.52 22.332C108.173 21.2383 107.818 20.2357 107.453 19.3242C107.107 18.3945 106.77 17.6289 106.441 17.0273C106.113 16.4076 105.822 16.0977 105.566 16.0977Z"/>
<path d="M130.832 34.418C128.845 34.418 127.013 34.0807 125.336 33.4062C123.677 32.7318 122.246 31.793 121.043 30.5898C119.84 29.3685 118.901 27.9193 118.227 26.2422C117.552 24.5651 117.215 22.7148 117.215 20.6914C117.215 19.5977 117.306 18.5495 117.488 17.5469C117.689 16.526 117.953 15.5781 118.281 14.7031C118.427 14.3568 118.5 14.1107 118.5 13.9648C118.5 13.7826 118.454 13.6094 118.363 13.4453C118.272 13.2812 118.172 13.1081 118.062 12.9258C117.953 12.7435 117.853 12.5521 117.762 12.3516C117.671 12.151 117.625 11.9232 117.625 11.668C117.625 10.9023 118.062 10.1549 118.938 9.42578C119.812 8.67839 120.97 8.02214 122.41 7.45703C123.85 6.8737 125.482 6.40885 127.305 6.0625C129.128 5.69792 130.996 5.51562 132.91 5.51562C135.262 5.51562 137.376 5.81641 139.254 6.41797C141.15 7.01953 142.754 7.88542 144.066 9.01562C145.397 10.1276 146.418 11.4857 147.129 13.0898C147.84 14.694 148.195 16.4987 148.195 18.5039C148.195 20.7461 147.749 22.8424 146.855 24.793C145.962 26.7253 144.732 28.4023 143.164 29.8242C141.615 31.2461 139.783 32.3672 137.668 33.1875C135.553 34.0078 133.275 34.418 130.832 34.418ZM142.699 19.5703C142.699 18.1484 142.453 16.8724 141.961 15.7422C141.469 14.612 140.758 13.6641 139.828 12.8984C138.898 12.1146 137.75 11.5221 136.383 11.1211C135.034 10.7018 133.503 10.4922 131.789 10.4922C128.781 10.4922 126.512 11.2578 124.98 12.7891C123.467 14.3021 122.711 16.5625 122.711 19.5703C122.711 21.0286 122.939 22.3685 123.395 23.5898C123.85 24.793 124.488 25.832 125.309 26.707C126.129 27.5638 127.104 28.2383 128.234 28.7305C129.383 29.2044 130.641 29.4414 132.008 29.4414C133.576 29.4414 135.016 29.2044 136.328 28.7305C137.641 28.2383 138.762 27.5547 139.691 26.6797C140.639 25.8047 141.378 24.7656 141.906 23.5625C142.435 22.3411 142.699 21.0104 142.699 19.5703Z"/>
<path d="M176.305 2.72656C176.688 2.48958 177.079 2.32552 177.48 2.23438C177.882 2.14323 178.255 2.09766 178.602 2.09766C179.057 2.09766 179.467 2.17969 179.832 2.34375C180.197 2.48958 180.507 2.68099 180.762 2.91797C181.017 3.15495 181.208 3.42839 181.336 3.73828C181.482 4.02995 181.555 4.32161 181.555 4.61328C181.555 5.01432 181.418 5.39714 181.145 5.76172C180.889 6.1263 180.525 6.4362 180.051 6.69141C179.103 7.23828 178.31 7.70312 177.672 8.08594C177.034 8.46875 176.487 8.8151 176.031 9.125C175.594 9.4349 175.211 9.72656 174.883 10C174.555 10.2734 174.227 10.5742 173.898 10.9023C173.424 11.3398 172.969 11.8411 172.531 12.4062C172.094 12.9714 171.702 13.5365 171.355 14.1016C171.027 14.6484 170.754 15.1771 170.535 15.6875C170.335 16.1979 170.234 16.6172 170.234 16.9453C170.234 17.2188 170.307 17.4375 170.453 17.6016C170.599 17.7656 170.809 17.8477 171.082 17.8477C171.374 17.8477 171.693 17.7474 172.039 17.5469C173.151 16.9271 174.318 16.3711 175.539 15.8789C176.779 15.3867 178.027 14.9674 179.285 14.6211C180.543 14.2747 181.801 14.0195 183.059 13.8555C184.316 13.6732 185.538 13.582 186.723 13.582C188.6 13.582 190.323 13.7917 191.891 14.2109C193.458 14.612 194.807 15.1771 195.938 15.9062C197.068 16.6354 197.943 17.5195 198.562 18.5586C199.182 19.5794 199.492 20.7005 199.492 21.9219C199.492 23.2891 199.1 24.6016 198.316 25.8594C197.533 27.1172 196.457 28.2201 195.09 29.168C193.723 30.1159 192.109 30.8724 190.25 31.4375C188.391 32.0026 186.385 32.2852 184.234 32.2852C181.372 32.2852 178.747 31.9844 176.359 31.3828C173.99 30.7995 171.948 29.9792 170.234 28.9219C168.539 27.8646 167.217 26.6068 166.27 25.1484C165.34 23.6719 164.875 22.0586 164.875 20.3086C164.875 18.5768 165.112 16.8815 165.586 15.2227C166.078 13.5456 166.798 11.9596 167.746 10.4648C168.712 8.95182 169.906 7.54818 171.328 6.25391C172.75 4.94141 174.409 3.76562 176.305 2.72656ZM193.996 22.8789C193.996 22.2591 193.796 21.694 193.395 21.1836C193.012 20.6732 192.465 20.2357 191.754 19.8711C191.061 19.5065 190.214 19.224 189.211 19.0234C188.227 18.8229 187.133 18.7227 185.93 18.7227C183.651 18.7227 181.418 19.0417 179.23 19.6797C177.061 20.2995 175.02 21.2018 173.105 22.3867C172.65 22.6784 172.422 23.0339 172.422 23.4531C172.422 23.7448 172.586 24.0456 172.914 24.3555C173.242 24.6471 173.689 24.9297 174.254 25.2031C174.819 25.4766 175.484 25.7409 176.25 25.9961C177.016 26.2513 177.827 26.4701 178.684 26.6523C179.54 26.8346 180.424 26.9805 181.336 27.0898C182.247 27.1992 183.141 27.2539 184.016 27.2539C185.419 27.2539 186.723 27.1445 187.926 26.9258C189.147 26.6888 190.204 26.3789 191.098 25.9961C192.009 25.5951 192.72 25.1302 193.23 24.6016C193.741 24.0729 193.996 23.4987 193.996 22.8789Z"/>
<path d="M199.738 25.5586C199.428 25.5586 199.191 25.4036 199.027 25.0938C198.882 24.7839 198.809 24.3464 198.809 23.7812C198.809 23.6901 198.809 23.5898 198.809 23.4805C198.809 23.3529 198.827 23.1159 198.863 22.7695C198.918 21.457 199.565 20.6914 200.805 20.4727L201.434 20.418C201.853 20.3633 202.181 20.2357 202.418 20.0352C202.655 19.8164 202.828 19.5156 202.938 19.1328C203.247 18.0938 203.557 17.0456 203.867 15.9883C204.177 14.931 204.505 13.8828 204.852 12.8438C205.034 12.2604 205.216 11.6406 205.398 10.9844C205.599 10.3099 205.809 9.64453 206.027 8.98828C206.264 8.33203 206.529 7.6849 206.82 7.04688C207.13 6.40885 207.477 5.82552 207.859 5.29688C208.023 5.07812 208.251 4.85026 208.543 4.61328C208.835 4.3763 209.163 4.16667 209.527 3.98438C209.91 3.78385 210.311 3.62891 210.73 3.51953C211.168 3.39193 211.596 3.32812 212.016 3.32812C212.562 3.32812 213.1 3.5013 213.629 3.84766C214.34 4.33984 215.042 4.93229 215.734 5.625C216.427 6.31771 217.202 7.20182 218.059 8.27734C218.915 9.35286 219.909 10.6562 221.039 12.1875C222.169 13.7005 223.527 15.5326 225.113 17.6836C225.35 17.957 225.596 18.1667 225.852 18.3125C226.125 18.4401 226.444 18.5039 226.809 18.5039H228.367C229.005 18.5039 229.497 18.6589 229.844 18.9688C230.208 19.2604 230.391 19.6706 230.391 20.1992C230.391 20.3086 230.382 20.4362 230.363 20.582C230.363 20.7279 230.336 20.8737 230.281 21.0195L229.762 22.5508C229.725 22.6966 229.698 22.8242 229.68 22.9336C229.661 23.043 229.652 23.1523 229.652 23.2617C229.652 23.6445 229.78 24.0365 230.035 24.4375L232.961 28.4297C233.289 28.9219 233.453 29.3867 233.453 29.8242C233.453 30.4805 233.079 31.0547 232.332 31.5469L231.293 32.2852C231.038 32.4492 230.792 32.5768 230.555 32.668C230.336 32.7591 230.108 32.8047 229.871 32.8047C229.543 32.8047 229.233 32.7044 228.941 32.5039C228.668 32.3216 228.404 32.0664 228.148 31.7383C227.273 30.4987 226.389 29.2773 225.496 28.0742C224.621 26.8711 223.728 25.6771 222.816 24.4922C222.397 23.9089 221.841 23.6172 221.148 23.6172C218.924 23.7083 216.719 23.8359 214.531 24C212.362 24.1458 210.184 24.3281 207.996 24.5469C207.212 24.6198 206.72 25.0391 206.52 25.8047L205.289 30.3164C204.961 31.5195 204.232 32.1211 203.102 32.1211H202.664L201.816 32.0117C201.197 31.957 200.723 31.7656 200.395 31.4375C200.085 31.1094 199.93 30.681 199.93 30.1523C199.93 30.043 199.939 29.9245 199.957 29.7969C199.975 29.6693 200.003 29.5326 200.039 29.3867C200.13 29.0221 200.221 28.6484 200.312 28.2656C200.422 27.8828 200.531 27.5091 200.641 27.1445C200.677 26.9987 200.704 26.8711 200.723 26.7617C200.741 26.6341 200.75 26.5156 200.75 26.4062C200.75 25.8411 200.531 25.5586 200.094 25.5586H199.738ZM212.754 11.1211C212.572 10.957 212.408 10.8203 212.262 10.7109C212.116 10.6016 211.961 10.5469 211.797 10.5469C211.341 10.5469 211.022 10.8659 210.84 11.5039C210.475 12.5794 210.12 13.6458 209.773 14.7031C209.445 15.7422 209.108 16.8086 208.762 17.9023C208.725 17.9935 208.707 18.0755 208.707 18.1484C208.707 18.2214 208.707 18.3034 208.707 18.3945C208.707 19.069 209.062 19.4062 209.773 19.4062H210.047C211.141 19.2604 212.234 19.151 213.328 19.0781C214.422 18.987 215.516 18.9141 216.609 18.8594C216.974 18.8229 217.257 18.7318 217.457 18.5859C217.676 18.4219 217.785 18.2122 217.785 17.957C217.785 17.7201 217.676 17.4375 217.457 17.1094C216.691 16.0885 215.917 15.0859 215.133 14.1016C214.367 13.099 213.574 12.1055 212.754 11.1211Z"/>
<path d="M259.84 16.0977C259.621 16.0977 259.43 16.2708 259.266 16.6172C258.573 17.9661 257.835 19.1875 257.051 20.2812C256.285 21.375 255.51 22.3047 254.727 23.0703C253.943 23.8359 253.168 24.4284 252.402 24.8477C251.637 25.2487 250.917 25.4492 250.242 25.4492C249.586 25.4492 248.975 25.3125 248.41 25.0391C247.863 24.7474 247.262 24.2096 246.605 23.4258C245.967 22.6419 245.229 21.5573 244.391 20.1719C243.57 18.7865 242.559 16.9818 241.355 14.7578C241.155 14.3932 240.945 14.1289 240.727 13.9648C240.526 13.7826 240.344 13.6914 240.18 13.6914C239.943 13.6914 239.724 13.9466 239.523 14.457C239.323 14.9492 239.15 15.651 239.004 16.5625C238.858 17.4557 238.74 18.5404 238.648 19.8164C238.576 21.0742 238.539 22.4688 238.539 24C238.539 24.9115 238.585 25.8229 238.676 26.7344C238.785 27.6458 238.84 28.5846 238.84 29.5508C238.84 29.8789 238.749 30.1888 238.566 30.4805C238.384 30.7539 238.138 30.9909 237.828 31.1914C237.536 31.4102 237.181 31.5833 236.762 31.7109C236.361 31.8385 235.932 31.9023 235.477 31.9023C234.565 31.9023 233.909 31.3555 233.508 30.2617C233.107 29.168 232.906 27.418 232.906 25.0117C232.906 21.9674 233.07 19.2057 233.398 16.7266C233.745 14.2292 234.228 12.0964 234.848 10.3281C235.486 8.54167 236.233 7.16536 237.09 6.19922C237.965 5.21484 238.94 4.72266 240.016 4.72266C240.964 4.72266 241.866 5.26953 242.723 6.36328C243.598 7.4388 244.536 9.1888 245.539 11.6133C245.94 12.5977 246.368 13.5182 246.824 14.375C247.298 15.2318 247.763 15.9792 248.219 16.6172C248.693 17.237 249.148 17.7292 249.586 18.0938C250.023 18.4401 250.415 18.6133 250.762 18.6133C251.108 18.6133 251.436 18.5404 251.746 18.3945C252.074 18.2305 252.439 17.8932 252.84 17.3828C253.259 16.8542 253.742 16.0885 254.289 15.0859C254.854 14.0833 255.547 12.7435 256.367 11.0664C256.805 10.1914 257.197 9.46224 257.543 8.87891C257.889 8.29557 258.236 7.83073 258.582 7.48438C258.928 7.11979 259.293 6.86458 259.676 6.71875C260.059 6.55469 260.487 6.47266 260.961 6.47266C261.526 6.47266 262.082 6.77344 262.629 7.375C263.176 7.97656 263.704 8.77865 264.215 9.78125C264.743 10.7839 265.254 11.9505 265.746 13.2812C266.238 14.612 266.712 16.0065 267.168 17.4648C267.642 18.9232 268.098 20.4089 268.535 21.9219C268.991 23.4167 269.428 24.8385 269.848 26.1875C269.957 26.5885 270.03 26.8711 270.066 27.0352C270.121 27.181 270.148 27.3633 270.148 27.582C270.148 27.8919 270.048 28.2018 269.848 28.5117C269.665 28.8034 269.419 29.0677 269.109 29.3047C268.799 29.5417 268.444 29.7331 268.043 29.8789C267.66 30.0247 267.277 30.0977 266.895 30.0977C266.384 30.0977 265.983 30.043 265.691 29.9336C265.418 29.806 265.199 29.5872 265.035 29.2773C264.944 29.1133 264.789 28.6758 264.57 27.9648C264.352 27.2539 264.087 26.4154 263.777 25.4492C263.486 24.4648 263.158 23.4258 262.793 22.332C262.447 21.2383 262.091 20.2357 261.727 19.3242C261.38 18.3945 261.043 17.6289 260.715 17.0273C260.387 16.4076 260.095 16.0977 259.84 16.0977Z"/>
<path d="M274.305 24.2734C274.25 24.2734 274.159 24.2826 274.031 24.3008C273.922 24.319 273.794 24.3372 273.648 24.3555C273.521 24.3737 273.393 24.3919 273.266 24.4102C273.138 24.4284 273.038 24.4375 272.965 24.4375C272.454 24.4375 272.008 24.2279 271.625 23.8086C271.242 23.3711 271.051 22.7969 271.051 22.0859C271.051 21.612 271.206 21.1562 271.516 20.7188C271.826 20.2812 272.309 19.9167 272.965 19.625C273.165 19.5339 273.32 19.4336 273.43 19.3242C273.557 19.1966 273.621 19.0234 273.621 18.8047C273.621 18.2214 273.603 17.6016 273.566 16.9453C273.548 16.2708 273.512 15.487 273.457 14.5938C273.439 14.4115 273.375 14.2383 273.266 14.0742C273.174 13.9102 273.065 13.7279 272.938 13.5273C272.828 13.3086 272.728 13.0716 272.637 12.8164C272.546 12.5612 272.5 12.2422 272.5 11.8594C272.5 11.513 272.546 11.1211 272.637 10.6836C272.746 10.2279 272.956 9.80859 273.266 9.42578C273.594 9.02474 274.04 8.69661 274.605 8.44141C275.189 8.16797 275.945 8.03125 276.875 8.03125C277.258 8.03125 277.577 8.06771 277.832 8.14062C278.087 8.21354 278.306 8.30469 278.488 8.41406C278.689 8.50521 278.862 8.58724 279.008 8.66016C279.172 8.73307 279.336 8.76953 279.5 8.76953C279.792 8.76953 280.375 8.71484 281.25 8.60547C282.125 8.49609 283.173 8.34115 284.395 8.14062C285.634 7.9401 286.992 7.71224 288.469 7.45703C289.964 7.20182 291.477 6.92839 293.008 6.63672C294.539 6.32682 296.034 6.01693 297.492 5.70703C298.951 5.39714 300.272 5.09635 301.457 4.80469C301.822 4.71354 302.141 4.66797 302.414 4.66797C302.797 4.66797 303.098 4.75911 303.316 4.94141C303.553 5.10547 303.727 5.3151 303.836 5.57031C303.945 5.82552 304.009 6.11719 304.027 6.44531C304.064 6.75521 304.082 7.04688 304.082 7.32031C304.082 7.79427 303.918 8.24089 303.59 8.66016C303.28 9.0612 302.76 9.38021 302.031 9.61719C300.227 10.1458 298.404 10.6107 296.562 11.0117C294.74 11.3945 292.898 11.75 291.039 12.0781C289.18 12.388 287.311 12.6706 285.434 12.9258C283.556 13.181 281.688 13.4362 279.828 13.6914C279.573 13.7279 279.382 13.8281 279.254 13.9922C279.126 14.138 279.062 14.3385 279.062 14.5938V15.7148C279.062 16.0247 279.072 16.3438 279.09 16.6719C279.108 17 279.145 17.3008 279.199 17.5742C279.272 17.8477 279.363 18.0755 279.473 18.2578C279.582 18.4219 279.728 18.5039 279.91 18.5039C280.348 18.5039 281.022 18.4128 281.934 18.2305C282.863 18.0482 283.902 17.8294 285.051 17.5742C286.217 17.3008 287.43 17.0091 288.688 16.6992C289.964 16.3711 291.167 16.0794 292.297 15.8242C293.427 15.5508 294.421 15.3229 295.277 15.1406C296.134 14.9583 296.736 14.8672 297.082 14.8672C297.592 14.8672 297.975 15.0586 298.23 15.4414C298.504 15.806 298.686 16.2708 298.777 16.8359C298.777 16.9271 298.786 17.0091 298.805 17.082C298.823 17.1549 298.832 17.237 298.832 17.3281C298.832 17.8568 298.668 18.349 298.34 18.8047C298.03 19.2422 297.465 19.5703 296.645 19.7891C296.426 19.862 295.988 19.9805 295.332 20.1445C294.676 20.2904 293.901 20.4727 293.008 20.6914C292.115 20.8919 291.148 21.1107 290.109 21.3477C289.07 21.5846 288.049 21.8216 287.047 22.0586C286.044 22.2773 285.105 22.4961 284.23 22.7148C283.374 22.9154 282.672 23.0794 282.125 23.207C281.633 23.3346 281.332 23.4349 281.223 23.5078C281.132 23.5807 281.086 23.6719 281.086 23.7812C281.122 24.1823 281.323 24.556 281.688 24.9023C282.07 25.2487 282.544 25.5677 283.109 25.8594C283.693 26.151 284.34 26.4154 285.051 26.6523C285.78 26.8893 286.527 27.0898 287.293 27.2539C288.077 27.3997 288.842 27.5182 289.59 27.6094C290.337 27.7005 291.03 27.7461 291.668 27.7461C291.941 27.7461 292.333 27.7461 292.844 27.7461C293.354 27.7461 293.91 27.737 294.512 27.7188C295.132 27.6823 295.76 27.6367 296.398 27.582C297.055 27.5273 297.638 27.4544 298.148 27.3633C298.677 27.2539 299.105 27.1263 299.434 26.9805C299.78 26.8164 299.953 26.625 299.953 26.4062C299.953 26.2057 299.88 25.9961 299.734 25.7773C299.607 25.5586 299.543 25.3216 299.543 25.0664C299.543 24.7018 299.643 24.3464 299.844 24C300.044 23.6354 300.299 23.3164 300.609 23.043C300.938 22.7513 301.302 22.5234 301.703 22.3594C302.122 22.1771 302.542 22.0859 302.961 22.0859C303.49 22.0859 303.973 22.1953 304.41 22.4141C304.848 22.6146 305.221 22.888 305.531 23.2344C305.859 23.5625 306.105 23.9453 306.27 24.3828C306.452 24.8203 306.543 25.2669 306.543 25.7227C306.543 26.9258 306.096 27.9648 305.203 28.8398C304.328 29.7148 303.18 30.4349 301.758 31C300.336 31.5833 298.732 32.0117 296.945 32.2852C295.159 32.5768 293.363 32.7227 291.559 32.7227C289.444 32.7227 287.512 32.5768 285.762 32.2852C284.012 32.0117 282.444 31.5651 281.059 30.9453C279.673 30.3255 278.479 29.5234 277.477 28.5391C276.474 27.5365 275.654 26.3242 275.016 24.9023C274.797 24.4831 274.56 24.2734 274.305 24.2734Z"/>
</mask>
<path d="M31.793 16.0977C31.5742 16.0977 31.3828 16.2708 31.2188 16.6172C30.526 17.9661 29.7878 19.1875 29.0039 20.2812C28.2383 21.375 27.4635 22.3047 26.6797 23.0703C25.8958 23.8359 25.1211 24.4284 24.3555 24.8477C23.5898 25.2487 22.8698 25.4492 22.1953 25.4492C21.5391 25.4492 20.9284 25.3125 20.3633 25.0391C19.8164 24.7474 19.2148 24.2096 18.5586 23.4258C17.9206 22.6419 17.1823 21.5573 16.3438 20.1719C15.5234 18.7865 14.5117 16.9818 13.3086 14.7578C13.1081 14.3932 12.8984 14.1289 12.6797 13.9648C12.4792 13.7826 12.2969 13.6914 12.1328 13.6914C11.8958 13.6914 11.6771 13.9466 11.4766 14.457C11.276 14.9492 11.1029 15.651 10.957 16.5625C10.8112 17.4557 10.6927 18.5404 10.6016 19.8164C10.5286 21.0742 10.4922 22.4688 10.4922 24C10.4922 24.9115 10.5378 25.8229 10.6289 26.7344C10.7383 27.6458 10.793 28.5846 10.793 29.5508C10.793 29.8789 10.7018 30.1888 10.5195 30.4805C10.3372 30.7539 10.0911 30.9909 9.78125 31.1914C9.48958 31.4102 9.13411 31.5833 8.71484 31.7109C8.3138 31.8385 7.88542 31.9023 7.42969 31.9023C6.51823 31.9023 5.86198 31.3555 5.46094 30.2617C5.0599 29.168 4.85938 27.418 4.85938 25.0117C4.85938 21.9674 5.02344 19.2057 5.35156 16.7266C5.69792 14.2292 6.18099 12.0964 6.80078 10.3281C7.4388 8.54167 8.1862 7.16536 9.04297 6.19922C9.91797 5.21484 10.8932 4.72266 11.9688 4.72266C12.9167 4.72266 13.819 5.26953 14.6758 6.36328C15.5508 7.4388 16.4896 9.1888 17.4922 11.6133C17.8932 12.5977 18.3216 13.5182 18.7773 14.375C19.2513 15.2318 19.7161 15.9792 20.1719 16.6172C20.6458 17.237 21.1016 17.7292 21.5391 18.0938C21.9766 18.4401 22.3685 18.6133 22.7148 18.6133C23.0612 18.6133 23.3893 18.5404 23.6992 18.3945C24.0273 18.2305 24.3919 17.8932 24.793 17.3828C25.2122 16.8542 25.6953 16.0885 26.2422 15.0859C26.8073 14.0833 27.5 12.7435 28.3203 11.0664C28.7578 10.1914 29.1497 9.46224 29.4961 8.87891C29.8424 8.29557 30.1888 7.83073 30.5352 7.48438C30.8815 7.11979 31.2461 6.86458 31.6289 6.71875C32.0117 6.55469 32.4401 6.47266 32.9141 6.47266C33.4792 6.47266 34.0352 6.77344 34.582 7.375C35.1289 7.97656 35.6576 8.77865 36.168 9.78125C36.6966 10.7839 37.207 11.9505 37.6992 13.2812C38.1914 14.612 38.6654 16.0065 39.1211 17.4648C39.5951 18.9232 40.0508 20.4089 40.4883 21.9219C40.944 23.4167 41.3815 24.8385 41.8008 26.1875C41.9102 26.5885 41.9831 26.8711 42.0195 27.0352C42.0742 27.181 42.1016 27.3633 42.1016 27.582C42.1016 27.8919 42.0013 28.2018 41.8008 28.5117C41.6185 28.8034 41.3724 29.0677 41.0625 29.3047C40.7526 29.5417 40.3971 29.7331 39.9961 29.8789C39.6133 30.0247 39.2305 30.0977 38.8477 30.0977C38.3372 30.0977 37.9362 30.043 37.6445 29.9336C37.3711 29.806 37.1523 29.5872 36.9883 29.2773C36.8971 29.1133 36.7422 28.6758 36.5234 27.9648C36.3047 27.2539 36.0404 26.4154 35.7305 25.4492C35.4388 24.4648 35.1107 23.4258 34.7461 22.332C34.3997 21.2383 34.0443 20.2357 33.6797 19.3242C33.3333 18.3945 32.9961 17.6289 32.668 17.0273C32.3398 16.4076 32.0482 16.0977 31.793 16.0977Z" fill="#936766"/>
<path d="M46.2578 24.2734C46.2031 24.2734 46.112 24.2826 45.9844 24.3008C45.875 24.319 45.7474 24.3372 45.6016 24.3555C45.474 24.3737 45.3464 24.3919 45.2188 24.4102C45.0911 24.4284 44.9909 24.4375 44.918 24.4375C44.4076 24.4375 43.9609 24.2279 43.5781 23.8086C43.1953 23.3711 43.0039 22.7969 43.0039 22.0859C43.0039 21.612 43.1589 21.1562 43.4688 20.7188C43.7786 20.2812 44.2617 19.9167 44.918 19.625C45.1185 19.5339 45.2734 19.4336 45.3828 19.3242C45.5104 19.1966 45.5742 19.0234 45.5742 18.8047C45.5742 18.2214 45.556 17.6016 45.5195 16.9453C45.5013 16.2708 45.4648 15.487 45.4102 14.5938C45.3919 14.4115 45.3281 14.2383 45.2188 14.0742C45.1276 13.9102 45.0182 13.7279 44.8906 13.5273C44.7812 13.3086 44.681 13.0716 44.5898 12.8164C44.4987 12.5612 44.4531 12.2422 44.4531 11.8594C44.4531 11.513 44.4987 11.1211 44.5898 10.6836C44.6992 10.2279 44.9089 9.80859 45.2188 9.42578C45.5469 9.02474 45.9935 8.69661 46.5586 8.44141C47.1419 8.16797 47.8984 8.03125 48.8281 8.03125C49.2109 8.03125 49.5299 8.06771 49.7852 8.14062C50.0404 8.21354 50.2591 8.30469 50.4414 8.41406C50.6419 8.50521 50.8151 8.58724 50.9609 8.66016C51.125 8.73307 51.2891 8.76953 51.4531 8.76953C51.7448 8.76953 52.3281 8.71484 53.2031 8.60547C54.0781 8.49609 55.1263 8.34115 56.3477 8.14062C57.5872 7.9401 58.9453 7.71224 60.4219 7.45703C61.9167 7.20182 63.4297 6.92839 64.9609 6.63672C66.4922 6.32682 67.987 6.01693 69.4453 5.70703C70.9036 5.39714 72.2253 5.09635 73.4102 4.80469C73.7747 4.71354 74.0938 4.66797 74.3672 4.66797C74.75 4.66797 75.0508 4.75911 75.2695 4.94141C75.5065 5.10547 75.6797 5.3151 75.7891 5.57031C75.8984 5.82552 75.9622 6.11719 75.9805 6.44531C76.0169 6.75521 76.0352 7.04688 76.0352 7.32031C76.0352 7.79427 75.8711 8.24089 75.543 8.66016C75.2331 9.0612 74.7135 9.38021 73.9844 9.61719C72.1797 10.1458 70.3568 10.6107 68.5156 11.0117C66.6927 11.3945 64.8516 11.75 62.9922 12.0781C61.1328 12.388 59.2643 12.6706 57.3867 12.9258C55.5091 13.181 53.6406 13.4362 51.7812 13.6914C51.526 13.7279 51.3346 13.8281 51.207 13.9922C51.0794 14.138 51.0156 14.3385 51.0156 14.5938V15.7148C51.0156 16.0247 51.0247 16.3438 51.043 16.6719C51.0612 17 51.0977 17.3008 51.1523 17.5742C51.2253 17.8477 51.3164 18.0755 51.4258 18.2578C51.5352 18.4219 51.681 18.5039 51.8633 18.5039C52.3008 18.5039 52.9753 18.4128 53.8867 18.2305C54.8164 18.0482 55.8555 17.8294 57.0039 17.5742C58.1706 17.3008 59.3828 17.0091 60.6406 16.6992C61.9167 16.3711 63.1198 16.0794 64.25 15.8242C65.3802 15.5508 66.3737 15.3229 67.2305 15.1406C68.0872 14.9583 68.6888 14.8672 69.0352 14.8672C69.5456 14.8672 69.9284 15.0586 70.1836 15.4414C70.457 15.806 70.6393 16.2708 70.7305 16.8359C70.7305 16.9271 70.7396 17.0091 70.7578 17.082C70.776 17.1549 70.7852 17.237 70.7852 17.3281C70.7852 17.8568 70.6211 18.349 70.293 18.8047C69.9831 19.2422 69.418 19.5703 68.5977 19.7891C68.3789 19.862 67.9414 19.9805 67.2852 20.1445C66.6289 20.2904 65.8542 20.4727 64.9609 20.6914C64.0677 20.8919 63.1016 21.1107 62.0625 21.3477C61.0234 21.5846 60.0026 21.8216 59 22.0586C57.9974 22.2773 57.0586 22.4961 56.1836 22.7148C55.3268 22.9154 54.625 23.0794 54.0781 23.207C53.5859 23.3346 53.2852 23.4349 53.1758 23.5078C53.0846 23.5807 53.0391 23.6719 53.0391 23.7812C53.0755 24.1823 53.276 24.556 53.6406 24.9023C54.0234 25.2487 54.4974 25.5677 55.0625 25.8594C55.6458 26.151 56.293 26.4154 57.0039 26.6523C57.7331 26.8893 58.4805 27.0898 59.2461 27.2539C60.0299 27.3997 60.7956 27.5182 61.543 27.6094C62.2904 27.7005 62.9831 27.7461 63.6211 27.7461C63.8945 27.7461 64.2865 27.7461 64.7969 27.7461C65.3073 27.7461 65.8633 27.737 66.4648 27.7188C67.0846 27.6823 67.7135 27.6367 68.3516 27.582C69.0078 27.5273 69.5911 27.4544 70.1016 27.3633C70.6302 27.2539 71.0586 27.1263 71.3867 26.9805C71.7331 26.8164 71.9062 26.625 71.9062 26.4062C71.9062 26.2057 71.8333 25.9961 71.6875 25.7773C71.5599 25.5586 71.4961 25.3216 71.4961 25.0664C71.4961 24.7018 71.5964 24.3464 71.7969 24C71.9974 23.6354 72.2526 23.3164 72.5625 23.043C72.8906 22.7513 73.2552 22.5234 73.6562 22.3594C74.0755 22.1771 74.4948 22.0859 74.9141 22.0859C75.4427 22.0859 75.9258 22.1953 76.3633 22.4141C76.8008 22.6146 77.1745 22.888 77.4844 23.2344C77.8125 23.5625 78.0586 23.9453 78.2227 24.3828C78.4049 24.8203 78.4961 25.2669 78.4961 25.7227C78.4961 26.9258 78.0495 27.9648 77.1562 28.8398C76.2812 29.7148 75.1328 30.4349 73.7109 31C72.2891 31.5833 70.6849 32.0117 68.8984 32.2852C67.112 32.5768 65.3164 32.7227 63.5117 32.7227C61.3971 32.7227 59.4648 32.5768 57.7148 32.2852C55.9648 32.0117 54.3971 31.5651 53.0117 30.9453C51.6263 30.3255 50.4323 29.5234 49.4297 28.5391C48.4271 27.5365 47.6068 26.3242 46.9688 24.9023C46.75 24.4831 46.513 24.2734 46.2578 24.2734Z" fill="#936766"/>
<path d="M105.566 16.0977C105.348 16.0977 105.156 16.2708 104.992 16.6172C104.299 17.9661 103.561 19.1875 102.777 20.2812C102.012 21.375 101.237 22.3047 100.453 23.0703C99.6693 23.8359 98.8945 24.4284 98.1289 24.8477C97.3633 25.2487 96.6432 25.4492 95.9688 25.4492C95.3125 25.4492 94.7018 25.3125 94.1367 25.0391C93.5898 24.7474 92.9883 24.2096 92.332 23.4258C91.694 22.6419 90.9557 21.5573 90.1172 20.1719C89.2969 18.7865 88.2852 16.9818 87.082 14.7578C86.8815 14.3932 86.6719 14.1289 86.4531 13.9648C86.2526 13.7826 86.0703 13.6914 85.9062 13.6914C85.6693 13.6914 85.4505 13.9466 85.25 14.457C85.0495 14.9492 84.8763 15.651 84.7305 16.5625C84.5846 17.4557 84.4661 18.5404 84.375 19.8164C84.3021 21.0742 84.2656 22.4688 84.2656 24C84.2656 24.9115 84.3112 25.8229 84.4023 26.7344C84.5117 27.6458 84.5664 28.5846 84.5664 29.5508C84.5664 29.8789 84.4753 30.1888 84.293 30.4805C84.1107 30.7539 83.8646 30.9909 83.5547 31.1914C83.263 31.4102 82.9076 31.5833 82.4883 31.7109C82.0872 31.8385 81.6589 31.9023 81.2031 31.9023C80.2917 31.9023 79.6354 31.3555 79.2344 30.2617C78.8333 29.168 78.6328 27.418 78.6328 25.0117C78.6328 21.9674 78.7969 19.2057 79.125 16.7266C79.4714 14.2292 79.9544 12.0964 80.5742 10.3281C81.2122 8.54167 81.9596 7.16536 82.8164 6.19922C83.6914 5.21484 84.6667 4.72266 85.7422 4.72266C86.6901 4.72266 87.5924 5.26953 88.4492 6.36328C89.3242 7.4388 90.263 9.1888 91.2656 11.6133C91.6667 12.5977 92.0951 13.5182 92.5508 14.375C93.0247 15.2318 93.4896 15.9792 93.9453 16.6172C94.4193 17.237 94.875 17.7292 95.3125 18.0938C95.75 18.4401 96.1419 18.6133 96.4883 18.6133C96.8346 18.6133 97.1628 18.5404 97.4727 18.3945C97.8008 18.2305 98.1654 17.8932 98.5664 17.3828C98.9857 16.8542 99.4688 16.0885 100.016 15.0859C100.581 14.0833 101.273 12.7435 102.094 11.0664C102.531 10.1914 102.923 9.46224 103.27 8.87891C103.616 8.29557 103.962 7.83073 104.309 7.48438C104.655 7.11979 105.02 6.86458 105.402 6.71875C105.785 6.55469 106.214 6.47266 106.688 6.47266C107.253 6.47266 107.809 6.77344 108.355 7.375C108.902 7.97656 109.431 8.77865 109.941 9.78125C110.47 10.7839 110.98 11.9505 111.473 13.2812C111.965 14.612 112.439 16.0065 112.895 17.4648C113.368 18.9232 113.824 20.4089 114.262 21.9219C114.717 23.4167 115.155 24.8385 115.574 26.1875C115.684 26.5885 115.757 26.8711 115.793 27.0352C115.848 27.181 115.875 27.3633 115.875 27.582C115.875 27.8919 115.775 28.2018 115.574 28.5117C115.392 28.8034 115.146 29.0677 114.836 29.3047C114.526 29.5417 114.171 29.7331 113.77 29.8789C113.387 30.0247 113.004 30.0977 112.621 30.0977C112.111 30.0977 111.71 30.043 111.418 29.9336C111.145 29.806 110.926 29.5872 110.762 29.2773C110.671 29.1133 110.516 28.6758 110.297 27.9648C110.078 27.2539 109.814 26.4154 109.504 25.4492C109.212 24.4648 108.884 23.4258 108.52 22.332C108.173 21.2383 107.818 20.2357 107.453 19.3242C107.107 18.3945 106.77 17.6289 106.441 17.0273C106.113 16.4076 105.822 16.0977 105.566 16.0977Z" fill="#936766"/>
<path d="M130.832 34.418C128.845 34.418 127.013 34.0807 125.336 33.4062C123.677 32.7318 122.246 31.793 121.043 30.5898C119.84 29.3685 118.901 27.9193 118.227 26.2422C117.552 24.5651 117.215 22.7148 117.215 20.6914C117.215 19.5977 117.306 18.5495 117.488 17.5469C117.689 16.526 117.953 15.5781 118.281 14.7031C118.427 14.3568 118.5 14.1107 118.5 13.9648C118.5 13.7826 118.454 13.6094 118.363 13.4453C118.272 13.2812 118.172 13.1081 118.062 12.9258C117.953 12.7435 117.853 12.5521 117.762 12.3516C117.671 12.151 117.625 11.9232 117.625 11.668C117.625 10.9023 118.062 10.1549 118.938 9.42578C119.812 8.67839 120.97 8.02214 122.41 7.45703C123.85 6.8737 125.482 6.40885 127.305 6.0625C129.128 5.69792 130.996 5.51562 132.91 5.51562C135.262 5.51562 137.376 5.81641 139.254 6.41797C141.15 7.01953 142.754 7.88542 144.066 9.01562C145.397 10.1276 146.418 11.4857 147.129 13.0898C147.84 14.694 148.195 16.4987 148.195 18.5039C148.195 20.7461 147.749 22.8424 146.855 24.793C145.962 26.7253 144.732 28.4023 143.164 29.8242C141.615 31.2461 139.783 32.3672 137.668 33.1875C135.553 34.0078 133.275 34.418 130.832 34.418ZM142.699 19.5703C142.699 18.1484 142.453 16.8724 141.961 15.7422C141.469 14.612 140.758 13.6641 139.828 12.8984C138.898 12.1146 137.75 11.5221 136.383 11.1211C135.034 10.7018 133.503 10.4922 131.789 10.4922C128.781 10.4922 126.512 11.2578 124.98 12.7891C123.467 14.3021 122.711 16.5625 122.711 19.5703C122.711 21.0286 122.939 22.3685 123.395 23.5898C123.85 24.793 124.488 25.832 125.309 26.707C126.129 27.5638 127.104 28.2383 128.234 28.7305C129.383 29.2044 130.641 29.4414 132.008 29.4414C133.576 29.4414 135.016 29.2044 136.328 28.7305C137.641 28.2383 138.762 27.5547 139.691 26.6797C140.639 25.8047 141.378 24.7656 141.906 23.5625C142.435 22.3411 142.699 21.0104 142.699 19.5703Z" fill="#936766"/>
<path d="M176.305 2.72656C176.688 2.48958 177.079 2.32552 177.48 2.23438C177.882 2.14323 178.255 2.09766 178.602 2.09766C179.057 2.09766 179.467 2.17969 179.832 2.34375C180.197 2.48958 180.507 2.68099 180.762 2.91797C181.017 3.15495 181.208 3.42839 181.336 3.73828C181.482 4.02995 181.555 4.32161 181.555 4.61328C181.555 5.01432 181.418 5.39714 181.145 5.76172C180.889 6.1263 180.525 6.4362 180.051 6.69141C179.103 7.23828 178.31 7.70312 177.672 8.08594C177.034 8.46875 176.487 8.8151 176.031 9.125C175.594 9.4349 175.211 9.72656 174.883 10C174.555 10.2734 174.227 10.5742 173.898 10.9023C173.424 11.3398 172.969 11.8411 172.531 12.4062C172.094 12.9714 171.702 13.5365 171.355 14.1016C171.027 14.6484 170.754 15.1771 170.535 15.6875C170.335 16.1979 170.234 16.6172 170.234 16.9453C170.234 17.2188 170.307 17.4375 170.453 17.6016C170.599 17.7656 170.809 17.8477 171.082 17.8477C171.374 17.8477 171.693 17.7474 172.039 17.5469C173.151 16.9271 174.318 16.3711 175.539 15.8789C176.779 15.3867 178.027 14.9674 179.285 14.6211C180.543 14.2747 181.801 14.0195 183.059 13.8555C184.316 13.6732 185.538 13.582 186.723 13.582C188.6 13.582 190.323 13.7917 191.891 14.2109C193.458 14.612 194.807 15.1771 195.938 15.9062C197.068 16.6354 197.943 17.5195 198.562 18.5586C199.182 19.5794 199.492 20.7005 199.492 21.9219C199.492 23.2891 199.1 24.6016 198.316 25.8594C197.533 27.1172 196.457 28.2201 195.09 29.168C193.723 30.1159 192.109 30.8724 190.25 31.4375C188.391 32.0026 186.385 32.2852 184.234 32.2852C181.372 32.2852 178.747 31.9844 176.359 31.3828C173.99 30.7995 171.948 29.9792 170.234 28.9219C168.539 27.8646 167.217 26.6068 166.27 25.1484C165.34 23.6719 164.875 22.0586 164.875 20.3086C164.875 18.5768 165.112 16.8815 165.586 15.2227C166.078 13.5456 166.798 11.9596 167.746 10.4648C168.712 8.95182 169.906 7.54818 171.328 6.25391C172.75 4.94141 174.409 3.76562 176.305 2.72656ZM193.996 22.8789C193.996 22.2591 193.796 21.694 193.395 21.1836C193.012 20.6732 192.465 20.2357 191.754 19.8711C191.061 19.5065 190.214 19.224 189.211 19.0234C188.227 18.8229 187.133 18.7227 185.93 18.7227C183.651 18.7227 181.418 19.0417 179.23 19.6797C177.061 20.2995 175.02 21.2018 173.105 22.3867C172.65 22.6784 172.422 23.0339 172.422 23.4531C172.422 23.7448 172.586 24.0456 172.914 24.3555C173.242 24.6471 173.689 24.9297 174.254 25.2031C174.819 25.4766 175.484 25.7409 176.25 25.9961C177.016 26.2513 177.827 26.4701 178.684 26.6523C179.54 26.8346 180.424 26.9805 181.336 27.0898C182.247 27.1992 183.141 27.2539 184.016 27.2539C185.419 27.2539 186.723 27.1445 187.926 26.9258C189.147 26.6888 190.204 26.3789 191.098 25.9961C192.009 25.5951 192.72 25.1302 193.23 24.6016C193.741 24.0729 193.996 23.4987 193.996 22.8789Z" fill="#936766"/>
<path d="M199.738 25.5586C199.428 25.5586 199.191 25.4036 199.027 25.0938C198.882 24.7839 198.809 24.3464 198.809 23.7812C198.809 23.6901 198.809 23.5898 198.809 23.4805C198.809 23.3529 198.827 23.1159 198.863 22.7695C198.918 21.457 199.565 20.6914 200.805 20.4727L201.434 20.418C201.853 20.3633 202.181 20.2357 202.418 20.0352C202.655 19.8164 202.828 19.5156 202.938 19.1328C203.247 18.0938 203.557 17.0456 203.867 15.9883C204.177 14.931 204.505 13.8828 204.852 12.8438C205.034 12.2604 205.216 11.6406 205.398 10.9844C205.599 10.3099 205.809 9.64453 206.027 8.98828C206.264 8.33203 206.529 7.6849 206.82 7.04688C207.13 6.40885 207.477 5.82552 207.859 5.29688C208.023 5.07812 208.251 4.85026 208.543 4.61328C208.835 4.3763 209.163 4.16667 209.527 3.98438C209.91 3.78385 210.311 3.62891 210.73 3.51953C211.168 3.39193 211.596 3.32812 212.016 3.32812C212.562 3.32812 213.1 3.5013 213.629 3.84766C214.34 4.33984 215.042 4.93229 215.734 5.625C216.427 6.31771 217.202 7.20182 218.059 8.27734C218.915 9.35286 219.909 10.6562 221.039 12.1875C222.169 13.7005 223.527 15.5326 225.113 17.6836C225.35 17.957 225.596 18.1667 225.852 18.3125C226.125 18.4401 226.444 18.5039 226.809 18.5039H228.367C229.005 18.5039 229.497 18.6589 229.844 18.9688C230.208 19.2604 230.391 19.6706 230.391 20.1992C230.391 20.3086 230.382 20.4362 230.363 20.582C230.363 20.7279 230.336 20.8737 230.281 21.0195L229.762 22.5508C229.725 22.6966 229.698 22.8242 229.68 22.9336C229.661 23.043 229.652 23.1523 229.652 23.2617C229.652 23.6445 229.78 24.0365 230.035 24.4375L232.961 28.4297C233.289 28.9219 233.453 29.3867 233.453 29.8242C233.453 30.4805 233.079 31.0547 232.332 31.5469L231.293 32.2852C231.038 32.4492 230.792 32.5768 230.555 32.668C230.336 32.7591 230.108 32.8047 229.871 32.8047C229.543 32.8047 229.233 32.7044 228.941 32.5039C228.668 32.3216 228.404 32.0664 228.148 31.7383C227.273 30.4987 226.389 29.2773 225.496 28.0742C224.621 26.8711 223.728 25.6771 222.816 24.4922C222.397 23.9089 221.841 23.6172 221.148 23.6172C218.924 23.7083 216.719 23.8359 214.531 24C212.362 24.1458 210.184 24.3281 207.996 24.5469C207.212 24.6198 206.72 25.0391 206.52 25.8047L205.289 30.3164C204.961 31.5195 204.232 32.1211 203.102 32.1211H202.664L201.816 32.0117C201.197 31.957 200.723 31.7656 200.395 31.4375C200.085 31.1094 199.93 30.681 199.93 30.1523C199.93 30.043 199.939 29.9245 199.957 29.7969C199.975 29.6693 200.003 29.5326 200.039 29.3867C200.13 29.0221 200.221 28.6484 200.312 28.2656C200.422 27.8828 200.531 27.5091 200.641 27.1445C200.677 26.9987 200.704 26.8711 200.723 26.7617C200.741 26.6341 200.75 26.5156 200.75 26.4062C200.75 25.8411 200.531 25.5586 200.094 25.5586H199.738ZM212.754 11.1211C212.572 10.957 212.408 10.8203 212.262 10.7109C212.116 10.6016 211.961 10.5469 211.797 10.5469C211.341 10.5469 211.022 10.8659 210.84 11.5039C210.475 12.5794 210.12 13.6458 209.773 14.7031C209.445 15.7422 209.108 16.8086 208.762 17.9023C208.725 17.9935 208.707 18.0755 208.707 18.1484C208.707 18.2214 208.707 18.3034 208.707 18.3945C208.707 19.069 209.062 19.4062 209.773 19.4062H210.047C211.141 19.2604 212.234 19.151 213.328 19.0781C214.422 18.987 215.516 18.9141 216.609 18.8594C216.974 18.8229 217.257 18.7318 217.457 18.5859C217.676 18.4219 217.785 18.2122 217.785 17.957C217.785 17.7201 217.676 17.4375 217.457 17.1094C216.691 16.0885 215.917 15.0859 215.133 14.1016C214.367 13.099 213.574 12.1055 212.754 11.1211Z" fill="#936766"/>
<path d="M259.84 16.0977C259.621 16.0977 259.43 16.2708 259.266 16.6172C258.573 17.9661 257.835 19.1875 257.051 20.2812C256.285 21.375 255.51 22.3047 254.727 23.0703C253.943 23.8359 253.168 24.4284 252.402 24.8477C251.637 25.2487 250.917 25.4492 250.242 25.4492C249.586 25.4492 248.975 25.3125 248.41 25.0391C247.863 24.7474 247.262 24.2096 246.605 23.4258C245.967 22.6419 245.229 21.5573 244.391 20.1719C243.57 18.7865 242.559 16.9818 241.355 14.7578C241.155 14.3932 240.945 14.1289 240.727 13.9648C240.526 13.7826 240.344 13.6914 240.18 13.6914C239.943 13.6914 239.724 13.9466 239.523 14.457C239.323 14.9492 239.15 15.651 239.004 16.5625C238.858 17.4557 238.74 18.5404 238.648 19.8164C238.576 21.0742 238.539 22.4688 238.539 24C238.539 24.9115 238.585 25.8229 238.676 26.7344C238.785 27.6458 238.84 28.5846 238.84 29.5508C238.84 29.8789 238.749 30.1888 238.566 30.4805C238.384 30.7539 238.138 30.9909 237.828 31.1914C237.536 31.4102 237.181 31.5833 236.762 31.7109C236.361 31.8385 235.932 31.9023 235.477 31.9023C234.565 31.9023 233.909 31.3555 233.508 30.2617C233.107 29.168 232.906 27.418 232.906 25.0117C232.906 21.9674 233.07 19.2057 233.398 16.7266C233.745 14.2292 234.228 12.0964 234.848 10.3281C235.486 8.54167 236.233 7.16536 237.09 6.19922C237.965 5.21484 238.94 4.72266 240.016 4.72266C240.964 4.72266 241.866 5.26953 242.723 6.36328C243.598 7.4388 244.536 9.1888 245.539 11.6133C245.94 12.5977 246.368 13.5182 246.824 14.375C247.298 15.2318 247.763 15.9792 248.219 16.6172C248.693 17.237 249.148 17.7292 249.586 18.0938C250.023 18.4401 250.415 18.6133 250.762 18.6133C251.108 18.6133 251.436 18.5404 251.746 18.3945C252.074 18.2305 252.439 17.8932 252.84 17.3828C253.259 16.8542 253.742 16.0885 254.289 15.0859C254.854 14.0833 255.547 12.7435 256.367 11.0664C256.805 10.1914 257.197 9.46224 257.543 8.87891C257.889 8.29557 258.236 7.83073 258.582 7.48438C258.928 7.11979 259.293 6.86458 259.676 6.71875C260.059 6.55469 260.487 6.47266 260.961 6.47266C261.526 6.47266 262.082 6.77344 262.629 7.375C263.176 7.97656 263.704 8.77865 264.215 9.78125C264.743 10.7839 265.254 11.9505 265.746 13.2812C266.238 14.612 266.712 16.0065 267.168 17.4648C267.642 18.9232 268.098 20.4089 268.535 21.9219C268.991 23.4167 269.428 24.8385 269.848 26.1875C269.957 26.5885 270.03 26.8711 270.066 27.0352C270.121 27.181 270.148 27.3633 270.148 27.582C270.148 27.8919 270.048 28.2018 269.848 28.5117C269.665 28.8034 269.419 29.0677 269.109 29.3047C268.799 29.5417 268.444 29.7331 268.043 29.8789C267.66 30.0247 267.277 30.0977 266.895 30.0977C266.384 30.0977 265.983 30.043 265.691 29.9336C265.418 29.806 265.199 29.5872 265.035 29.2773C264.944 29.1133 264.789 28.6758 264.57 27.9648C264.352 27.2539 264.087 26.4154 263.777 25.4492C263.486 24.4648 263.158 23.4258 262.793 22.332C262.447 21.2383 262.091 20.2357 261.727 19.3242C261.38 18.3945 261.043 17.6289 260.715 17.0273C260.387 16.4076 260.095 16.0977 259.84 16.0977Z" fill="#936766"/>
<path d="M274.305 24.2734C274.25 24.2734 274.159 24.2826 274.031 24.3008C273.922 24.319 273.794 24.3372 273.648 24.3555C273.521 24.3737 273.393 24.3919 273.266 24.4102C273.138 24.4284 273.038 24.4375 272.965 24.4375C272.454 24.4375 272.008 24.2279 271.625 23.8086C271.242 23.3711 271.051 22.7969 271.051 22.0859C271.051 21.612 271.206 21.1562 271.516 20.7188C271.826 20.2812 272.309 19.9167 272.965 19.625C273.165 19.5339 273.32 19.4336 273.43 19.3242C273.557 19.1966 273.621 19.0234 273.621 18.8047C273.621 18.2214 273.603 17.6016 273.566 16.9453C273.548 16.2708 273.512 15.487 273.457 14.5938C273.439 14.4115 273.375 14.2383 273.266 14.0742C273.174 13.9102 273.065 13.7279 272.938 13.5273C272.828 13.3086 272.728 13.0716 272.637 12.8164C272.546 12.5612 272.5 12.2422 272.5 11.8594C272.5 11.513 272.546 11.1211 272.637 10.6836C272.746 10.2279 272.956 9.80859 273.266 9.42578C273.594 9.02474 274.04 8.69661 274.605 8.44141C275.189 8.16797 275.945 8.03125 276.875 8.03125C277.258 8.03125 277.577 8.06771 277.832 8.14062C278.087 8.21354 278.306 8.30469 278.488 8.41406C278.689 8.50521 278.862 8.58724 279.008 8.66016C279.172 8.73307 279.336 8.76953 279.5 8.76953C279.792 8.76953 280.375 8.71484 281.25 8.60547C282.125 8.49609 283.173 8.34115 284.395 8.14062C285.634 7.9401 286.992 7.71224 288.469 7.45703C289.964 7.20182 291.477 6.92839 293.008 6.63672C294.539 6.32682 296.034 6.01693 297.492 5.70703C298.951 5.39714 300.272 5.09635 301.457 4.80469C301.822 4.71354 302.141 4.66797 302.414 4.66797C302.797 4.66797 303.098 4.75911 303.316 4.94141C303.553 5.10547 303.727 5.3151 303.836 5.57031C303.945 5.82552 304.009 6.11719 304.027 6.44531C304.064 6.75521 304.082 7.04688 304.082 7.32031C304.082 7.79427 303.918 8.24089 303.59 8.66016C303.28 9.0612 302.76 9.38021 302.031 9.61719C300.227 10.1458 298.404 10.6107 296.562 11.0117C294.74 11.3945 292.898 11.75 291.039 12.0781C289.18 12.388 287.311 12.6706 285.434 12.9258C283.556 13.181 281.688 13.4362 279.828 13.6914C279.573 13.7279 279.382 13.8281 279.254 13.9922C279.126 14.138 279.062 14.3385 279.062 14.5938V15.7148C279.062 16.0247 279.072 16.3438 279.09 16.6719C279.108 17 279.145 17.3008 279.199 17.5742C279.272 17.8477 279.363 18.0755 279.473 18.2578C279.582 18.4219 279.728 18.5039 279.91 18.5039C280.348 18.5039 281.022 18.4128 281.934 18.2305C282.863 18.0482 283.902 17.8294 285.051 17.5742C286.217 17.3008 287.43 17.0091 288.688 16.6992C289.964 16.3711 291.167 16.0794 292.297 15.8242C293.427 15.5508 294.421 15.3229 295.277 15.1406C296.134 14.9583 296.736 14.8672 297.082 14.8672C297.592 14.8672 297.975 15.0586 298.23 15.4414C298.504 15.806 298.686 16.2708 298.777 16.8359C298.777 16.9271 298.786 17.0091 298.805 17.082C298.823 17.1549 298.832 17.237 298.832 17.3281C298.832 17.8568 298.668 18.349 298.34 18.8047C298.03 19.2422 297.465 19.5703 296.645 19.7891C296.426 19.862 295.988 19.9805 295.332 20.1445C294.676 20.2904 293.901 20.4727 293.008 20.6914C292.115 20.8919 291.148 21.1107 290.109 21.3477C289.07 21.5846 288.049 21.8216 287.047 22.0586C286.044 22.2773 285.105 22.4961 284.23 22.7148C283.374 22.9154 282.672 23.0794 282.125 23.207C281.633 23.3346 281.332 23.4349 281.223 23.5078C281.132 23.5807 281.086 23.6719 281.086 23.7812C281.122 24.1823 281.323 24.556 281.688 24.9023C282.07 25.2487 282.544 25.5677 283.109 25.8594C283.693 26.151 284.34 26.4154 285.051 26.6523C285.78 26.8893 286.527 27.0898 287.293 27.2539C288.077 27.3997 288.842 27.5182 289.59 27.6094C290.337 27.7005 291.03 27.7461 291.668 27.7461C291.941 27.7461 292.333 27.7461 292.844 27.7461C293.354 27.7461 293.91 27.737 294.512 27.7188C295.132 27.6823 295.76 27.6367 296.398 27.582C297.055 27.5273 297.638 27.4544 298.148 27.3633C298.677 27.2539 299.105 27.1263 299.434 26.9805C299.78 26.8164 299.953 26.625 299.953 26.4062C299.953 26.2057 299.88 25.9961 299.734 25.7773C299.607 25.5586 299.543 25.3216 299.543 25.0664C299.543 24.7018 299.643 24.3464 299.844 24C300.044 23.6354 300.299 23.3164 300.609 23.043C300.938 22.7513 301.302 22.5234 301.703 22.3594C302.122 22.1771 302.542 22.0859 302.961 22.0859C303.49 22.0859 303.973 22.1953 304.41 22.4141C304.848 22.6146 305.221 22.888 305.531 23.2344C305.859 23.5625 306.105 23.9453 306.27 24.3828C306.452 24.8203 306.543 25.2669 306.543 25.7227C306.543 26.9258 306.096 27.9648 305.203 28.8398C304.328 29.7148 303.18 30.4349 301.758 31C300.336 31.5833 298.732 32.0117 296.945 32.2852C295.159 32.5768 293.363 32.7227 291.559 32.7227C289.444 32.7227 287.512 32.5768 285.762 32.2852C284.012 32.0117 282.444 31.5651 281.059 30.9453C279.673 30.3255 278.479 29.5234 277.477 28.5391C276.474 27.5365 275.654 26.3242 275.016 24.9023C274.797 24.4831 274.56 24.2734 274.305 24.2734Z" fill="#936766"/>
<path d="M31.793 16.0977C31.5742 16.0977 31.3828 16.2708 31.2188 16.6172C30.526 17.9661 29.7878 19.1875 29.0039 20.2812C28.2383 21.375 27.4635 22.3047 26.6797 23.0703C25.8958 23.8359 25.1211 24.4284 24.3555 24.8477C23.5898 25.2487 22.8698 25.4492 22.1953 25.4492C21.5391 25.4492 20.9284 25.3125 20.3633 25.0391C19.8164 24.7474 19.2148 24.2096 18.5586 23.4258C17.9206 22.6419 17.1823 21.5573 16.3438 20.1719C15.5234 18.7865 14.5117 16.9818 13.3086 14.7578C13.1081 14.3932 12.8984 14.1289 12.6797 13.9648C12.4792 13.7826 12.2969 13.6914 12.1328 13.6914C11.8958 13.6914 11.6771 13.9466 11.4766 14.457C11.276 14.9492 11.1029 15.651 10.957 16.5625C10.8112 17.4557 10.6927 18.5404 10.6016 19.8164C10.5286 21.0742 10.4922 22.4688 10.4922 24C10.4922 24.9115 10.5378 25.8229 10.6289 26.7344C10.7383 27.6458 10.793 28.5846 10.793 29.5508C10.793 29.8789 10.7018 30.1888 10.5195 30.4805C10.3372 30.7539 10.0911 30.9909 9.78125 31.1914C9.48958 31.4102 9.13411 31.5833 8.71484 31.7109C8.3138 31.8385 7.88542 31.9023 7.42969 31.9023C6.51823 31.9023 5.86198 31.3555 5.46094 30.2617C5.0599 29.168 4.85938 27.418 4.85938 25.0117C4.85938 21.9674 5.02344 19.2057 5.35156 16.7266C5.69792 14.2292 6.18099 12.0964 6.80078 10.3281C7.4388 8.54167 8.1862 7.16536 9.04297 6.19922C9.91797 5.21484 10.8932 4.72266 11.9688 4.72266C12.9167 4.72266 13.819 5.26953 14.6758 6.36328C15.5508 7.4388 16.4896 9.1888 17.4922 11.6133C17.8932 12.5977 18.3216 13.5182 18.7773 14.375C19.2513 15.2318 19.7161 15.9792 20.1719 16.6172C20.6458 17.237 21.1016 17.7292 21.5391 18.0938C21.9766 18.4401 22.3685 18.6133 22.7148 18.6133C23.0612 18.6133 23.3893 18.5404 23.6992 18.3945C24.0273 18.2305 24.3919 17.8932 24.793 17.3828C25.2122 16.8542 25.6953 16.0885 26.2422 15.0859C26.8073 14.0833 27.5 12.7435 28.3203 11.0664C28.7578 10.1914 29.1497 9.46224 29.4961 8.87891C29.8424 8.29557 30.1888 7.83073 30.5352 7.48438C30.8815 7.11979 31.2461 6.86458 31.6289 6.71875C32.0117 6.55469 32.4401 6.47266 32.9141 6.47266C33.4792 6.47266 34.0352 6.77344 34.582 7.375C35.1289 7.97656 35.6576 8.77865 36.168 9.78125C36.6966 10.7839 37.207 11.9505 37.6992 13.2812C38.1914 14.612 38.6654 16.0065 39.1211 17.4648C39.5951 18.9232 40.0508 20.4089 40.4883 21.9219C40.944 23.4167 41.3815 24.8385 41.8008 26.1875C41.9102 26.5885 41.9831 26.8711 42.0195 27.0352C42.0742 27.181 42.1016 27.3633 42.1016 27.582C42.1016 27.8919 42.0013 28.2018 41.8008 28.5117C41.6185 28.8034 41.3724 29.0677 41.0625 29.3047C40.7526 29.5417 40.3971 29.7331 39.9961 29.8789C39.6133 30.0247 39.2305 30.0977 38.8477 30.0977C38.3372 30.0977 37.9362 30.043 37.6445 29.9336C37.3711 29.806 37.1523 29.5872 36.9883 29.2773C36.8971 29.1133 36.7422 28.6758 36.5234 27.9648C36.3047 27.2539 36.0404 26.4154 35.7305 25.4492C35.4388 24.4648 35.1107 23.4258 34.7461 22.332C34.3997 21.2383 34.0443 20.2357 33.6797 19.3242C33.3333 18.3945 32.9961 17.6289 32.668 17.0273C32.3398 16.4076 32.0482 16.0977 31.793 16.0977Z" stroke="white" stroke-width="4" mask="url(#path-1-outside-1)"/>
<path d="M46.2578 24.2734C46.2031 24.2734 46.112 24.2826 45.9844 24.3008C45.875 24.319 45.7474 24.3372 45.6016 24.3555C45.474 24.3737 45.3464 24.3919 45.2188 24.4102C45.0911 24.4284 44.9909 24.4375 44.918 24.4375C44.4076 24.4375 43.9609 24.2279 43.5781 23.8086C43.1953 23.3711 43.0039 22.7969 43.0039 22.0859C43.0039 21.612 43.1589 21.1562 43.4688 20.7188C43.7786 20.2812 44.2617 19.9167 44.918 19.625C45.1185 19.5339 45.2734 19.4336 45.3828 19.3242C45.5104 19.1966 45.5742 19.0234 45.5742 18.8047C45.5742 18.2214 45.556 17.6016 45.5195 16.9453C45.5013 16.2708 45.4648 15.487 45.4102 14.5938C45.3919 14.4115 45.3281 14.2383 45.2188 14.0742C45.1276 13.9102 45.0182 13.7279 44.8906 13.5273C44.7812 13.3086 44.681 13.0716 44.5898 12.8164C44.4987 12.5612 44.4531 12.2422 44.4531 11.8594C44.4531 11.513 44.4987 11.1211 44.5898 10.6836C44.6992 10.2279 44.9089 9.80859 45.2188 9.42578C45.5469 9.02474 45.9935 8.69661 46.5586 8.44141C47.1419 8.16797 47.8984 8.03125 48.8281 8.03125C49.2109 8.03125 49.5299 8.06771 49.7852 8.14062C50.0404 8.21354 50.2591 8.30469 50.4414 8.41406C50.6419 8.50521 50.8151 8.58724 50.9609 8.66016C51.125 8.73307 51.2891 8.76953 51.4531 8.76953C51.7448 8.76953 52.3281 8.71484 53.2031 8.60547C54.0781 8.49609 55.1263 8.34115 56.3477 8.14062C57.5872 7.9401 58.9453 7.71224 60.4219 7.45703C61.9167 7.20182 63.4297 6.92839 64.9609 6.63672C66.4922 6.32682 67.987 6.01693 69.4453 5.70703C70.9036 5.39714 72.2253 5.09635 73.4102 4.80469C73.7747 4.71354 74.0938 4.66797 74.3672 4.66797C74.75 4.66797 75.0508 4.75911 75.2695 4.94141C75.5065 5.10547 75.6797 5.3151 75.7891 5.57031C75.8984 5.82552 75.9622 6.11719 75.9805 6.44531C76.0169 6.75521 76.0352 7.04688 76.0352 7.32031C76.0352 7.79427 75.8711 8.24089 75.543 8.66016C75.2331 9.0612 74.7135 9.38021 73.9844 9.61719C72.1797 10.1458 70.3568 10.6107 68.5156 11.0117C66.6927 11.3945 64.8516 11.75 62.9922 12.0781C61.1328 12.388 59.2643 12.6706 57.3867 12.9258C55.5091 13.181 53.6406 13.4362 51.7812 13.6914C51.526 13.7279 51.3346 13.8281 51.207 13.9922C51.0794 14.138 51.0156 14.3385 51.0156 14.5938V15.7148C51.0156 16.0247 51.0247 16.3438 51.043 16.6719C51.0612 17 51.0977 17.3008 51.1523 17.5742C51.2253 17.8477 51.3164 18.0755 51.4258 18.2578C51.5352 18.4219 51.681 18.5039 51.8633 18.5039C52.3008 18.5039 52.9753 18.4128 53.8867 18.2305C54.8164 18.0482 55.8555 17.8294 57.0039 17.5742C58.1706 17.3008 59.3828 17.0091 60.6406 16.6992C61.9167 16.3711 63.1198 16.0794 64.25 15.8242C65.3802 15.5508 66.3737 15.3229 67.2305 15.1406C68.0872 14.9583 68.6888 14.8672 69.0352 14.8672C69.5456 14.8672 69.9284 15.0586 70.1836 15.4414C70.457 15.806 70.6393 16.2708 70.7305 16.8359C70.7305 16.9271 70.7396 17.0091 70.7578 17.082C70.776 17.1549 70.7852 17.237 70.7852 17.3281C70.7852 17.8568 70.6211 18.349 70.293 18.8047C69.9831 19.2422 69.418 19.5703 68.5977 19.7891C68.3789 19.862 67.9414 19.9805 67.2852 20.1445C66.6289 20.2904 65.8542 20.4727 64.9609 20.6914C64.0677 20.8919 63.1016 21.1107 62.0625 21.3477C61.0234 21.5846 60.0026 21.8216 59 22.0586C57.9974 22.2773 57.0586 22.4961 56.1836 22.7148C55.3268 22.9154 54.625 23.0794 54.0781 23.207C53.5859 23.3346 53.2852 23.4349 53.1758 23.5078C53.0846 23.5807 53.0391 23.6719 53.0391 23.7812C53.0755 24.1823 53.276 24.556 53.6406 24.9023C54.0234 25.2487 54.4974 25.5677 55.0625 25.8594C55.6458 26.151 56.293 26.4154 57.0039 26.6523C57.7331 26.8893 58.4805 27.0898 59.2461 27.2539C60.0299 27.3997 60.7956 27.5182 61.543 27.6094C62.2904 27.7005 62.9831 27.7461 63.6211 27.7461C63.8945 27.7461 64.2865 27.7461 64.7969 27.7461C65.3073 27.7461 65.8633 27.737 66.4648 27.7188C67.0846 27.6823 67.7135 27.6367 68.3516 27.582C69.0078 27.5273 69.5911 27.4544 70.1016 27.3633C70.6302 27.2539 71.0586 27.1263 71.3867 26.9805C71.7331 26.8164 71.9062 26.625 71.9062 26.4062C71.9062 26.2057 71.8333 25.9961 71.6875 25.7773C71.5599 25.5586 71.4961 25.3216 71.4961 25.0664C71.4961 24.7018 71.5964 24.3464 71.7969 24C71.9974 23.6354 72.2526 23.3164 72.5625 23.043C72.8906 22.7513 73.2552 22.5234 73.6562 22.3594C74.0755 22.1771 74.4948 22.0859 74.9141 22.0859C75.4427 22.0859 75.9258 22.1953 76.3633 22.4141C76.8008 22.6146 77.1745 22.888 77.4844 23.2344C77.8125 23.5625 78.0586 23.9453 78.2227 24.3828C78.4049 24.8203 78.4961 25.2669 78.4961 25.7227C78.4961 26.9258 78.0495 27.9648 77.1562 28.8398C76.2812 29.7148 75.1328 30.4349 73.7109 31C72.2891 31.5833 70.6849 32.0117 68.8984 32.2852C67.112 32.5768 65.3164 32.7227 63.5117 32.7227C61.3971 32.7227 59.4648 32.5768 57.7148 32.2852C55.9648 32.0117 54.3971 31.5651 53.0117 30.9453C51.6263 30.3255 50.4323 29.5234 49.4297 28.5391C48.4271 27.5365 47.6068 26.3242 46.9688 24.9023C46.75 24.4831 46.513 24.2734 46.2578 24.2734Z" stroke="white" stroke-width="4" mask="url(#path-1-outside-1)"/>
<path d="M105.566 16.0977C105.348 16.0977 105.156 16.2708 104.992 16.6172C104.299 17.9661 103.561 19.1875 102.777 20.2812C102.012 21.375 101.237 22.3047 100.453 23.0703C99.6693 23.8359 98.8945 24.4284 98.1289 24.8477C97.3633 25.2487 96.6432 25.4492 95.9688 25.4492C95.3125 25.4492 94.7018 25.3125 94.1367 25.0391C93.5898 24.7474 92.9883 24.2096 92.332 23.4258C91.694 22.6419 90.9557 21.5573 90.1172 20.1719C89.2969 18.7865 88.2852 16.9818 87.082 14.7578C86.8815 14.3932 86.6719 14.1289 86.4531 13.9648C86.2526 13.7826 86.0703 13.6914 85.9062 13.6914C85.6693 13.6914 85.4505 13.9466 85.25 14.457C85.0495 14.9492 84.8763 15.651 84.7305 16.5625C84.5846 17.4557 84.4661 18.5404 84.375 19.8164C84.3021 21.0742 84.2656 22.4688 84.2656 24C84.2656 24.9115 84.3112 25.8229 84.4023 26.7344C84.5117 27.6458 84.5664 28.5846 84.5664 29.5508C84.5664 29.8789 84.4753 30.1888 84.293 30.4805C84.1107 30.7539 83.8646 30.9909 83.5547 31.1914C83.263 31.4102 82.9076 31.5833 82.4883 31.7109C82.0872 31.8385 81.6589 31.9023 81.2031 31.9023C80.2917 31.9023 79.6354 31.3555 79.2344 30.2617C78.8333 29.168 78.6328 27.418 78.6328 25.0117C78.6328 21.9674 78.7969 19.2057 79.125 16.7266C79.4714 14.2292 79.9544 12.0964 80.5742 10.3281C81.2122 8.54167 81.9596 7.16536 82.8164 6.19922C83.6914 5.21484 84.6667 4.72266 85.7422 4.72266C86.6901 4.72266 87.5924 5.26953 88.4492 6.36328C89.3242 7.4388 90.263 9.1888 91.2656 11.6133C91.6667 12.5977 92.0951 13.5182 92.5508 14.375C93.0247 15.2318 93.4896 15.9792 93.9453 16.6172C94.4193 17.237 94.875 17.7292 95.3125 18.0938C95.75 18.4401 96.1419 18.6133 96.4883 18.6133C96.8346 18.6133 97.1628 18.5404 97.4727 18.3945C97.8008 18.2305 98.1654 17.8932 98.5664 17.3828C98.9857 16.8542 99.4688 16.0885 100.016 15.0859C100.581 14.0833 101.273 12.7435 102.094 11.0664C102.531 10.1914 102.923 9.46224 103.27 8.87891C103.616 8.29557 103.962 7.83073 104.309 7.48438C104.655 7.11979 105.02 6.86458 105.402 6.71875C105.785 6.55469 106.214 6.47266 106.688 6.47266C107.253 6.47266 107.809 6.77344 108.355 7.375C108.902 7.97656 109.431 8.77865 109.941 9.78125C110.47 10.7839 110.98 11.9505 111.473 13.2812C111.965 14.612 112.439 16.0065 112.895 17.4648C113.368 18.9232 113.824 20.4089 114.262 21.9219C114.717 23.4167 115.155 24.8385 115.574 26.1875C115.684 26.5885 115.757 26.8711 115.793 27.0352C115.848 27.181 115.875 27.3633 115.875 27.582C115.875 27.8919 115.775 28.2018 115.574 28.5117C115.392 28.8034 115.146 29.0677 114.836 29.3047C114.526 29.5417 114.171 29.7331 113.77 29.8789C113.387 30.0247 113.004 30.0977 112.621 30.0977C112.111 30.0977 111.71 30.043 111.418 29.9336C111.145 29.806 110.926 29.5872 110.762 29.2773C110.671 29.1133 110.516 28.6758 110.297 27.9648C110.078 27.2539 109.814 26.4154 109.504 25.4492C109.212 24.4648 108.884 23.4258 108.52 22.332C108.173 21.2383 107.818 20.2357 107.453 19.3242C107.107 18.3945 106.77 17.6289 106.441 17.0273C106.113 16.4076 105.822 16.0977 105.566 16.0977Z" stroke="white" stroke-width="4" mask="url(#path-1-outside-1)"/>
<path d="M130.832 34.418C128.845 34.418 127.013 34.0807 125.336 33.4062C123.677 32.7318 122.246 31.793 121.043 30.5898C119.84 29.3685 118.901 27.9193 118.227 26.2422C117.552 24.5651 117.215 22.7148 117.215 20.6914C117.215 19.5977 117.306 18.5495 117.488 17.5469C117.689 16.526 117.953 15.5781 118.281 14.7031C118.427 14.3568 118.5 14.1107 118.5 13.9648C118.5 13.7826 118.454 13.6094 118.363 13.4453C118.272 13.2812 118.172 13.1081 118.062 12.9258C117.953 12.7435 117.853 12.5521 117.762 12.3516C117.671 12.151 117.625 11.9232 117.625 11.668C117.625 10.9023 118.062 10.1549 118.938 9.42578C119.812 8.67839 120.97 8.02214 122.41 7.45703C123.85 6.8737 125.482 6.40885 127.305 6.0625C129.128 5.69792 130.996 5.51562 132.91 5.51562C135.262 5.51562 137.376 5.81641 139.254 6.41797C141.15 7.01953 142.754 7.88542 144.066 9.01562C145.397 10.1276 146.418 11.4857 147.129 13.0898C147.84 14.694 148.195 16.4987 148.195 18.5039C148.195 20.7461 147.749 22.8424 146.855 24.793C145.962 26.7253 144.732 28.4023 143.164 29.8242C141.615 31.2461 139.783 32.3672 137.668 33.1875C135.553 34.0078 133.275 34.418 130.832 34.418ZM142.699 19.5703C142.699 18.1484 142.453 16.8724 141.961 15.7422C141.469 14.612 140.758 13.6641 139.828 12.8984C138.898 12.1146 137.75 11.5221 136.383 11.1211C135.034 10.7018 133.503 10.4922 131.789 10.4922C128.781 10.4922 126.512 11.2578 124.98 12.7891C123.467 14.3021 122.711 16.5625 122.711 19.5703C122.711 21.0286 122.939 22.3685 123.395 23.5898C123.85 24.793 124.488 25.832 125.309 26.707C126.129 27.5638 127.104 28.2383 128.234 28.7305C129.383 29.2044 130.641 29.4414 132.008 29.4414C133.576 29.4414 135.016 29.2044 136.328 28.7305C137.641 28.2383 138.762 27.5547 139.691 26.6797C140.639 25.8047 141.378 24.7656 141.906 23.5625C142.435 22.3411 142.699 21.0104 142.699 19.5703Z" stroke="white" stroke-width="4" mask="url(#path-1-outside-1)"/>
<path d="M176.305 2.72656C176.688 2.48958 177.079 2.32552 177.48 2.23438C177.882 2.14323 178.255 2.09766 178.602 2.09766C179.057 2.09766 179.467 2.17969 179.832 2.34375C180.197 2.48958 180.507 2.68099 180.762 2.91797C181.017 3.15495 181.208 3.42839 181.336 3.73828C181.482 4.02995 181.555 4.32161 181.555 4.61328C181.555 5.01432 181.418 5.39714 181.145 5.76172C180.889 6.1263 180.525 6.4362 180.051 6.69141C179.103 7.23828 178.31 7.70312 177.672 8.08594C177.034 8.46875 176.487 8.8151 176.031 9.125C175.594 9.4349 175.211 9.72656 174.883 10C174.555 10.2734 174.227 10.5742 173.898 10.9023C173.424 11.3398 172.969 11.8411 172.531 12.4062C172.094 12.9714 171.702 13.5365 171.355 14.1016C171.027 14.6484 170.754 15.1771 170.535 15.6875C170.335 16.1979 170.234 16.6172 170.234 16.9453C170.234 17.2188 170.307 17.4375 170.453 17.6016C170.599 17.7656 170.809 17.8477 171.082 17.8477C171.374 17.8477 171.693 17.7474 172.039 17.5469C173.151 16.9271 174.318 16.3711 175.539 15.8789C176.779 15.3867 178.027 14.9674 179.285 14.6211C180.543 14.2747 181.801 14.0195 183.059 13.8555C184.316 13.6732 185.538 13.582 186.723 13.582C188.6 13.582 190.323 13.7917 191.891 14.2109C193.458 14.612 194.807 15.1771 195.938 15.9062C197.068 16.6354 197.943 17.5195 198.562 18.5586C199.182 19.5794 199.492 20.7005 199.492 21.9219C199.492 23.2891 199.1 24.6016 198.316 25.8594C197.533 27.1172 196.457 28.2201 195.09 29.168C193.723 30.1159 192.109 30.8724 190.25 31.4375C188.391 32.0026 186.385 32.2852 184.234 32.2852C181.372 32.2852 178.747 31.9844 176.359 31.3828C173.99 30.7995 171.948 29.9792 170.234 28.9219C168.539 27.8646 167.217 26.6068 166.27 25.1484C165.34 23.6719 164.875 22.0586 164.875 20.3086C164.875 18.5768 165.112 16.8815 165.586 15.2227C166.078 13.5456 166.798 11.9596 167.746 10.4648C168.712 8.95182 169.906 7.54818 171.328 6.25391C172.75 4.94141 174.409 3.76562 176.305 2.72656ZM193.996 22.8789C193.996 22.2591 193.796 21.694 193.395 21.1836C193.012 20.6732 192.465 20.2357 191.754 19.8711C191.061 19.5065 190.214 19.224 189.211 19.0234C188.227 18.8229 187.133 18.7227 185.93 18.7227C183.651 18.7227 181.418 19.0417 179.23 19.6797C177.061 20.2995 175.02 21.2018 173.105 22.3867C172.65 22.6784 172.422 23.0339 172.422 23.4531C172.422 23.7448 172.586 24.0456 172.914 24.3555C173.242 24.6471 173.689 24.9297 174.254 25.2031C174.819 25.4766 175.484 25.7409 176.25 25.9961C177.016 26.2513 177.827 26.4701 178.684 26.6523C179.54 26.8346 180.424 26.9805 181.336 27.0898C182.247 27.1992 183.141 27.2539 184.016 27.2539C185.419 27.2539 186.723 27.1445 187.926 26.9258C189.147 26.6888 190.204 26.3789 191.098 25.9961C192.009 25.5951 192.72 25.1302 193.23 24.6016C193.741 24.0729 193.996 23.4987 193.996 22.8789Z" stroke="white" stroke-width="4" mask="url(#path-1-outside-1)"/>
<path d="M199.738 25.5586C199.428 25.5586 199.191 25.4036 199.027 25.0938C198.882 24.7839 198.809 24.3464 198.809 23.7812C198.809 23.6901 198.809 23.5898 198.809 23.4805C198.809 23.3529 198.827 23.1159 198.863 22.7695C198.918 21.457 199.565 20.6914 200.805 20.4727L201.434 20.418C201.853 20.3633 202.181 20.2357 202.418 20.0352C202.655 19.8164 202.828 19.5156 202.938 19.1328C203.247 18.0938 203.557 17.0456 203.867 15.9883C204.177 14.931 204.505 13.8828 204.852 12.8438C205.034 12.2604 205.216 11.6406 205.398 10.9844C205.599 10.3099 205.809 9.64453 206.027 8.98828C206.264 8.33203 206.529 7.6849 206.82 7.04688C207.13 6.40885 207.477 5.82552 207.859 5.29688C208.023 5.07812 208.251 4.85026 208.543 4.61328C208.835 4.3763 209.163 4.16667 209.527 3.98438C209.91 3.78385 210.311 3.62891 210.73 3.51953C211.168 3.39193 211.596 3.32812 212.016 3.32812C212.562 3.32812 213.1 3.5013 213.629 3.84766C214.34 4.33984 215.042 4.93229 215.734 5.625C216.427 6.31771 217.202 7.20182 218.059 8.27734C218.915 9.35286 219.909 10.6562 221.039 12.1875C222.169 13.7005 223.527 15.5326 225.113 17.6836C225.35 17.957 225.596 18.1667 225.852 18.3125C226.125 18.4401 226.444 18.5039 226.809 18.5039H228.367C229.005 18.5039 229.497 18.6589 229.844 18.9688C230.208 19.2604 230.391 19.6706 230.391 20.1992C230.391 20.3086 230.382 20.4362 230.363 20.582C230.363 20.7279 230.336 20.8737 230.281 21.0195L229.762 22.5508C229.725 22.6966 229.698 22.8242 229.68 22.9336C229.661 23.043 229.652 23.1523 229.652 23.2617C229.652 23.6445 229.78 24.0365 230.035 24.4375L232.961 28.4297C233.289 28.9219 233.453 29.3867 233.453 29.8242C233.453 30.4805 233.079 31.0547 232.332 31.5469L231.293 32.2852C231.038 32.4492 230.792 32.5768 230.555 32.668C230.336 32.7591 230.108 32.8047 229.871 32.8047C229.543 32.8047 229.233 32.7044 228.941 32.5039C228.668 32.3216 228.404 32.0664 228.148 31.7383C227.273 30.4987 226.389 29.2773 225.496 28.0742C224.621 26.8711 223.728 25.6771 222.816 24.4922C222.397 23.9089 221.841 23.6172 221.148 23.6172C218.924 23.7083 216.719 23.8359 214.531 24C212.362 24.1458 210.184 24.3281 207.996 24.5469C207.212 24.6198 206.72 25.0391 206.52 25.8047L205.289 30.3164C204.961 31.5195 204.232 32.1211 203.102 32.1211H202.664L201.816 32.0117C201.197 31.957 200.723 31.7656 200.395 31.4375C200.085 31.1094 199.93 30.681 199.93 30.1523C199.93 30.043 199.939 29.9245 199.957 29.7969C199.975 29.6693 200.003 29.5326 200.039 29.3867C200.13 29.0221 200.221 28.6484 200.312 28.2656C200.422 27.8828 200.531 27.5091 200.641 27.1445C200.677 26.9987 200.704 26.8711 200.723 26.7617C200.741 26.6341 200.75 26.5156 200.75 26.4062C200.75 25.8411 200.531 25.5586 200.094 25.5586H199.738ZM212.754 11.1211C212.572 10.957 212.408 10.8203 212.262 10.7109C212.116 10.6016 211.961 10.5469 211.797 10.5469C211.341 10.5469 211.022 10.8659 210.84 11.5039C210.475 12.5794 210.12 13.6458 209.773 14.7031C209.445 15.7422 209.108 16.8086 208.762 17.9023C208.725 17.9935 208.707 18.0755 208.707 18.1484C208.707 18.2214 208.707 18.3034 208.707 18.3945C208.707 19.069 209.062 19.4062 209.773 19.4062H210.047C211.141 19.2604 212.234 19.151 213.328 19.0781C214.422 18.987 215.516 18.9141 216.609 18.8594C216.974 18.8229 217.257 18.7318 217.457 18.5859C217.676 18.4219 217.785 18.2122 217.785 17.957C217.785 17.7201 217.676 17.4375 217.457 17.1094C216.691 16.0885 215.917 15.0859 215.133 14.1016C214.367 13.099 213.574 12.1055 212.754 11.1211Z" stroke="white" stroke-width="4" mask="url(#path-1-outside-1)"/>
<path d="M259.84 16.0977C259.621 16.0977 259.43 16.2708 259.266 16.6172C258.573 17.9661 257.835 19.1875 257.051 20.2812C256.285 21.375 255.51 22.3047 254.727 23.0703C253.943 23.8359 253.168 24.4284 252.402 24.8477C251.637 25.2487 250.917 25.4492 250.242 25.4492C249.586 25.4492 248.975 25.3125 248.41 25.0391C247.863 24.7474 247.262 24.2096 246.605 23.4258C245.967 22.6419 245.229 21.5573 244.391 20.1719C243.57 18.7865 242.559 16.9818 241.355 14.7578C241.155 14.3932 240.945 14.1289 240.727 13.9648C240.526 13.7826 240.344 13.6914 240.18 13.6914C239.943 13.6914 239.724 13.9466 239.523 14.457C239.323 14.9492 239.15 15.651 239.004 16.5625C238.858 17.4557 238.74 18.5404 238.648 19.8164C238.576 21.0742 238.539 22.4688 238.539 24C238.539 24.9115 238.585 25.8229 238.676 26.7344C238.785 27.6458 238.84 28.5846 238.84 29.5508C238.84 29.8789 238.749 30.1888 238.566 30.4805C238.384 30.7539 238.138 30.9909 237.828 31.1914C237.536 31.4102 237.181 31.5833 236.762 31.7109C236.361 31.8385 235.932 31.9023 235.477 31.9023C234.565 31.9023 233.909 31.3555 233.508 30.2617C233.107 29.168 232.906 27.418 232.906 25.0117C232.906 21.9674 233.07 19.2057 233.398 16.7266C233.745 14.2292 234.228 12.0964 234.848 10.3281C235.486 8.54167 236.233 7.16536 237.09 6.19922C237.965 5.21484 238.94 4.72266 240.016 4.72266C240.964 4.72266 241.866 5.26953 242.723 6.36328C243.598 7.4388 244.536 9.1888 245.539 11.6133C245.94 12.5977 246.368 13.5182 246.824 14.375C247.298 15.2318 247.763 15.9792 248.219 16.6172C248.693 17.237 249.148 17.7292 249.586 18.0938C250.023 18.4401 250.415 18.6133 250.762 18.6133C251.108 18.6133 251.436 18.5404 251.746 18.3945C252.074 18.2305 252.439 17.8932 252.84 17.3828C253.259 16.8542 253.742 16.0885 254.289 15.0859C254.854 14.0833 255.547 12.7435 256.367 11.0664C256.805 10.1914 257.197 9.46224 257.543 8.87891C257.889 8.29557 258.236 7.83073 258.582 7.48438C258.928 7.11979 259.293 6.86458 259.676 6.71875C260.059 6.55469 260.487 6.47266 260.961 6.47266C261.526 6.47266 262.082 6.77344 262.629 7.375C263.176 7.97656 263.704 8.77865 264.215 9.78125C264.743 10.7839 265.254 11.9505 265.746 13.2812C266.238 14.612 266.712 16.0065 267.168 17.4648C267.642 18.9232 268.098 20.4089 268.535 21.9219C268.991 23.4167 269.428 24.8385 269.848 26.1875C269.957 26.5885 270.03 26.8711 270.066 27.0352C270.121 27.181 270.148 27.3633 270.148 27.582C270.148 27.8919 270.048 28.2018 269.848 28.5117C269.665 28.8034 269.419 29.0677 269.109 29.3047C268.799 29.5417 268.444 29.7331 268.043 29.8789C267.66 30.0247 267.277 30.0977 266.895 30.0977C266.384 30.0977 265.983 30.043 265.691 29.9336C265.418 29.806 265.199 29.5872 265.035 29.2773C264.944 29.1133 264.789 28.6758 264.57 27.9648C264.352 27.2539 264.087 26.4154 263.777 25.4492C263.486 24.4648 263.158 23.4258 262.793 22.332C262.447 21.2383 262.091 20.2357 261.727 19.3242C261.38 18.3945 261.043 17.6289 260.715 17.0273C260.387 16.4076 260.095 16.0977 259.84 16.0977Z" stroke="white" stroke-width="4" mask="url(#path-1-outside-1)"/>
<path d="M274.305 24.2734C274.25 24.2734 274.159 24.2826 274.031 24.3008C273.922 24.319 273.794 24.3372 273.648 24.3555C273.521 24.3737 273.393 24.3919 273.266 24.4102C273.138 24.4284 273.038 24.4375 272.965 24.4375C272.454 24.4375 272.008 24.2279 271.625 23.8086C271.242 23.3711 271.051 22.7969 271.051 22.0859C271.051 21.612 271.206 21.1562 271.516 20.7188C271.826 20.2812 272.309 19.9167 272.965 19.625C273.165 19.5339 273.32 19.4336 273.43 19.3242C273.557 19.1966 273.621 19.0234 273.621 18.8047C273.621 18.2214 273.603 17.6016 273.566 16.9453C273.548 16.2708 273.512 15.487 273.457 14.5938C273.439 14.4115 273.375 14.2383 273.266 14.0742C273.174 13.9102 273.065 13.7279 272.938 13.5273C272.828 13.3086 272.728 13.0716 272.637 12.8164C272.546 12.5612 272.5 12.2422 272.5 11.8594C272.5 11.513 272.546 11.1211 272.637 10.6836C272.746 10.2279 272.956 9.80859 273.266 9.42578C273.594 9.02474 274.04 8.69661 274.605 8.44141C275.189 8.16797 275.945 8.03125 276.875 8.03125C277.258 8.03125 277.577 8.06771 277.832 8.14062C278.087 8.21354 278.306 8.30469 278.488 8.41406C278.689 8.50521 278.862 8.58724 279.008 8.66016C279.172 8.73307 279.336 8.76953 279.5 8.76953C279.792 8.76953 280.375 8.71484 281.25 8.60547C282.125 8.49609 283.173 8.34115 284.395 8.14062C285.634 7.9401 286.992 7.71224 288.469 7.45703C289.964 7.20182 291.477 6.92839 293.008 6.63672C294.539 6.32682 296.034 6.01693 297.492 5.70703C298.951 5.39714 300.272 5.09635 301.457 4.80469C301.822 4.71354 302.141 4.66797 302.414 4.66797C302.797 4.66797 303.098 4.75911 303.316 4.94141C303.553 5.10547 303.727 5.3151 303.836 5.57031C303.945 5.82552 304.009 6.11719 304.027 6.44531C304.064 6.75521 304.082 7.04688 304.082 7.32031C304.082 7.79427 303.918 8.24089 303.59 8.66016C303.28 9.0612 302.76 9.38021 302.031 9.61719C300.227 10.1458 298.404 10.6107 296.562 11.0117C294.74 11.3945 292.898 11.75 291.039 12.0781C289.18 12.388 287.311 12.6706 285.434 12.9258C283.556 13.181 281.688 13.4362 279.828 13.6914C279.573 13.7279 279.382 13.8281 279.254 13.9922C279.126 14.138 279.062 14.3385 279.062 14.5938V15.7148C279.062 16.0247 279.072 16.3438 279.09 16.6719C279.108 17 279.145 17.3008 279.199 17.5742C279.272 17.8477 279.363 18.0755 279.473 18.2578C279.582 18.4219 279.728 18.5039 279.91 18.5039C280.348 18.5039 281.022 18.4128 281.934 18.2305C282.863 18.0482 283.902 17.8294 285.051 17.5742C286.217 17.3008 287.43 17.0091 288.688 16.6992C289.964 16.3711 291.167 16.0794 292.297 15.8242C293.427 15.5508 294.421 15.3229 295.277 15.1406C296.134 14.9583 296.736 14.8672 297.082 14.8672C297.592 14.8672 297.975 15.0586 298.23 15.4414C298.504 15.806 298.686 16.2708 298.777 16.8359C298.777 16.9271 298.786 17.0091 298.805 17.082C298.823 17.1549 298.832 17.237 298.832 17.3281C298.832 17.8568 298.668 18.349 298.34 18.8047C298.03 19.2422 297.465 19.5703 296.645 19.7891C296.426 19.862 295.988 19.9805 295.332 20.1445C294.676 20.2904 293.901 20.4727 293.008 20.6914C292.115 20.8919 291.148 21.1107 290.109 21.3477C289.07 21.5846 288.049 21.8216 287.047 22.0586C286.044 22.2773 285.105 22.4961 284.23 22.7148C283.374 22.9154 282.672 23.0794 282.125 23.207C281.633 23.3346 281.332 23.4349 281.223 23.5078C281.132 23.5807 281.086 23.6719 281.086 23.7812C281.122 24.1823 281.323 24.556 281.688 24.9023C282.07 25.2487 282.544 25.5677 283.109 25.8594C283.693 26.151 284.34 26.4154 285.051 26.6523C285.78 26.8893 286.527 27.0898 287.293 27.2539C288.077 27.3997 288.842 27.5182 289.59 27.6094C290.337 27.7005 291.03 27.7461 291.668 27.7461C291.941 27.7461 292.333 27.7461 292.844 27.7461C293.354 27.7461 293.91 27.737 294.512 27.7188C295.132 27.6823 295.76 27.6367 296.398 27.582C297.055 27.5273 297.638 27.4544 298.148 27.3633C298.677 27.2539 299.105 27.1263 299.434 26.9805C299.78 26.8164 299.953 26.625 299.953 26.4062C299.953 26.2057 299.88 25.9961 299.734 25.7773C299.607 25.5586 299.543 25.3216 299.543 25.0664C299.543 24.7018 299.643 24.3464 299.844 24C300.044 23.6354 300.299 23.3164 300.609 23.043C300.938 22.7513 301.302 22.5234 301.703 22.3594C302.122 22.1771 302.542 22.0859 302.961 22.0859C303.49 22.0859 303.973 22.1953 304.41 22.4141C304.848 22.6146 305.221 22.888 305.531 23.2344C305.859 23.5625 306.105 23.9453 306.27 24.3828C306.452 24.8203 306.543 25.2669 306.543 25.7227C306.543 26.9258 306.096 27.9648 305.203 28.8398C304.328 29.7148 303.18 30.4349 301.758 31C300.336 31.5833 298.732 32.0117 296.945 32.2852C295.159 32.5768 293.363 32.7227 291.559 32.7227C289.444 32.7227 287.512 32.5768 285.762 32.2852C284.012 32.0117 282.444 31.5651 281.059 30.9453C279.673 30.3255 278.479 29.5234 277.477 28.5391C276.474 27.5365 275.654 26.3242 275.016 24.9023C274.797 24.4831 274.56 24.2734 274.305 24.2734Z" stroke="white" stroke-width="4" mask="url(#path-1-outside-1)"/>
</g>
<defs>
<filter id="filter0_d" x="0.859375" y="0.0976562" width="309.684" height="40.3203" filterUnits="userSpaceOnUse" color-interpolation-filters="sRGB">
<feFlood flood-opacity="0" result="BackgroundImageFix"/>
<feColorMatrix in="SourceAlpha" type="matrix" values="0 0 0 0 0 0 0 0 0 0 0 0 0 0 0 0 0 0 127 0"/>
<feOffset dy="2"/>
<feGaussianBlur stdDeviation="1"/>
<feColorMatrix type="matrix" values="0 0 0 0 0 0 0 0 0 0 0 0 0 0 0 0 0 0 0.25 0"/>
<feBlend mode="normal" in2="BackgroundImageFix" result="effect1_dropShadow"/>
<feBlend mode="normal" in="SourceGraphic" in2="effect1_dropShadow" result="shape"/>
</filter>
</defs>
</svg>
