<svg width="45" height="66" viewBox="0 0 45 66" fill="none" xmlns="http://www.w3.org/2000/svg">
<rect width="45" height="66" rx="9" fill="#936766"/>
<path d="M9.07812 33.2336C9.09358 36.2156 9.99296 39.1261 11.6625 41.597C13.3321 44.0678 15.6969 45.9881 18.4578 47.115C21.2187 48.2419 24.2518 48.5248 27.1735 47.9278C30.0952 47.3309 32.7743 45.881 34.872 43.7615C36.9697 41.642 38.3917 38.948 38.9583 36.0203C39.5249 33.0925 39.2106 30.0625 38.0552 27.3134C36.8997 24.5643 34.955 22.2196 32.467 20.5757C29.9789 18.9319 27.0593 18.0627 24.0773 18.0782L24.0996 22.3909C26.2287 22.3799 28.3132 23.0004 30.0895 24.1741C31.8659 25.3477 33.2543 27.0218 34.0792 28.9845C34.9042 30.9473 35.1285 33.1105 34.724 35.2008C34.3195 37.2911 33.3042 39.2144 31.8066 40.7277C30.3089 42.2409 28.3962 43.2761 26.3102 43.7023C24.2243 44.1285 22.0588 43.9265 20.0876 43.122C18.1164 42.3174 16.4281 40.9464 15.2361 39.1823C14.0441 37.4182 13.402 35.3403 13.3909 33.2113L9.07812 33.2336Z" fill="white"/>
<path d="M11.5 23L17.1292 34.25H5.87083L11.5 23Z" fill="white"/>
</svg>
