<svg width="365" height="297" viewBox="0 0 365 297" fill="none" xmlns="http://www.w3.org/2000/svg">
<g filter="url(#filter0_d)">
<path d="M242.608 61.6225C242.608 95.6557 206.59 111.962 130.668 111.962C54.746 111.962 4 95.6557 4 61.6225C4 27.5893 49.8364 0 125.759 0C201.681 0 242.608 27.5893 242.608 61.6225Z" fill="#936766"/>
</g>
<g filter="url(#filter1_d)">
<path d="M248.184 127.747C219.013 137.079 160.151 123.199 152.5 111L173.5 109L194.5 105.5C203.172 126.318 261.586 123.459 248.184 127.747Z" fill="#936766"/>
</g>
<g filter="url(#filter2_d)">
<path d="M317.497 177.694C317.497 177.694 320.455 255.819 298.135 283.446L302.955 286.777C302.955 286.777 306.143 278.168 313.788 273.11C324.622 265.944 333.663 241.798 333.663 241.798C333.663 241.798 342.711 227.605 340.5 192.274C338.719 169.767 338.097 164.29 338.097 164.29C338.097 164.29 332.545 173.739 317.497 177.694Z" fill="#E6DD59"/>
<path d="M280.747 171.3C280.747 171.3 299.991 178.437 318.39 177.525C318.39 177.525 319.137 243.608 307.796 264.61C307.796 264.61 304.315 278.112 298.135 283.446L286.122 283.611L286.955 277.111C286.955 277.111 280.281 265.428 278.559 257.461C276.837 249.494 270.372 194.82 280.747 171.3Z" fill="#FFF563"/>
<path d="M308.19 275.813C304.501 276.93 301.596 275.247 298.025 274.688C295.71 274.325 293.496 275.201 291.358 275.964C289.465 276.639 288.127 276.945 287.3 277.705C286.895 277.802 286.522 278.098 286.456 278.611C286.409 278.974 286.383 279.326 286.372 279.672C286.298 280.165 286.268 280.741 286.29 281.444C286.303 281.861 286.53 282.129 286.819 282.276C287.227 283.163 287.932 283.897 289.093 284.392C290.231 284.877 291.593 284.777 292.792 284.772C295.445 284.762 297.595 285.439 300.037 286.412C305.411 288.554 305.797 279.466 308.961 277.641C309.937 277.078 309.285 275.482 308.19 275.813Z" fill="#CFE63E"/>
<path d="M338.096 164.291C338.096 164.291 344.481 218.795 335.282 239.749C326.282 260.249 321.789 266.444 313.789 273.111C305.789 279.778 302.956 286.778 302.956 286.778C302.956 286.778 296.786 288.611 290.288 287.611L286.123 283.611L286.956 277.111C286.956 277.111 284.723 271.111 282.673 268.111C280.623 265.111 273.622 251.921 275.372 204.432C276.622 176.866 281.955 169.944 281.955 169.944C281.955 169.944 308.955 187.777 338.096 164.291Z" stroke="#936766" stroke-width="2" stroke-miterlimit="10" stroke-linecap="round" stroke-linejoin="round"/>
<path d="M286.272 282.439C286.272 282.439 297.205 281.944 298.789 282.443C301.02 283.146 302.956 286.777 302.956 286.777L291.139 287.909L286.272 282.439Z" fill="#936766" stroke="#936766" stroke-miterlimit="10" stroke-linecap="round" stroke-linejoin="round"/>
<path d="M317.789 183.838C317.789 183.838 318.971 243.944 307.797 264.611" stroke="#936766" stroke-miterlimit="10" stroke-linecap="round" stroke-linejoin="round"/>
<path d="M306.393 268.777C306.393 268.777 303.504 277.72 299.552 282.799" stroke="#936766" stroke-miterlimit="10" stroke-linecap="round" stroke-linejoin="round"/>
<path d="M272.798 172.559L273.267 173.59C273.267 173.59 267.973 178.822 270.881 198.383C273.789 217.944 272.622 232.286 268.122 232.032C263.622 231.778 264.144 223.585 264.151 222.266C264.158 220.947 262.001 212.07 260.22 202.627C258.439 193.184 255.717 179.342 263.361 173.192C268.923 168.717 272.798 172.559 272.798 172.559Z" fill="#E6DD59"/>
<path d="M257.379 185.279L258.254 174.597C258.254 174.597 264.473 164.12 272.797 169.367L273.004 171.732C273.005 171.732 259.97 167.945 257.379 185.279Z" fill="#FFF563"/>
<path d="M258.866 172.559C258.866 172.559 263.73 161.079 272.759 159.761L272.798 169.366C272.798 169.366 263.777 166.174 258.866 172.559Z" fill="#FFFCD1"/>
<path d="M272.759 159.761C272.759 159.761 255.122 162.778 257.622 186.611C260.122 210.444 264.622 210.611 264.122 223.278C263.622 235.945 269.928 232.382 271.455 227.945C272.66 224.445 273.455 214.112 271.622 203.112C269.789 192.112 267.788 177.444 275.372 170.777L272.759 159.761Z" stroke="#936766" stroke-width="2" stroke-miterlimit="10" stroke-linecap="round" stroke-linejoin="round"/>
<path d="M258.31 192.275C258.31 192.275 255.182 166.753 274.152 172.015" stroke="#936766" stroke-miterlimit="10" stroke-linecap="round" stroke-linejoin="round"/>
<path d="M257.379 176.866C257.379 176.866 262.787 162.611 275.371 170.777" stroke="#936766" stroke-miterlimit="10" stroke-linecap="round" stroke-linejoin="round"/>
<path d="M275.898 169.12C275.898 169.12 265.731 177.419 271.343 204.433C276.955 231.447 283.055 237.294 284.694 238.713C286.333 240.132 292.285 243.551 294.787 228.582C297.289 213.613 295.225 199.669 299.114 193.548C303.003 187.427 312.638 177.788 312.638 177.788C312.638 177.788 284.175 174.794 275.898 169.12Z" fill="#FFFCD1"/>
<path d="M320.948 176.866C320.948 176.866 360.785 188.252 343.453 234.765C343.453 234.765 346.562 240.914 352.009 233.263C357.456 225.612 362.458 186.657 357.707 175.134C352.956 163.611 348.073 159.785 339.931 158.615C339.931 158.615 331.789 171.278 320.456 174.612L320.948 176.866Z" fill="#FFFCD1"/>
<path d="M288.762 240.952C288.762 240.952 294.861 236.774 295.248 225.442C295.635 214.11 294.403 192.174 306.393 183.62C318.383 175.066 321.635 175.119 329.29 180.706C336.945 186.293 356.931 198.989 344.276 235.301C344.276 235.301 343.432 233.44 343.621 228.113C343.81 222.786 343.038 197.975 334.273 190.726C325.508 183.477 321.589 180.94 317.871 182.12C314.153 183.3 301.866 191.687 301.348 201.484C300.83 211.281 305.401 239.457 288.762 240.952Z" fill="#FFF563"/>
<path d="M339.931 158.615C339.931 158.615 358.289 158.778 359.122 185.279C359.955 211.78 355.455 233.446 348.622 236.613C341.789 239.78 343.289 231.113 343.622 228.113C343.955 225.113 346.134 190.524 321.669 181.787C309.622 181.613 303.241 192.279 301.348 203.279C299.455 214.279 303.955 230.816 296.122 237.298C288.289 243.78 285.734 241.279 280.511 232.779C275.288 224.279 261.039 178.508 276.997 170.477C276.997 170.477 325.073 186.951 339.931 158.615Z" stroke="#936766" stroke-width="2" stroke-miterlimit="10" stroke-linecap="round" stroke-linejoin="round"/>
<path d="M306.393 183.62C306.393 183.62 297.122 192.113 296.122 203.613C295.122 215.113 296.343 232.907 291.834 236.78" stroke="#936766" stroke-width="2" stroke-miterlimit="10" stroke-linecap="round" stroke-linejoin="round"/>
<path d="M323.747 178.188C323.747 178.188 352.955 186.113 347.289 224.78" stroke="#936766" stroke-width="2" stroke-miterlimit="10" stroke-linecap="round" stroke-linejoin="round"/>
<path d="M280.01 114.642C280.01 114.642 276.699 118.944 278.973 126.694C278.973 126.694 273.613 136.953 273.14 149.698C272.667 162.443 271.78 175.431 275.014 178.188C278.248 180.945 281.857 180.259 282.674 178.761C283.491 177.263 284.106 172.78 284.106 172.78L301.768 176.697C301.768 176.697 299.777 181.11 302.685 182.715C305.593 184.32 310.998 184.102 315.435 179.711C318.373 176.695 320.949 176.868 320.949 176.868C320.949 176.868 330.497 174.944 340.122 161.444C340.122 161.444 339.497 139.944 329.122 127.694C329.122 127.694 331.747 118.569 329.872 114.694C329.872 114.694 318.997 114.319 316.622 117.444C316.622 117.444 307.852 110.278 290.737 117.111C290.737 117.111 286.772 113.84 280.01 114.642Z" fill="white"/>
<path d="M339.148 159.867C339.01 158.305 339.021 156.749 339.206 155.193C339.227 155.013 339.199 154.865 339.146 154.736C339.193 154.184 339.197 153.619 339.123 153.026C339.036 152.336 338.402 152.033 337.869 152.095C337.87 150.178 337.723 148.247 337.707 146.359C337.701 145.714 336.701 145.714 336.707 146.359C336.746 150.776 337.377 155.358 335.425 159.486C333.603 163.339 329.84 166.489 326.62 169.154C325.577 170.017 318.885 175.478 322.991 176.174C323.158 176.202 323.297 176.153 323.403 176.068C323.538 176.093 323.675 176.101 323.806 176.072C325.218 175.764 326.564 174.474 327.738 173.204C328.607 172.761 329.485 172.335 330.25 171.727C331.763 170.525 333.242 169.29 334.497 167.814C334.691 167.586 334.754 167.334 334.739 167.093C335.708 166.31 336.626 165.466 337.403 164.445C337.44 164.397 337.466 164.349 337.491 164.301C338.217 163.912 338.827 163.114 339.118 162.468C339.487 161.652 339.223 160.717 339.148 159.867Z" fill="#E5E5E5"/>
<path d="M316.201 173.569C314.715 175.068 313.658 176.898 312.08 178.33C309.158 180.981 305.532 182.58 301.671 181.462C301.05 181.282 300.787 182.247 301.405 182.426C302.271 182.676 303.092 182.802 303.883 182.832C303.559 183.419 303.824 184.349 304.705 184.36C306.651 184.384 308.339 183.736 309.87 182.734C309.957 182.741 310.041 182.758 310.137 182.742C313.1 182.242 314.962 179.448 316.485 177.116C316.674 176.826 316.685 176.544 316.592 176.304C317.302 175.575 318.014 174.892 318.745 174.318C318.867 174.223 318.951 174.118 319.007 174.01C319.17 173.984 319.313 173.879 319.353 173.661C319.911 170.671 317.308 172.452 316.201 173.569Z" fill="#E5E5E5"/>
<path d="M301.744 175.565C301.438 174.124 299.926 173.645 298.63 173.382C297.578 173.051 296.42 172.927 295.394 172.78C295.251 172.759 295.11 172.732 294.967 172.71C290.006 171.782 284.421 170.415 281.47 166.442C281.09 165.931 280.221 166.428 280.607 166.947C281.437 168.065 282.649 169.093 283.962 169.947C283.042 170.081 282.77 171.601 283.856 171.908C286.689 172.71 289.503 173.666 292.369 174.343C294.142 174.762 298.191 174.365 299.342 176.032C299.457 176.198 299.598 176.308 299.749 176.38C299.801 176.566 299.951 176.713 300.206 176.694C300.82 176.649 301.939 176.488 301.744 175.565Z" fill="#E5E5E5"/>
<path d="M285.69 120.108C285.468 120.525 285.24 120.94 285.012 121.354C284.9 121.355 284.785 121.397 284.684 121.507C283.808 122.469 282.845 123.394 281.884 124.324C281.878 124.328 281.872 124.328 281.866 124.332C280.029 125.6 278.008 127.648 277.04 129.863C276.11 131.29 275.339 133.034 276.434 134.381C277.813 136.079 280.351 132.597 280.918 131.737C281.9 130.247 282.497 128.485 283.219 126.863C284.179 124.709 285.447 122.694 286.552 120.613C286.856 120.043 285.993 119.538 285.69 120.108Z" fill="#E5E5E5"/>
<path d="M297.441 144.996C297.307 144.9 297.132 144.877 296.953 145.012C295.708 145.949 292.652 146.264 291.937 144.477C291.787 144.102 291.346 144.07 291.102 144.248C290.803 144.01 290.252 144.128 290.288 144.61C290.571 148.443 296.304 148.438 298.053 145.696C298.334 145.257 297.83 144.857 297.441 144.996Z" fill="#E5E5E5"/>
<path d="M315.435 149.698C318.07 149.698 320.206 147.562 320.206 144.927C320.206 142.292 318.07 140.156 315.435 140.156C312.8 140.156 310.664 142.292 310.664 144.927C310.664 147.562 312.8 149.698 315.435 149.698Z" fill="url(#paint0_radial)"/>
<path d="M286.875 120.111C284.44 118.34 284.347 117.209 281.458 117.209C281.083 117.209 279.309 118.548 279.309 121.184C279.309 123.819 280.225 126.451 282.104 124.603C283.792 122.944 286.875 120.111 286.875 120.111Z" fill="url(#paint1_radial)"/>
<path d="M329.289 121.902C329.289 119.267 329.452 117.208 326.817 117.208C324.182 117.208 321.705 119.86 320.205 121.509C320.205 121.509 324.205 124.693 326.038 126.693C327.819 128.636 329.289 124.537 329.289 121.902Z" fill="url(#paint2_radial)"/>
<path d="M282.672 142.444C282.672 139.809 280.536 137.673 277.901 137.673C275.266 137.673 275.372 139.809 275.372 142.444C275.372 145.079 275.267 147.215 277.901 147.215C280.535 147.215 282.672 145.079 282.672 142.444Z" fill="url(#paint3_radial)"/>
<path d="M291.834 144.193L294.747 142.527L297.74 144.694C297.74 144.694 294.547 147.379 291.834 144.193Z" fill="#FF90B8"/>
<path d="M285.942 141.788C287.24 141.977 288.486 140.801 288.724 139.161C288.963 137.522 288.104 136.039 286.806 135.85C285.508 135.662 284.262 136.838 284.024 138.477C283.785 140.117 284.644 141.599 285.942 141.788Z" fill="#936766"/>
<path d="M306.974 143.012C308.261 142.759 309.045 141.235 308.725 139.61C308.405 137.984 307.103 136.871 305.816 137.125C304.529 137.378 303.745 138.901 304.065 140.527C304.385 142.153 305.687 143.265 306.974 143.012Z" fill="#936766"/>
<path d="M312.997 143.048H319.122" stroke="#936766" stroke-miterlimit="10" stroke-linecap="round" stroke-linejoin="round"/>
<path d="M312.997 145.913L317.872 148.569" stroke="#936766" stroke-miterlimit="10" stroke-linecap="round" stroke-linejoin="round"/>
<path d="M281.622 142.444L276.997 138.819" stroke="#936766" stroke-miterlimit="10" stroke-linecap="round" stroke-linejoin="round"/>
<path d="M280.747 144.694L276.372 145.913" stroke="#936766" stroke-miterlimit="10" stroke-linecap="round" stroke-linejoin="round"/>
<path d="M294.747 141.808L293.372 140.632H296.122L294.747 141.808Z" stroke="#936766" stroke-miterlimit="10" stroke-linecap="round" stroke-linejoin="round"/>
<path d="M289.372 144.694C289.372 144.694 293.622 144.256 294.81 142.444C294.81 142.444 296.248 144.663 299.748 145.303" stroke="#936766" stroke-miterlimit="10" stroke-linecap="round" stroke-linejoin="round"/>
<path d="M291.834 144.276C291.834 144.276 294.42 148.133 297.74 144.934" stroke="#936766" stroke-miterlimit="10"/>
<path d="M290.122 117.444C290.122 117.444 303.122 109.694 316.622 117.444C316.622 117.444 320.497 114.694 329.872 114.694C329.872 114.694 331.872 119.194 329.122 127.694C329.122 127.694 337.872 135.819 340.122 161.444C340.122 161.444 331.747 175.319 317.497 177.694C306.497 178.819 278.872 172.569 272.747 168.444C272.747 168.444 271.473 135.584 278.973 127.334C278.973 127.334 276.872 119.444 279.372 114.694C279.372 114.694 286.872 113.819 290.122 117.444Z" stroke="#936766" stroke-width="2" stroke-miterlimit="10" stroke-linecap="round" stroke-linejoin="round"/>
<path d="M281.622 117.111C281.622 117.111 285.122 118.444 286.372 120.278C286.372 120.278 281.018 124.069 278.973 127.334" stroke="#936766" stroke-width="2" stroke-miterlimit="10" stroke-linecap="round" stroke-linejoin="round"/>
<path d="M327.04 117.111C327.04 117.111 322.123 119.194 320.457 121.778C320.457 121.778 324.207 124.445 326.04 126.695" stroke="#936766" stroke-width="2" stroke-miterlimit="10" stroke-linecap="round" stroke-linejoin="round"/>
<path d="M309.373 169.944C309.373 169.944 303.3 173.696 302.273 175.673C301.246 177.65 299.966 182.998 305.232 183.752C310.498 184.506 315.467 180.027 316.061 178.944C316.655 177.861 319.249 174.403 319.624 171.611C319.623 171.611 315.123 167.382 309.373 169.944Z" fill="white"/>
<path d="M309.372 169.944C309.372 169.944 301.372 173.861 300.955 179.027C300.538 184.193 306.288 184.86 311.705 182.444C317.122 180.028 319.622 171.611 319.622 171.611" stroke="#936766" stroke-width="2" stroke-miterlimit="10" stroke-linecap="round" stroke-linejoin="round"/>
<path d="M279.935 166.694C279.935 166.694 283.961 168.284 283.983 171.882C284.005 175.48 283.297 181.028 279.023 180.486C274.749 179.944 271.56 173.507 273.122 166.694C273.122 166.694 276.685 164.819 279.935 166.694Z" fill="white"/>
<path d="M280.205 166.694C280.205 166.694 285.489 170.971 283.754 176.527C281.621 183.36 275.109 180.068 273.871 176.194C272.699 172.527 272.699 166.694 272.699 166.694" stroke="#936766" stroke-width="2" stroke-miterlimit="10" stroke-linecap="round" stroke-linejoin="round"/>
</g>
<defs>
<filter id="filter0_d" x="0" y="0" width="246.608" height="119.962" filterUnits="userSpaceOnUse" color-interpolation-filters="sRGB">
<feFlood flood-opacity="0" result="BackgroundImageFix"/>
<feColorMatrix in="SourceAlpha" type="matrix" values="0 0 0 0 0 0 0 0 0 0 0 0 0 0 0 0 0 0 127 0"/>
<feOffset dy="4"/>
<feGaussianBlur stdDeviation="2"/>
<feColorMatrix type="matrix" values="0 0 0 0 0 0 0 0 0 0 0 0 0 0 0 0 0 0 0.25 0"/>
<feBlend mode="normal" in2="BackgroundImageFix" result="effect1_dropShadow"/>
<feBlend mode="normal" in="SourceGraphic" in2="effect1_dropShadow" result="shape"/>
</filter>
<filter id="filter1_d" x="148.5" y="105.5" width="105.672" height="33.305" filterUnits="userSpaceOnUse" color-interpolation-filters="sRGB">
<feFlood flood-opacity="0" result="BackgroundImageFix"/>
<feColorMatrix in="SourceAlpha" type="matrix" values="0 0 0 0 0 0 0 0 0 0 0 0 0 0 0 0 0 0 127 0"/>
<feOffset dy="4"/>
<feGaussianBlur stdDeviation="2"/>
<feColorMatrix type="matrix" values="0 0 0 0 0 0 0 0 0 0 0 0 0 0 0 0 0 0 0.25 0"/>
<feBlend mode="normal" in2="BackgroundImageFix" result="effect1_dropShadow"/>
<feBlend mode="normal" in="SourceGraphic" in2="effect1_dropShadow" result="shape"/>
</filter>
<filter id="filter2_d" x="252.38" y="113" width="111.841" height="183.91" filterUnits="userSpaceOnUse" color-interpolation-filters="sRGB">
<feFlood flood-opacity="0" result="BackgroundImageFix"/>
<feColorMatrix in="SourceAlpha" type="matrix" values="0 0 0 0 0 0 0 0 0 0 0 0 0 0 0 0 0 0 127 0"/>
<feOffset dy="4"/>
<feGaussianBlur stdDeviation="2"/>
<feColorMatrix type="matrix" values="0 0 0 0 0 0 0 0 0 0 0 0 0 0 0 0 0 0 0.25 0"/>
<feBlend mode="normal" in2="BackgroundImageFix" result="effect1_dropShadow"/>
<feBlend mode="normal" in="SourceGraphic" in2="effect1_dropShadow" result="shape"/>
</filter>
<radialGradient id="paint0_radial" cx="0" cy="0" r="1" gradientUnits="userSpaceOnUse" gradientTransform="translate(315.435 144.927) scale(4.771)">
<stop offset="0.1182" stop-color="#FF90B8"/>
<stop offset="1" stop-color="white"/>
</radialGradient>
<radialGradient id="paint1_radial" cx="0" cy="0" r="1" gradientUnits="userSpaceOnUse" gradientTransform="translate(283.093 121.215) scale(3.8961)">
<stop offset="0.1182" stop-color="#FF90B8"/>
<stop offset="1" stop-color="white"/>
</radialGradient>
<radialGradient id="paint2_radial" cx="0" cy="0" r="1" gradientUnits="userSpaceOnUse" gradientTransform="translate(324.748 122.204) scale(4.7747)">
<stop offset="0.1182" stop-color="#FF90B8"/>
<stop offset="1" stop-color="white"/>
</radialGradient>
<radialGradient id="paint3_radial" cx="0" cy="0" r="1" gradientUnits="userSpaceOnUse" gradientTransform="translate(279.022 142.444) scale(4.2478)">
<stop offset="0.1182" stop-color="#FF90B8"/>
<stop offset="1" stop-color="white"/>
</radialGradient>
</defs>
</svg>
