<svg width="113" height="184" viewBox="0 0 113 184" fill="none" xmlns="http://www.w3.org/2000/svg">
<g filter="url(#filter0_d)">
<path d="M65.4973 64.6945C65.4973 64.6945 68.4553 142.819 46.1353 170.446L50.9553 173.777C50.9553 173.777 54.1433 165.168 61.7883 160.11C72.6223 152.944 81.6633 128.798 81.6633 128.798C81.6633 128.798 90.7113 114.605 88.5003 79.2745C86.7193 56.7675 86.0973 51.2905 86.0973 51.2905C86.0973 51.2905 80.5453 60.7395 65.4973 64.6945Z" fill="#E6DD59"/>
<path d="M28.7472 58.3005C28.7472 58.3005 47.9912 65.4375 66.3902 64.5255C66.3902 64.5255 67.1372 130.608 55.7962 151.61C55.7962 151.61 52.3152 165.112 46.1352 170.446L34.1222 170.611L34.9552 164.111C34.9552 164.111 28.2812 152.428 26.5592 144.461C24.8372 136.494 18.3722 81.8205 28.7472 58.3005Z" fill="#FFF563"/>
<path d="M56.1903 162.813C52.5013 163.93 49.5963 162.247 46.0253 161.688C43.7103 161.325 41.4963 162.201 39.3583 162.964C37.4653 163.639 36.1273 163.945 35.3003 164.705C34.8953 164.802 34.5223 165.098 34.4563 165.611C34.4093 165.974 34.3833 166.326 34.3723 166.672C34.2983 167.165 34.2683 167.741 34.2903 168.444C34.3033 168.861 34.5303 169.129 34.8193 169.276C35.2273 170.163 35.9323 170.897 37.0933 171.392C38.2313 171.877 39.5933 171.777 40.7923 171.772C43.4453 171.762 45.5953 172.439 48.0373 173.412C53.4113 175.554 53.7973 166.466 56.9613 164.641C57.9373 164.078 57.2853 162.482 56.1903 162.813Z" fill="#CFE63E"/>
<path d="M86.0963 51.2914C86.0963 51.2914 92.4813 105.795 83.2823 126.749C74.2823 147.249 69.7893 153.444 61.7893 160.111C53.7893 166.778 50.9563 173.778 50.9563 173.778C50.9563 173.778 44.7863 175.611 38.2883 174.611L34.1233 170.611L34.9563 164.111C34.9563 164.111 32.7233 158.111 30.6733 155.111C28.6233 152.111 21.6223 138.921 23.3723 91.4324C24.6223 63.8664 29.9553 56.9444 29.9553 56.9444C29.9553 56.9444 56.9553 74.7774 86.0963 51.2914Z" stroke="#936766" stroke-width="2" stroke-miterlimit="10" stroke-linecap="round" stroke-linejoin="round"/>
<path d="M34.2722 169.439C34.2722 169.439 45.2052 168.944 46.7892 169.443C49.0202 170.146 50.9562 173.777 50.9562 173.777L39.1392 174.909L34.2722 169.439Z" fill="#936766" stroke="#936766" stroke-miterlimit="10" stroke-linecap="round" stroke-linejoin="round"/>
<path d="M65.7894 70.8384C65.7894 70.8384 66.9714 130.944 55.7974 151.611" stroke="#936766" stroke-miterlimit="10" stroke-linecap="round" stroke-linejoin="round"/>
<path d="M54.3932 155.777C54.3932 155.777 51.5042 164.72 47.5522 169.799" stroke="#936766" stroke-miterlimit="10" stroke-linecap="round" stroke-linejoin="round"/>
<path d="M20.7983 59.5595L21.2673 60.5905C21.2673 60.5905 15.9733 65.8225 18.8813 85.3835C21.7893 104.944 20.6223 119.286 16.1223 119.032C11.6223 118.778 12.1443 110.585 12.1513 109.266C12.1583 107.947 10.0013 99.0705 8.22028 89.6275C6.43928 80.1845 3.71728 66.3425 11.3613 60.1925C16.9233 55.7175 20.7983 59.5595 20.7983 59.5595Z" fill="#E6DD59"/>
<path d="M5.37939 72.2795L6.25439 61.5975C6.25439 61.5975 12.4734 51.1205 20.7974 56.3675L21.0044 58.7325C21.0054 58.7325 7.97039 54.9455 5.37939 72.2795Z" fill="#FFF563"/>
<path d="M6.86646 59.5595C6.86646 59.5595 11.7305 48.0795 20.7595 46.7615L20.7985 56.3665C20.7985 56.3665 11.7775 53.1745 6.86646 59.5595Z" fill="#FFFCD1"/>
<path d="M20.7593 46.7615C20.7593 46.7615 3.12235 49.7785 5.62235 73.6115C8.12235 97.4445 12.6224 97.6115 12.1224 110.278C11.6224 122.945 17.9283 119.382 19.4553 114.945C20.6603 111.445 21.4553 101.112 19.6223 90.1125C17.7893 79.1125 15.7884 64.4445 23.3724 57.7775L20.7593 46.7615Z" stroke="#936766" stroke-width="2" stroke-miterlimit="10" stroke-linecap="round" stroke-linejoin="round"/>
<path d="M6.3103 79.2755C6.3103 79.2755 3.1823 53.7535 22.1523 59.0155" stroke="#936766" stroke-miterlimit="10" stroke-linecap="round" stroke-linejoin="round"/>
<path d="M5.37939 63.8665C5.37939 63.8665 10.7874 49.6115 23.3714 57.7775" stroke="#936766" stroke-miterlimit="10" stroke-linecap="round" stroke-linejoin="round"/>
<path d="M23.8983 56.1205C23.8983 56.1205 13.7313 64.4195 19.3433 91.4335C24.9553 118.447 31.0553 124.294 32.6943 125.713C34.3333 127.132 40.2853 130.551 42.7873 115.582C45.2893 100.613 43.2253 86.6695 47.1143 80.5485C51.0033 74.4275 60.6383 64.7885 60.6383 64.7885C60.6383 64.7885 32.1753 61.7945 23.8983 56.1205Z" fill="#FFFCD1"/>
<path d="M68.9483 63.8665C68.9483 63.8665 108.785 75.2525 91.4533 121.765C91.4533 121.765 94.5623 127.914 100.009 120.263C105.456 112.612 110.458 73.6575 105.707 62.1345C100.956 50.6115 96.0733 46.7855 87.9313 45.6155C87.9313 45.6155 79.7893 58.2785 68.4563 61.6125L68.9483 63.8665Z" fill="#FFFCD1"/>
<path d="M36.7622 127.952C36.7622 127.952 42.8612 123.774 43.2482 112.442C43.6352 101.11 42.4032 79.1745 54.3932 70.6205C66.3832 62.0665 69.6352 62.1195 77.2902 67.7065C84.9452 73.2935 104.931 85.9895 92.2762 122.301C92.2762 122.301 91.4322 120.44 91.6212 115.113C91.8102 109.786 91.0382 84.9754 82.2732 77.7264C73.5082 70.4774 69.5892 67.9405 65.8712 69.1205C62.1532 70.3005 49.8662 78.6875 49.3482 88.4845C48.8302 98.2815 53.4012 126.457 36.7622 127.952Z" fill="#FFF563"/>
<path d="M87.9313 45.6155C87.9313 45.6155 106.289 45.7785 107.122 72.2795C107.955 98.7805 103.455 120.446 96.6223 123.613C89.7893 126.78 91.2893 118.113 91.6223 115.113C91.9553 112.113 94.1343 77.5245 69.6693 68.7875C57.6223 68.6135 51.2413 79.2795 49.3483 90.2795C47.4553 101.279 51.9553 117.816 44.1223 124.298C36.2893 130.78 33.7343 128.279 28.5113 119.779C23.2883 111.279 9.03929 65.5085 24.9973 57.4775C24.9973 57.4775 73.0733 73.9515 87.9313 45.6155Z" stroke="#936766" stroke-width="2" stroke-miterlimit="10" stroke-linecap="round" stroke-linejoin="round"/>
<path d="M54.3932 70.6205C54.3932 70.6205 45.1222 79.1135 44.1222 90.6135C43.1222 102.113 44.3432 119.907 39.8342 123.78" stroke="#936766" stroke-width="2" stroke-miterlimit="10" stroke-linecap="round" stroke-linejoin="round"/>
<path d="M71.7473 65.1885C71.7473 65.1885 100.955 73.1135 95.2893 111.78" stroke="#936766" stroke-width="2" stroke-miterlimit="10" stroke-linecap="round" stroke-linejoin="round"/>
<path d="M28.0104 1.64247C28.0104 1.64247 24.6994 5.94447 26.9734 13.6945C26.9734 13.6945 21.6134 23.9535 21.1404 36.6985C20.6674 49.4435 19.7804 62.4315 23.0144 65.1885C26.2484 67.9455 29.8574 67.2595 30.6744 65.7615C31.4914 64.2635 32.1064 59.7805 32.1064 59.7805L49.7684 63.6975C49.7684 63.6975 47.7774 68.1105 50.6854 69.7155C53.5934 71.3205 58.9984 71.1025 63.4354 66.7115C66.3734 63.6955 68.9494 63.8685 68.9494 63.8685C68.9494 63.8685 78.4974 61.9445 88.1224 48.4445C88.1224 48.4445 87.4974 26.9445 77.1224 14.6945C77.1224 14.6945 79.7474 5.56947 77.8724 1.69447C77.8724 1.69447 66.9974 1.31947 64.6224 4.44447C64.6224 4.44447 55.8524 -2.72153 38.7374 4.11147C38.7374 4.11147 34.7724 0.840466 28.0104 1.64247Z" fill="white"/>
<path d="M87.1475 46.8674C87.0095 45.3054 87.0205 43.7494 87.2055 42.1934C87.2265 42.0134 87.1985 41.8654 87.1455 41.7364C87.1925 41.1844 87.1965 40.6194 87.1225 40.0264C87.0355 39.3364 86.4015 39.0334 85.8685 39.0954C85.8695 37.1784 85.7225 35.2474 85.7065 33.3594C85.7005 32.7144 84.7005 32.7144 84.7065 33.3594C84.7455 37.7764 85.3765 42.3584 83.4245 46.4864C81.6025 50.3394 77.8395 53.4894 74.6195 56.1544C73.5765 57.0174 66.8845 62.4784 70.9905 63.1744C71.1575 63.2024 71.2965 63.1534 71.4025 63.0684C71.5375 63.0934 71.6745 63.1014 71.8055 63.0724C73.2175 62.7644 74.5635 61.4744 75.7375 60.2044C76.6065 59.7614 77.4845 59.3354 78.2495 58.7274C79.7625 57.5254 81.2415 56.2904 82.4965 54.8144C82.6905 54.5864 82.7535 54.3344 82.7385 54.0934C83.7075 53.3104 84.6255 52.4664 85.4025 51.4454C85.4395 51.3974 85.4655 51.3494 85.4905 51.3014C86.2165 50.9124 86.8265 50.1144 87.1175 49.4684C87.4865 48.6524 87.2225 47.7174 87.1475 46.8674Z" fill="#E5E5E5"/>
<path d="M64.2014 60.5694C62.7154 62.0684 61.6584 63.8984 60.0804 65.3304C57.1584 67.9814 53.5324 69.5804 49.6714 68.4624C49.0504 68.2824 48.7874 69.2474 49.4054 69.4264C50.2714 69.6764 51.0924 69.8024 51.8834 69.8324C51.5594 70.4194 51.8244 71.3494 52.7054 71.3604C54.6514 71.3844 56.3394 70.7364 57.8704 69.7344C57.9574 69.7414 58.0414 69.7584 58.1374 69.7424C61.1004 69.2424 62.9624 66.4484 64.4854 64.1164C64.6744 63.8264 64.6854 63.5444 64.5924 63.3044C65.3024 62.5754 66.0144 61.8924 66.7454 61.3184C66.8674 61.2234 66.9514 61.1184 67.0074 61.0104C67.1704 60.9844 67.3134 60.8794 67.3534 60.6614C67.9114 57.6714 65.3084 59.4524 64.2014 60.5694Z" fill="#E5E5E5"/>
<path d="M49.7444 62.5654C49.4384 61.1244 47.9264 60.6454 46.6304 60.3824C45.5784 60.0514 44.4204 59.9274 43.3944 59.7804C43.2514 59.7594 43.1104 59.7324 42.9674 59.7104C38.0064 58.7824 32.4214 57.4154 29.4704 53.4424C29.0904 52.9314 28.2214 53.4284 28.6074 53.9474C29.4374 55.0654 30.6494 56.0934 31.9624 56.9474C31.0424 57.0814 30.7704 58.6014 31.8564 58.9084C34.6894 59.7104 37.5034 60.6664 40.3694 61.3434C42.1424 61.7624 46.1914 61.3654 47.3424 63.0324C47.4574 63.1984 47.5984 63.3084 47.7494 63.3804C47.8014 63.5664 47.9514 63.7134 48.2064 63.6944C48.8204 63.6494 49.9394 63.4884 49.7444 62.5654Z" fill="#E5E5E5"/>
<path d="M33.6904 7.10842C33.4684 7.52542 33.2404 7.94042 33.0124 8.35442C32.9004 8.35542 32.7854 8.39742 32.6844 8.50742C31.8084 9.46942 30.8454 10.3944 29.8844 11.3244C29.8784 11.3284 29.8724 11.3284 29.8664 11.3324C28.0294 12.6004 26.0084 14.6484 25.0404 16.8634C24.1104 18.2904 23.3394 20.0344 24.4344 21.3814C25.8134 23.0794 28.3514 19.5974 28.9184 18.7374C29.9004 17.2474 30.4974 15.4854 31.2194 13.8634C32.1794 11.7094 33.4474 9.69442 34.5524 7.61342C34.8564 7.04342 33.9934 6.53842 33.6904 7.10842Z" fill="#E5E5E5"/>
<path d="M45.4413 31.9964C45.3073 31.9004 45.1323 31.8774 44.9533 32.0124C43.7083 32.9494 40.6523 33.2644 39.9373 31.4774C39.7873 31.1024 39.3463 31.0704 39.1023 31.2484C38.8033 31.0104 38.2523 31.1284 38.2883 31.6104C38.5713 35.4434 44.3043 35.4384 46.0533 32.6964C46.3343 32.2574 45.8303 31.8574 45.4413 31.9964Z" fill="#E5E5E5"/>
<path d="M63.4353 36.6984C66.0703 36.6984 68.2063 34.5624 68.2063 31.9274C68.2063 29.2925 66.0703 27.1564 63.4353 27.1564C60.8004 27.1564 58.6643 29.2925 58.6643 31.9274C58.6643 34.5624 60.8004 36.6984 63.4353 36.6984Z" fill="url(#paint0_radial)"/>
<path d="M34.8753 7.11141C32.4403 5.34041 32.3473 4.20941 29.4583 4.20941C29.0833 4.20941 27.3093 5.54841 27.3093 8.18441C27.3093 10.8194 28.2253 13.4514 30.1043 11.6034C31.7923 9.94441 34.8753 7.11141 34.8753 7.11141Z" fill="url(#paint1_radial)"/>
<path d="M77.2893 8.90244C77.2893 6.26744 77.4523 4.20844 74.8173 4.20844C72.1823 4.20844 69.7053 6.86043 68.2053 8.50943C68.2053 8.50943 72.2053 11.6934 74.0383 13.6934C75.8193 15.6364 77.2893 11.5374 77.2893 8.90244Z" fill="url(#paint2_radial)"/>
<path d="M30.6724 29.4445C30.6724 26.8095 28.5364 24.6735 25.9014 24.6735C23.2664 24.6735 23.3724 26.8095 23.3724 29.4445C23.3724 32.0795 23.2674 34.2155 25.9014 34.2155C28.5354 34.2155 30.6724 32.0795 30.6724 29.4445Z" fill="url(#paint3_radial)"/>
<path d="M39.8345 31.1935L42.7475 29.5275L45.7405 31.6945C45.7405 31.6945 42.5475 34.3795 39.8345 31.1935Z" fill="#FF90B8"/>
<path d="M33.9419 28.788C35.2399 28.9769 36.4856 27.8008 36.7242 26.1612C36.9628 24.5216 36.1039 23.0393 34.8059 22.8504C33.5078 22.6615 32.2622 23.8376 32.0236 25.4772C31.785 27.1168 32.6438 28.5991 33.9419 28.788Z" fill="#936766"/>
<path d="M54.9743 30.012C56.2613 29.7587 57.0453 28.2355 56.7254 26.6097C56.4054 24.984 55.1027 23.8715 53.8157 24.1248C52.5287 24.378 51.7447 25.9013 52.0647 27.527C52.3846 29.1527 53.6873 30.2652 54.9743 30.012Z" fill="#936766"/>
<path d="M60.9973 30.0484H67.1223" stroke="#936766" stroke-miterlimit="10" stroke-linecap="round" stroke-linejoin="round"/>
<path d="M60.9973 32.9135L65.8723 35.5695" stroke="#936766" stroke-miterlimit="10" stroke-linecap="round" stroke-linejoin="round"/>
<path d="M29.6223 29.4444L24.9973 25.8194" stroke="#936766" stroke-miterlimit="10" stroke-linecap="round" stroke-linejoin="round"/>
<path d="M28.7473 31.6944L24.3723 32.9134" stroke="#936766" stroke-miterlimit="10" stroke-linecap="round" stroke-linejoin="round"/>
<path d="M42.7473 28.8084L41.3723 27.6324H44.1223L42.7473 28.8084Z" stroke="#936766" stroke-miterlimit="10" stroke-linecap="round" stroke-linejoin="round"/>
<path d="M37.3723 31.6944C37.3723 31.6944 41.6223 31.2564 42.8103 29.4444C42.8103 29.4444 44.2483 31.6634 47.7483 32.3034" stroke="#936766" stroke-miterlimit="10" stroke-linecap="round" stroke-linejoin="round"/>
<path d="M39.8342 31.2764C39.8342 31.2764 42.4202 35.1334 45.7402 31.9344" stroke="#936766" stroke-miterlimit="10"/>
<path d="M38.1225 4.44444C38.1225 4.44444 51.1225 -3.30556 64.6225 4.44444C64.6225 4.44444 68.4975 1.69444 77.8725 1.69444C77.8725 1.69444 79.8725 6.19444 77.1225 14.6944C77.1225 14.6944 85.8725 22.8194 88.1225 48.4444C88.1225 48.4444 79.7475 62.3194 65.4975 64.6944C54.4975 65.8194 26.8725 59.5694 20.7475 55.4444C20.7475 55.4444 19.4735 22.5844 26.9735 14.3344C26.9735 14.3344 24.8725 6.44444 27.3725 1.69444C27.3725 1.69444 34.8725 0.819444 38.1225 4.44444Z" stroke="#936766" stroke-width="2" stroke-miterlimit="10" stroke-linecap="round" stroke-linejoin="round"/>
<path d="M29.6224 4.11145C29.6224 4.11145 33.1224 5.44445 34.3724 7.27845C34.3724 7.27845 29.0184 11.0695 26.9734 14.3345" stroke="#936766" stroke-width="2" stroke-miterlimit="10" stroke-linecap="round" stroke-linejoin="round"/>
<path d="M75.0395 4.11145C75.0395 4.11145 70.1225 6.19445 68.4565 8.77845C68.4565 8.77845 72.2065 11.4455 74.0395 13.6955" stroke="#936766" stroke-width="2" stroke-miterlimit="10" stroke-linecap="round" stroke-linejoin="round"/>
<path d="M57.3725 56.9444C57.3725 56.9444 51.2995 60.6964 50.2725 62.6734C49.2455 64.6504 47.9655 69.9984 53.2315 70.7524C58.4975 71.5064 63.4665 67.0274 64.0605 65.9444C64.6545 64.8614 67.2485 61.4034 67.6235 58.6114C67.6225 58.6114 63.1225 54.3824 57.3725 56.9444Z" fill="white"/>
<path d="M57.3725 56.9445C57.3725 56.9445 49.3725 60.8615 48.9555 66.0275C48.5385 71.1935 54.2885 71.8605 59.7055 69.4445C65.1225 67.0285 67.6225 58.6115 67.6225 58.6115" stroke="#936766" stroke-width="2" stroke-miterlimit="10" stroke-linecap="round" stroke-linejoin="round"/>
<path d="M27.9355 53.6944C27.9355 53.6944 31.9615 55.2844 31.9835 58.8824C32.0055 62.4804 31.2975 68.0284 27.0235 67.4864C22.7495 66.9444 19.5605 60.5074 21.1225 53.6944C21.1225 53.6944 24.6855 51.8194 27.9355 53.6944Z" fill="white"/>
<path d="M28.2055 53.6944C28.2055 53.6944 33.4895 57.9714 31.7545 63.5274C29.6215 70.3604 23.1095 67.0684 21.8715 63.1944C20.6995 59.5274 20.6995 53.6944 20.6995 53.6944" stroke="#936766" stroke-width="2" stroke-miterlimit="10" stroke-linecap="round" stroke-linejoin="round"/>
</g>
<defs>
<filter id="filter0_d" x="0.379883" y="0.000183105" width="111.841" height="183.91" filterUnits="userSpaceOnUse" color-interpolation-filters="sRGB">
<feFlood flood-opacity="0" result="BackgroundImageFix"/>
<feColorMatrix in="SourceAlpha" type="matrix" values="0 0 0 0 0 0 0 0 0 0 0 0 0 0 0 0 0 0 127 0"/>
<feOffset dy="4"/>
<feGaussianBlur stdDeviation="2"/>
<feColorMatrix type="matrix" values="0 0 0 0 0 0 0 0 0 0 0 0 0 0 0 0 0 0 0.25 0"/>
<feBlend mode="normal" in2="BackgroundImageFix" result="effect1_dropShadow"/>
<feBlend mode="normal" in="SourceGraphic" in2="effect1_dropShadow" result="shape"/>
</filter>
<radialGradient id="paint0_radial" cx="0" cy="0" r="1" gradientUnits="userSpaceOnUse" gradientTransform="translate(63.4348 31.9273) scale(4.771)">
<stop offset="0.1182" stop-color="#FF90B8"/>
<stop offset="1" stop-color="white"/>
</radialGradient>
<radialGradient id="paint1_radial" cx="0" cy="0" r="1" gradientUnits="userSpaceOnUse" gradientTransform="translate(31.093 8.21491) scale(3.8961)">
<stop offset="0.1182" stop-color="#FF90B8"/>
<stop offset="1" stop-color="white"/>
</radialGradient>
<radialGradient id="paint2_radial" cx="0" cy="0" r="1" gradientUnits="userSpaceOnUse" gradientTransform="translate(72.7483 9.20424) scale(4.7747)">
<stop offset="0.1182" stop-color="#FF90B8"/>
<stop offset="1" stop-color="white"/>
</radialGradient>
<radialGradient id="paint3_radial" cx="0" cy="0" r="1" gradientUnits="userSpaceOnUse" gradientTransform="translate(27.0223 29.4445) scale(4.2478)">
<stop offset="0.1182" stop-color="#FF90B8"/>
<stop offset="1" stop-color="white"/>
</radialGradient>
</defs>
</svg>
