<svg width="308" height="975" viewBox="0 0 308 975" fill="none" xmlns="http://www.w3.org/2000/svg">
<path d="M132.783 884.977C138.332 880.581 145.31 881.765 148.466 883.845C154.776 888.007 156.585 897.865 145.995 903.058C136.539 907.694 129.593 902.31 127.581 899.11C125.57 895.91 125.846 890.472 132.783 884.977Z" fill="white"/>
<path d="M138.863 916.834C144.571 914.045 150.448 916.405 152.806 918.823C157.523 923.66 157.197 932.622 146.924 935.15C137.751 937.407 132.715 931.38 131.574 928.201C130.434 925.021 131.728 920.319 138.863 916.834Z" fill="white"/>
<path d="M101.946 869.129C102.935 862.464 108.95 858.713 112.769 858.083C120.407 856.823 128.758 862.439 124.599 872.954C120.885 882.341 111.906 883.175 108.139 882.284C104.373 881.393 100.711 877.461 101.946 869.129Z" fill="white"/>
<path d="M72.6066 864.762C73.8133 859.66 78.634 857.148 81.5748 856.911C87.4562 856.438 93.4077 861.342 89.532 869.219C86.0715 876.252 79.2014 876.306 76.4045 875.368C73.6076 874.429 71.0983 871.139 72.6066 864.762Z" fill="white"/>
<path d="M83.5001 949.155C71.6913 946.554 63.7779 939.758 59.4937 929.813C55.2096 919.869 57.4087 906.299 62.0793 899.432C67.4047 891.603 73.3854 886.619 87.0783 886.304C101.363 885.976 117.748 900.435 121.632 910.811C129.541 931.936 118.401 941.937 113.937 945.752C106.739 951.905 92.2353 951.079 83.5001 949.155Z" fill="white"/>
<path d="M57.0945 788.771C59.3427 785.484 63.289 784.955 65.3313 785.547C69.4158 786.73 72.032 791.724 67.2089 796.281C62.9025 800.349 58.2719 798.615 56.6575 797.232C55.0431 795.848 54.2843 792.88 57.0945 788.771Z" fill="white"/>
<path d="M65.6757 804.872C68.277 802.421 71.8283 802.709 73.4988 803.614C76.8397 805.426 78.1595 810.295 73.062 813.367C68.5107 816.11 64.7992 813.713 63.6561 812.195C62.5129 810.677 62.4242 807.935 65.6757 804.872Z" fill="white"/>
<path d="M37.8836 785.401C37.3029 781.655 39.9086 778.636 41.8552 777.661C45.7485 775.71 51.172 777.334 50.6916 783.677C50.2627 789.34 45.5775 791.285 43.4053 791.435C41.233 791.585 38.6095 790.083 37.8836 785.401Z" fill="white"/>
<path d="M21.3922 787.949C21.1894 785.007 23.3603 782.853 24.9007 782.235C27.9816 781 31.9972 782.642 31.229 787.52C30.5432 791.876 26.8612 793.051 25.202 793.014C23.5427 792.976 21.6458 791.627 21.3922 787.949Z" fill="white"/>
<path d="M41.3237 831.472C34.5454 832.045 29.1601 829.714 25.1995 825.086C21.2388 820.458 20.1564 812.801 21.5202 808.332C23.0751 803.237 25.4568 799.562 32.761 797.109C40.3805 794.55 51.5956 799.584 55.4137 804.511C63.1869 814.541 58.87 821.772 57.1083 824.567C54.2677 829.073 46.3376 831.049 41.3237 831.472Z" fill="white"/>
<path d="M134.52 540.007C137.491 538.059 140.926 538.964 142.409 540.145C145.377 542.508 145.838 547.516 140.312 549.637C135.379 551.53 132.148 548.527 131.287 546.837C130.425 545.148 130.807 542.442 134.52 540.007Z" fill="white"/>
<path d="M136.13 556.202C139.108 555.064 141.939 556.507 143.009 557.822C145.15 560.451 144.584 564.915 139.337 565.718C134.651 566.434 132.404 563.196 131.977 561.556C131.549 559.916 132.408 557.624 136.13 556.202Z" fill="white"/>
<path d="M119.819 530.703C120.613 527.416 123.787 525.811 125.724 525.668C129.598 525.38 133.52 528.562 130.969 533.631C128.692 538.156 124.167 538.17 122.324 537.555C120.482 536.941 118.828 534.811 119.819 530.703Z" fill="white"/>
<path d="M105.351 527.204C106.183 524.708 108.705 523.669 110.186 523.682C113.147 523.71 115.901 526.428 113.611 530.191C111.566 533.551 108.129 533.27 106.774 532.675C105.418 532.08 104.311 530.323 105.351 527.204Z" fill="white"/>
<path d="M107.01 569.872C101.225 568.042 97.5744 564.29 95.8794 559.128C94.1844 553.965 95.8923 547.282 98.5348 544.059C101.548 540.385 104.76 538.163 111.618 538.62C118.772 539.097 126.313 547.058 127.789 552.419C130.794 563.332 124.777 567.83 122.375 569.537C118.501 572.289 111.289 571.225 107.01 569.872Z" fill="white"/>
<path d="M130.828 31.4306C134.848 28.2465 139.903 29.1036 142.188 30.6108C146.759 33.6253 148.069 40.7661 140.398 44.5275C133.549 47.8858 128.517 43.9856 127.06 41.6677C125.603 39.3498 125.803 35.4107 130.828 31.4306Z" fill="white"/>
<path d="M135.232 54.5062C139.367 52.4862 143.624 54.1956 145.332 55.9475C148.749 59.4511 148.513 65.9427 141.071 67.7739C134.427 69.4089 130.779 65.0433 129.953 62.7401C129.126 60.437 130.064 57.0313 135.232 54.5062Z" fill="white"/>
<path d="M108.491 19.9512C109.207 15.1233 113.564 12.4058 116.33 11.9494C121.863 11.0367 127.912 15.1051 124.899 22.7212C122.21 29.5213 115.705 30.1249 112.977 29.4796C110.248 28.8344 107.596 25.986 108.491 19.9512Z" fill="white"/>
<path d="M87.2388 16.7874C88.1129 13.0918 91.6048 11.2723 93.735 11.1007C97.9953 10.7577 102.306 14.3103 99.4989 20.0161C96.9923 25.1105 92.0158 25.1498 89.9899 24.4698C87.9639 23.7898 86.1462 21.4069 87.2388 16.7874Z" fill="white"/>
<path d="M95.1298 77.9186C86.5759 76.0346 80.8437 71.1118 77.7404 63.9083C74.6372 56.7049 76.2301 46.8754 79.6134 41.9013C83.4709 36.2299 87.803 32.6198 97.7217 32.392C108.069 32.1545 119.938 42.6276 122.751 50.144C128.48 65.4461 120.411 72.6899 117.177 75.4537C111.963 79.9103 101.457 79.3122 95.1298 77.9186Z" fill="white"/>
<path d="M151.793 301.595C158.246 296.483 166.36 297.859 170.029 300.279C177.367 305.118 179.47 316.581 167.156 322.62C156.161 328.011 148.083 321.75 145.744 318.029C143.405 314.308 143.726 307.984 151.793 301.595Z" fill="white"/>
<path d="M158.862 338.639C165.499 335.396 172.333 338.14 175.076 340.952C180.56 346.577 180.181 356.998 168.235 359.937C157.569 362.562 151.712 355.554 150.386 351.857C149.06 348.159 150.566 342.692 158.862 338.639Z" fill="white"/>
<path d="M115.935 283.167C117.085 275.417 124.079 271.054 128.52 270.322C137.401 268.856 147.112 275.387 142.276 287.614C137.958 298.53 127.516 299.499 123.136 298.463C118.756 297.427 114.498 292.855 115.935 283.167Z" fill="white"/>
<path d="M81.8177 278.088C83.2209 272.156 88.8265 269.235 92.2462 268.959C99.0853 268.409 106.006 274.112 101.499 283.271C97.4751 291.449 89.4864 291.512 86.234 290.421C82.9817 289.329 80.0638 285.504 81.8177 278.088Z" fill="white"/>
<path d="M94.4852 376.223C80.7536 373.198 71.5516 365.296 66.5699 353.732C61.5881 342.168 64.1453 326.389 69.5765 318.404C75.769 309.299 82.7235 303.504 98.6461 303.138C115.256 302.757 134.309 319.57 138.827 331.636C148.023 356.201 135.069 367.829 129.878 372.266C121.508 379.42 104.643 378.46 94.4852 376.223Z" fill="white"/>
<path d="M291.046 198.652C294.249 196.553 297.951 197.528 299.55 198.801C302.749 201.349 303.246 206.747 297.29 209.033C291.971 211.073 288.489 207.836 287.56 206.015C286.631 204.194 287.043 201.277 291.046 198.652Z" fill="white"/>
<path d="M292.781 216.11C295.991 214.883 299.043 216.439 300.197 217.856C302.504 220.69 301.895 225.503 296.238 226.368C291.187 227.14 288.765 223.65 288.304 221.882C287.843 220.113 288.768 217.643 292.781 216.11Z" fill="white"/>
<path d="M275.198 188.623C276.054 185.08 279.476 183.349 281.564 183.195C285.74 182.885 289.967 186.315 287.218 191.779C284.763 196.657 279.885 196.671 277.899 196.009C275.912 195.347 274.13 193.052 275.198 188.623Z" fill="white"/>
<path d="M259.602 184.851C260.499 182.16 263.218 181.04 264.814 181.055C268.006 181.084 270.975 184.014 268.506 188.071C266.301 191.692 262.597 191.389 261.136 190.748C259.674 190.107 258.481 188.213 259.602 184.851Z" fill="white"/>
<path d="M261.39 230.846C255.153 228.874 251.219 224.829 249.391 219.264C247.564 213.699 249.405 206.495 252.254 203.021C255.502 199.06 258.965 196.664 266.358 197.157C274.07 197.671 282.198 206.254 283.789 212.032C287.028 223.796 280.543 228.645 277.953 230.485C273.778 233.451 266.003 232.305 261.39 230.846Z" fill="white"/>
</svg>
