<svg width="488" height="932" viewBox="0 0 488 932" fill="none" xmlns="http://www.w3.org/2000/svg">
<path d="M239.021 813.512C246.376 807.685 255.625 809.254 259.807 812.012C268.171 817.527 270.568 830.594 256.532 837.476C244 843.622 234.792 836.485 232.126 832.244C229.46 828.002 229.826 820.794 239.021 813.512Z" fill="white"/>
<path d="M247.079 855.735C254.644 852.039 262.435 855.167 265.56 858.373C271.812 864.784 271.379 876.662 257.763 880.013C245.606 883.004 238.93 875.016 237.418 870.802C235.907 866.587 237.623 860.356 247.079 855.735Z" fill="white"/>
<path d="M198.149 792.506C199.459 783.672 207.431 778.7 212.493 777.865C222.617 776.195 233.685 783.639 228.173 797.575C223.251 810.018 211.349 811.122 206.357 809.942C201.364 808.761 196.511 803.549 198.149 792.506Z" fill="white"/>
<path d="M159.261 786.717C160.86 779.955 167.249 776.626 171.147 776.312C178.943 775.684 186.831 782.185 181.694 792.625C177.107 801.947 168.002 802.019 164.294 800.775C160.587 799.53 157.261 795.17 159.261 786.717Z" fill="white"/>
<path d="M174.699 898.575C159.047 895.128 148.558 886.12 142.88 872.94C137.201 859.759 140.116 841.773 146.307 832.671C153.365 822.293 161.292 815.688 179.442 815.271C198.374 814.836 220.092 834 225.241 847.753C235.723 875.753 220.958 889.008 215.041 894.065C205.501 902.22 186.277 901.125 174.699 898.575Z" fill="white"/>
<path d="M75.6755 698.246C78.6552 693.888 83.8858 693.188 86.5928 693.972C92.0066 695.54 95.4742 702.16 89.0814 708.2C83.3735 713.592 77.2361 711.294 75.0962 709.46C72.9564 707.626 71.9507 703.692 75.6755 698.246Z" fill="white"/>
<path d="M87.0491 719.586C90.4969 716.338 95.2041 716.719 97.4182 717.92C101.846 720.321 103.596 726.775 96.8393 730.847C90.8067 734.482 85.8874 731.304 84.3722 729.292C82.857 727.28 82.7394 723.646 87.0491 719.586Z" fill="white"/>
<path d="M50.2124 693.779C49.4427 688.814 52.8963 684.813 55.4765 683.52C60.6368 680.934 67.8254 683.087 67.1886 691.493C66.6201 699 60.4102 701.578 57.531 701.777C54.6518 701.975 51.1745 699.985 50.2124 693.779Z" fill="white"/>
<path d="M28.354 697.157C28.0852 693.257 30.9625 690.402 33.0043 689.583C37.0878 687.945 42.4103 690.122 41.3921 696.588C40.483 702.361 35.6028 703.919 33.4036 703.869C31.2043 703.819 28.69 702.031 28.354 697.157Z" fill="white"/>
<path d="M55.7721 754.844C46.788 755.603 39.6501 752.513 34.4004 746.379C29.1508 740.245 27.7162 730.096 29.5238 724.173C31.5848 717.42 34.7416 712.549 44.4228 709.297C54.522 705.905 69.387 712.578 74.4477 719.108C84.7505 732.402 79.0288 741.987 76.6938 745.691C72.9286 751.663 62.4178 754.282 55.7721 754.844Z" fill="white"/>
<path d="M214.319 474.199C220.388 470.219 227.405 472.067 230.435 474.481C236.497 479.308 237.44 489.539 226.152 493.871C216.073 497.738 209.473 491.603 207.713 488.152C205.953 484.7 206.733 479.173 214.319 474.199Z" fill="white"/>
<path d="M217.607 507.282C223.69 504.958 229.475 507.907 231.661 510.592C236.033 515.963 234.879 525.083 224.158 526.723C214.586 528.187 209.996 521.571 209.123 518.22C208.249 514.87 210.002 510.188 217.607 507.282Z" fill="white"/>
<path d="M184.286 455.192C185.907 448.477 192.392 445.198 196.349 444.905C204.263 444.318 212.275 450.819 207.064 461.173C202.412 470.417 193.168 470.445 189.404 469.19C185.64 467.935 182.261 463.585 184.286 455.192Z" fill="white"/>
<path d="M154.73 448.043C156.429 442.945 161.582 440.822 164.606 440.849C170.654 440.905 176.281 446.458 171.602 454.145C167.424 461.009 160.405 460.435 157.635 459.22C154.865 458.005 152.605 454.416 154.73 448.043Z" fill="white"/>
<path d="M159.118 535.209C147.299 531.471 139.843 523.807 136.38 513.26C132.917 502.714 136.406 489.06 141.805 482.477C147.96 474.971 154.523 470.431 168.533 471.365C183.147 472.339 198.552 488.604 201.567 499.554C207.705 521.848 195.414 531.038 190.507 534.524C182.594 540.146 167.861 537.974 159.118 535.209Z" fill="white"/>
<path d="M231.563 228.842C238.449 223.387 247.107 224.855 251.023 227.437C258.853 232.601 261.097 244.834 247.957 251.277C236.224 257.03 227.604 250.349 225.108 246.378C222.612 242.408 222.955 235.66 231.563 228.842Z" fill="white"/>
<path d="M239.106 268.371C246.189 264.911 253.482 267.839 256.408 270.84C262.261 276.842 261.856 287.962 249.109 291.099C237.727 293.9 231.477 286.421 230.062 282.476C228.647 278.531 230.253 272.697 239.106 268.371Z" fill="white"/>
<path d="M193.299 209.177C194.526 200.907 201.989 196.252 206.728 195.47C216.206 193.906 226.568 200.876 221.407 213.922C216.799 225.571 205.657 226.605 200.983 225.5C196.31 224.394 191.765 219.515 193.299 209.177Z" fill="white"/>
<path d="M156.892 203.757C158.39 197.427 164.371 194.31 168.02 194.016C175.319 193.428 182.704 199.514 177.894 209.288C173.6 218.015 165.075 218.083 161.605 216.918C158.134 215.753 155.021 211.671 156.892 203.757Z" fill="white"/>
<path d="M170.41 308.477C155.757 305.25 145.937 296.817 140.621 284.477C135.305 272.138 138.034 255.299 143.83 246.778C150.438 237.063 157.859 230.879 174.85 230.489C192.575 230.082 212.907 248.023 217.727 260.899C227.54 287.112 213.717 299.52 208.178 304.255C199.246 311.889 181.249 310.865 170.41 308.477Z" fill="white"/>
<path d="M471.608 242.645C474.81 240.545 478.512 241.52 480.112 242.794C483.31 245.341 483.808 250.74 477.851 253.026C472.533 255.066 469.05 251.829 468.122 250.008C467.193 248.187 467.605 245.27 471.608 242.645Z" fill="white"/>
<path d="M473.342 260.103C476.552 258.876 479.605 260.432 480.758 261.849C483.066 264.683 482.456 269.496 476.799 270.361C471.748 271.133 469.326 267.643 468.866 265.875C468.405 264.106 469.33 261.636 473.342 260.103Z" fill="white"/>
<path d="M455.76 232.616C456.615 229.072 460.037 227.342 462.125 227.187C466.301 226.878 470.529 230.308 467.779 235.772C465.325 240.65 460.447 240.664 458.46 240.002C456.474 239.34 454.691 237.044 455.76 232.616Z" fill="white"/>
<path d="M440.164 228.843C441.061 226.153 443.78 225.033 445.375 225.048C448.567 225.077 451.536 228.007 449.067 232.064C446.863 235.685 443.159 235.382 441.697 234.741C440.236 234.1 439.043 232.206 440.164 228.843Z" fill="white"/>
<path d="M441.951 274.839C435.715 272.867 431.78 268.822 429.953 263.257C428.126 257.692 429.967 250.487 432.816 247.014C436.063 243.053 439.527 240.657 446.919 241.15C454.631 241.664 462.76 250.246 464.351 256.025C467.59 267.789 461.104 272.638 458.515 274.478C454.339 277.444 446.565 276.298 441.951 274.839Z" fill="white"/>
<path d="M108.847 37.4029C113.56 33.6691 119.487 34.6742 122.167 36.4416C127.528 39.9765 129.064 48.35 120.069 52.7607C112.037 56.6989 106.136 52.1254 104.428 49.4073C102.72 46.6892 102.954 42.0701 108.847 37.4029Z" fill="white"/>
<path d="M114.011 64.4621C118.859 62.0933 123.851 64.0979 125.854 66.1521C129.861 70.2606 129.584 77.8729 120.858 80.0202C113.067 81.9374 108.788 76.8181 107.819 74.1174C106.851 71.4166 107.951 67.423 114.011 64.4621Z" fill="white"/>
<path d="M82.6531 23.9417C83.493 18.2804 88.6021 15.0938 91.8459 14.5586C98.3336 13.4883 105.427 18.2591 101.894 27.19C98.74 35.164 91.1129 35.8718 87.9134 35.1151C84.714 34.3584 81.6034 31.0184 82.6531 23.9417Z" fill="white"/>
<path d="M57.732 20.2318C58.757 15.8983 62.8517 13.7646 65.3496 13.5634C70.3454 13.1612 75.4007 17.327 72.1086 24.0178C69.1692 29.9918 63.3337 30.0378 60.958 29.2404C58.5822 28.443 56.4508 25.6487 57.732 20.2318Z" fill="white"/>
<path d="M67.8361 91.9162C57.8055 89.707 51.0838 83.9344 47.4448 75.4874C43.8058 67.0404 45.6737 55.514 49.641 49.6812C54.1645 43.0307 59.2445 38.7974 70.8755 38.5304C83.0086 38.2518 96.9264 50.5329 100.226 59.3468C106.944 77.2905 97.4811 85.7848 93.6895 89.0258C87.5756 94.2517 75.2558 93.5504 67.8361 91.9162Z" fill="white"/>
</svg>
