<svg width="196" height="71" viewBox="0 0 196 71" fill="none" xmlns="http://www.w3.org/2000/svg">
<g filter="url(#filter0_d)">
<path d="M166.809 12.575C166.809 12.575 167.625 4.75002 175.125 4.87502C182.625 5.00002 183.625 13.75 181.25 17.125C178.875 20.5 175.5 20.625 175.5 20.625L166.809 14.25V12.575Z" fill="#B6E5FA" stroke="#7E5053" stroke-width="2" stroke-miterlimit="10" stroke-linecap="round" stroke-linejoin="round"/>
<path d="M90.25 42.75C92.3211 42.75 94 41.0711 94 39C94 36.9289 92.3211 35.25 90.25 35.25C88.1789 35.25 86.5 36.9289 86.5 39C86.5 41.0711 88.1789 42.75 90.25 42.75Z" stroke="#7E5053" stroke-miterlimit="10" stroke-linecap="round" stroke-linejoin="round"/>
<path d="M81.375 36.75C81.375 36.75 84.625 46.125 96.75 42" stroke="#7E5053" stroke-miterlimit="10" stroke-linecap="round" stroke-linejoin="round"/>
<path d="M124 53.313C124 53.313 124.375 59.788 130.75 59.956C137.125 60.124 136.625 53.312 136.625 53.312C136.625 53.312 130.125 47.502 124 53.313Z" fill="#B6E5FA" stroke="#7E5053" stroke-width="2" stroke-miterlimit="10" stroke-linecap="round" stroke-linejoin="round"/>
<path d="M177.845 49.197C177.845 49.197 185.44 54.379 188.125 50.73C192.25 45.125 184.804 41.301 184.804 41.301C184.804 41.301 175.813 44.399 177.845 49.197Z" fill="#B6E5FA" stroke="#7E5053" stroke-width="2" stroke-miterlimit="10" stroke-linecap="round" stroke-linejoin="round"/>
<path d="M156.128 52.944C132.875 54.562 114.534 52.048 114.534 52.048C114.167 57.208 109.825 61.228 105.875 59.499C101.875 57.749 103.663 50.298 103.663 50.298C101.845 49.424 96.752 46.525 96.75 40.999C96.747 32.249 101 20.499 108.875 15.499C117.464 10.045 128.375 7.99898 132.25 7.37398C136.125 6.74898 155.75 6.24898 166.25 12.249C176.75 18.249 185.375 27.749 185.625 36.124C186.053 50.47 168.447 52.136 169.167 52.05C169.167 52.05 172.75 58.999 165.625 59.959C158.5 60.919 156.128 52.944 156.128 52.944Z" fill="#B6E5FA" stroke="#7E5053" stroke-width="2" stroke-miterlimit="10" stroke-linecap="round" stroke-linejoin="round"/>
<path d="M150.52 12.499C150.52 6.638 145.809 2.888 139.999 2.888C134.187 2.888 129.477 6.638 129.477 12.499C129.477 18.36 134.187 23.111 139.999 23.111C145.809 23.111 150.52 18.36 150.52 12.499Z" fill="#B6E5FA"/>
<path d="M138.5 23.75C138.5 23.75 127.875 20.5 129.625 10.25C131.375 -2.90871e-05 143.737 1.65497 147.375 4.74997C150.926 7.77097 151.125 11.25 150.75 16" stroke="#7E5053" stroke-width="2" stroke-miterlimit="10" stroke-linecap="round" stroke-linejoin="round"/>
<path d="M166.518 43.379C170.512 43.379 173.75 40.6918 173.75 37.377C173.75 34.0622 170.512 31.375 166.518 31.375C162.524 31.375 159.286 34.0622 159.286 37.377C159.286 40.6918 162.524 43.379 166.518 43.379Z" fill="white"/>
<path d="M161.311 35.511C161.311 35.511 163.931 36.188 166.809 33.125C166.809 33.125 169.5 35.901 171.687 35.576C171.687 35.576 173.437 43.816 166.906 43.627C160.375 43.438 160.997 37.209 161.311 35.511Z" fill="#FFBAD3"/>
<path d="M158.625 34.25C158.625 34.25 162.868 38.125 166.809 32.625C166.809 32.625 170.125 38 173.75 34.101" stroke="#7E5053" stroke-miterlimit="10" stroke-linecap="round" stroke-linejoin="round"/>
<path d="M161 35.938C161 35.938 160.118 43.751 166.809 43.626C173.5 43.501 171.937 35.577 171.937 35.577" stroke="#7E5053" stroke-miterlimit="10" stroke-linecap="round" stroke-linejoin="round"/>
<path d="M166.809 32.875L165.813 31.813H168L166.809 32.875Z" stroke="#7E5053" stroke-miterlimit="10" stroke-linecap="round" stroke-linejoin="round"/>
<path d="M150.52 41.504C152.097 41.504 153.375 39.6563 153.375 37.377C153.375 35.0977 152.097 33.25 150.52 33.25C148.943 33.25 147.665 35.0977 147.665 37.377C147.665 39.6563 148.943 41.504 150.52 41.504Z" fill="#FFBAD3"/>
<path d="M180.402 41.504C181.979 41.504 183.257 39.6563 183.257 37.377C183.257 35.0977 181.979 33.25 180.402 33.25C178.825 33.25 177.547 35.0977 177.547 37.377C177.547 39.6563 178.825 41.504 180.402 41.504Z" fill="#FFBAD3"/>
<path d="M135.25 44.572C136.769 44.572 138 44.1502 138 43.63C138 43.1097 136.769 42.688 135.25 42.688C133.731 42.688 132.5 43.1097 132.5 43.63C132.5 44.1502 133.731 44.572 135.25 44.572Z" fill="white" stroke="#83D5FC" stroke-width="0.5" stroke-miterlimit="10"/>
<path d="M140.158 41.86C142.282 41.86 144.003 41.2704 144.003 40.543C144.003 39.8157 142.282 39.226 140.158 39.226C138.034 39.226 136.313 39.8157 136.313 40.543C136.313 41.2704 138.034 41.86 140.158 41.86Z" fill="white" stroke="#83D5FC" stroke-width="0.5" stroke-miterlimit="10"/>
<path d="M186.354 41.86C188.478 41.86 190.199 41.2704 190.199 40.543C190.199 39.8157 188.478 39.226 186.354 39.226C184.23 39.226 182.509 39.8157 182.509 40.543C182.509 41.2704 184.23 41.86 186.354 41.86Z" fill="white" stroke="#83D5FC" stroke-width="0.5" stroke-miterlimit="10"/>
<path d="M151.509 34.685C154.426 34.685 156.791 33.8746 156.791 32.875C156.791 31.8754 154.426 31.065 151.509 31.065C148.592 31.065 146.227 31.8754 146.227 32.875C146.227 33.8746 148.592 34.685 151.509 34.685Z" fill="white" stroke="#83D5FC" stroke-width="0.5" stroke-miterlimit="10"/>
<path d="M181.071 34.435C183.988 34.435 186.353 33.6246 186.353 32.625C186.353 31.6254 183.988 30.815 181.071 30.815C178.154 30.815 175.789 31.6254 175.789 32.625C175.789 33.6246 178.154 34.435 181.071 34.435Z" fill="white" stroke="#83D5FC" stroke-width="0.5" stroke-miterlimit="10"/>
<path d="M21.197 22.837C24.715 22.855 27.533 25.469 27.517 28.673C27.51 30.065 26.965 31.356 26.043 32.35C32.22 38.602 49.473 39.364 49.473 39.364C61.485 39.834 60.442 43.203 57.071 43.605C53.699 43.995 28.102 46.493 25.396 51.087V51.099C26.442 52.09 27.083 53.423 27.076 54.902C27.061 57.896 24.38 60.322 21.104 60.306C17.828 60.289 15.171 57.836 15.187 54.842C15.189 54.362 15.259 53.894 15.396 53.451C14.694 53.681 13.925 53.788 13.13 53.784C9.17997 53.764 5.98597 50.816 6.00497 47.194C6.02097 43.88 8.73097 41.158 12.238 40.744C10.41 39.7 9.19297 37.834 9.20397 35.715C9.21897 32.671 11.752 30.182 14.975 29.879C14.884 29.472 14.831 29.04 14.833 28.609C14.849 25.405 17.692 22.82 21.197 22.837Z" fill="white"/>
<path d="M157 34.25C158.726 34.25 160.125 32.2912 160.125 29.875C160.125 27.4588 158.726 25.5 157 25.5C155.274 25.5 153.875 27.4588 153.875 29.875C153.875 32.2912 155.274 34.25 157 34.25Z" fill="white" stroke="#7E5053" stroke-miterlimit="10" stroke-linecap="round" stroke-linejoin="round"/>
<path d="M176.216 34.25C177.942 34.25 179.341 32.2912 179.341 29.875C179.341 27.4588 177.942 25.5 176.216 25.5C174.49 25.5 173.091 27.4588 173.091 29.875C173.091 32.2912 174.49 34.25 176.216 34.25Z" fill="white" stroke="#7E5053" stroke-miterlimit="10" stroke-linecap="round" stroke-linejoin="round"/>
</g>
<defs>
<filter id="filter0_d" x="0" y="0" width="195.5" height="70.75" filterUnits="userSpaceOnUse" color-interpolation-filters="sRGB">
<feFlood flood-opacity="0" result="BackgroundImageFix"/>
<feColorMatrix in="SourceAlpha" type="matrix" values="0 0 0 0 0 0 0 0 0 0 0 0 0 0 0 0 0 0 127 0"/>
<feOffset dy="4"/>
<feGaussianBlur stdDeviation="2"/>
<feColorMatrix type="matrix" values="0 0 0 0 0 0 0 0 0 0 0 0 0 0 0 0 0 0 0.25 0"/>
<feBlend mode="normal" in2="BackgroundImageFix" result="effect1_dropShadow"/>
<feBlend mode="normal" in="SourceGraphic" in2="effect1_dropShadow" result="shape"/>
</filter>
</defs>
</svg>
