<svg width="373" height="974" viewBox="0 0 373 974" fill="none" xmlns="http://www.w3.org/2000/svg">
<path d="M138.758 829.452C132.322 821.549 133.889 811.481 136.822 806.899C142.69 797.733 156.845 794.937 164.527 810.08C171.386 823.6 163.771 833.706 159.204 836.664C154.637 839.622 146.803 839.33 138.758 829.452Z" fill="white"/>
<path d="M184.497 820.077C180.371 811.915 183.653 803.408 187.088 799.966C193.959 793.082 206.866 793.376 210.706 808.115C214.134 821.275 205.557 828.643 201.002 830.347C196.447 832.051 189.654 830.279 184.497 820.077Z" fill="white"/>
<path d="M116.548 874.151C106.934 872.858 101.416 864.273 100.435 858.788C98.4714 847.818 106.393 835.687 121.61 841.468C135.197 846.63 136.572 859.54 135.363 864.979C134.154 870.419 128.565 875.768 116.548 874.151Z" fill="white"/>
<path d="M110.834 916.472C103.466 914.835 99.7556 907.945 99.3572 903.716C98.5605 895.259 105.504 886.595 116.919 892.021C127.111 896.865 127.323 906.753 126.027 910.798C124.73 914.842 120.043 918.519 110.834 916.472Z" fill="white"/>
<path d="M232.106 899.14C228.593 916.19 218.965 927.715 204.733 934.076C190.502 940.438 170.925 937.537 160.948 930.948C149.573 923.435 142.282 914.923 141.562 895.218C140.811 874.662 161.304 850.793 176.165 844.998C206.42 833.2 221.033 849.041 226.613 855.392C235.61 865.634 234.705 886.528 232.106 899.14Z" fill="white"/>
<path d="M124.329 370.718C116.262 367.523 113.24 359.393 113.514 354.769C114.062 345.52 123.415 337.558 135.418 345.613C146.135 352.805 144.68 363.478 142.517 367.575C140.354 371.671 134.413 374.711 124.329 370.718Z" fill="white"/>
<path d="M154.41 344.736C147.951 340.388 146.852 332.704 147.973 328.719C150.215 320.748 159.926 315.6 168.906 324.953C176.925 333.303 173.617 342.343 170.941 345.503C168.266 348.662 162.483 350.171 154.41 344.736Z" fill="white"/>
<path d="M126.415 413.159C118.735 416.196 111.066 412.112 108.057 408.446C102.037 401.113 102.878 388.807 116.586 386.775C128.825 384.961 135.214 393.979 136.578 398.523C137.942 403.066 136.014 409.363 126.415 413.159Z" fill="white"/>
<path d="M139.767 446.974C133.613 448.821 127.992 445.245 125.938 442.269C121.83 436.318 123.386 426.995 134.121 426.279C143.707 425.64 147.976 432.898 148.694 436.441C149.413 439.985 147.46 444.665 139.767 446.974Z" fill="white"/>
<path d="M222.651 383.676C227.13 397.802 224.769 410.367 216.841 421.01C208.914 431.653 193.165 437.638 183.014 436.891C171.44 436.039 162.484 432.748 153.756 418.409C144.651 403.45 149.951 377.198 158.581 366.714C176.152 345.37 193.594 351.062 200.38 353.46C211.322 357.327 219.337 373.226 222.651 383.676Z" fill="white"/>
<path d="M285.41 705.924C281.85 704.514 280.516 700.926 280.637 698.886C280.879 694.804 285.007 691.29 290.304 694.845C295.033 698.019 294.391 702.729 293.436 704.537C292.482 706.345 289.86 707.687 285.41 705.924Z" fill="white"/>
<path d="M298.685 694.458C295.835 692.54 295.35 689.148 295.845 687.39C296.834 683.872 301.12 681.6 305.083 685.728C308.622 689.413 307.162 693.402 305.981 694.797C304.8 696.191 302.248 696.857 298.685 694.458Z" fill="white"/>
<path d="M286.331 724.654C282.942 725.994 279.558 724.192 278.23 722.574C275.573 719.338 275.944 713.907 281.994 713.01C287.395 712.21 290.215 716.19 290.816 718.195C291.418 720.2 290.567 722.979 286.331 724.654Z" fill="white"/>
<path d="M292.223 739.577C289.507 740.392 287.027 738.814 286.12 737.5C284.307 734.874 284.994 730.76 289.732 730.444C293.962 730.162 295.846 733.365 296.163 734.929C296.48 736.492 295.618 738.558 292.223 739.577Z" fill="white"/>
<path d="M328.801 711.643C330.778 717.877 329.736 723.422 326.237 728.118C322.739 732.815 315.789 735.457 311.309 735.127C306.201 734.751 302.249 733.298 298.397 726.971C294.379 720.369 296.718 708.784 300.527 704.157C308.281 694.738 315.978 697.25 318.973 698.308C323.801 700.015 327.339 707.031 328.801 711.643Z" fill="white"/>
<path d="M233.495 156.362C229.465 154.521 228.137 150.295 228.398 147.944C228.92 143.242 233.899 139.426 239.809 143.85C245.086 147.799 244.063 153.204 242.853 155.236C241.642 157.268 238.533 158.663 233.495 156.362Z" fill="white"/>
<path d="M249.517 143.901C246.338 141.515 245.979 137.567 246.655 135.564C248.008 131.558 253.095 129.187 257.43 134.193C261.3 138.662 259.375 143.185 257.928 144.726C256.481 146.268 253.492 146.885 249.517 143.901Z" fill="white"/>
<path d="M233.444 178.061C229.448 179.408 225.644 177.125 224.205 175.176C221.328 171.278 222.08 165.024 229.124 164.348C235.413 163.744 238.435 168.511 239.011 170.864C239.587 173.217 238.439 176.377 233.444 178.061Z" fill="white"/>
<path d="M239.365 195.657C236.178 196.437 233.405 194.466 232.435 192.895C230.497 189.751 231.535 185.038 237.029 184.955C241.934 184.88 243.921 188.694 244.194 190.52C244.467 192.346 243.348 194.681 239.365 195.657Z" fill="white"/>
<path d="M283.297 165.551C285.21 172.873 283.676 179.219 279.354 184.439C275.032 189.659 266.843 192.297 261.686 191.65C255.806 190.912 251.325 188.998 247.25 181.456C242.999 173.589 246.391 160.339 251.068 155.219C260.589 144.795 269.335 148.156 272.733 149.557C278.211 151.817 281.882 160.135 283.297 165.551Z" fill="white"/>
<path d="M54.3298 68.6664C47.1765 64.33 45.614 56.1147 46.6195 51.7634C48.6303 43.0611 58.8038 36.9993 68.9149 46.5898C77.9427 55.1529 74.8396 65.0637 72.1237 68.6087C69.4078 72.1538 63.2713 74.0868 54.3298 68.6664Z" fill="white"/>
<path d="M87.1095 48.8164C81.6709 43.6432 81.8648 36.1622 83.5723 32.5546C86.9873 25.3394 97.0471 22.011 104.076 32.3477C110.353 41.577 105.752 49.6368 102.7 52.209C99.648 54.7812 93.9077 55.283 87.1095 48.8164Z" fill="white"/>
<path d="M49.4741 109.344C41.6854 110.993 35.054 105.876 32.7838 101.905C28.2436 93.9651 31.0258 82.4038 44.3829 82.6811C56.309 82.9286 60.9288 92.5304 61.493 97.0688C62.0573 101.607 59.2101 107.282 49.4741 109.344Z" fill="white"/>
<path d="M56.7167 143.636C50.5695 144.401 45.8026 140.096 44.3296 136.936C41.3835 130.617 44.3649 122.007 54.6846 123.056C63.8987 123.993 66.7873 131.579 66.8991 135.064C67.011 138.548 64.4007 142.681 56.7167 143.636Z" fill="white"/>
<path d="M145.7 96.8242C147.681 110.974 143.412 122.536 134.162 131.375C124.912 140.214 108.978 143.366 99.4498 141.02C88.5859 138.346 80.6038 133.774 74.6179 118.738C68.3735 103.053 77.6404 78.9532 87.5332 70.3785C107.673 52.9219 123.336 61.1427 129.399 64.5156C139.177 69.9542 144.234 86.3577 145.7 96.8242Z" fill="white"/>
<path d="M290.433 272.982C285.569 272.236 282.87 268.124 282.436 265.533C281.569 260.35 285.733 254.765 293.388 257.7C300.222 260.32 300.768 266.405 300.09 268.943C299.413 271.481 296.513 273.914 290.433 272.982Z" fill="white"/>
<path d="M303.776 254.813C299.656 253.226 298.076 249.117 298.192 246.772C298.423 242.082 303.14 238.007 309.288 242.042C314.777 245.644 314.092 251.06 313.013 253.145C311.934 255.23 308.927 256.796 303.776 254.813Z" fill="white"/>
<path d="M296.955 296.181C293.094 298.832 288.338 297.544 286.21 295.898C281.954 292.605 280.863 285.696 288.184 282.838C294.721 280.287 299.394 284.464 300.723 286.804C302.051 289.143 301.782 292.868 296.955 296.181Z" fill="white"/>
<path d="M308.614 313.186C305.446 314.986 301.886 313.72 300.374 312.335C297.35 309.564 297.031 304.214 302.875 302.46C308.093 300.894 311.372 304.366 312.217 306.234C313.063 308.103 312.575 310.937 308.614 313.186Z" fill="white"/>
<path d="M346.428 267.707C350.692 274.95 350.976 282.195 347.94 289.082C344.904 295.969 336.954 301.27 331.248 302.141C324.741 303.134 319.374 302.448 312.735 295.624C305.809 288.507 305.417 273.323 308.862 266.435C315.876 252.413 326.239 253.353 330.294 253.82C336.832 254.574 343.275 262.349 346.428 267.707Z" fill="white"/>
</svg>
