<svg width="647" height="101" viewBox="0 0 647 101" fill="none" xmlns="http://www.w3.org/2000/svg">
<g filter="url(#filter0_d)">
<mask id="path-1-outside-1" maskUnits="userSpaceOnUse" x="2.08496" y="0.402344" width="643" height="97" fill="black">
<rect fill="white" x="2.08496" y="0.402344" width="643" height="97"/>
<path d="M36.9922 30.7578C34.8411 30.7578 32.8438 31.2764 31 32.3135C29.1947 33.3122 27.6006 34.7142 26.2178 36.5195C24.8734 38.2865 23.8171 40.3799 23.0488 42.7998C22.2806 45.2197 21.8965 47.8125 21.8965 50.5781C21.8965 53.4206 22.5303 56.0518 23.7979 58.4717C25.1038 60.8532 26.89 62.9466 29.1562 64.752C31.4609 66.5189 34.1497 67.9017 37.2227 68.9004C40.334 69.8991 43.7142 70.3984 47.3633 70.3984C50.0137 70.3984 52.5104 70.168 54.8535 69.707C57.235 69.2077 59.3092 68.5547 61.0762 67.748C62.8431 66.9414 64.2451 66.0003 65.2822 64.9248C66.3193 63.8109 66.8379 62.6393 66.8379 61.4102C66.8379 60.4499 66.665 59.6624 66.3193 59.0479C65.9736 58.3949 65.5703 57.8187 65.1094 57.3193C64.6868 56.7816 64.3027 56.263 63.957 55.7637C63.6113 55.2259 63.4385 54.5537 63.4385 53.7471C63.4385 52.9788 63.6305 52.249 64.0146 51.5576C64.3988 50.8662 64.9173 50.2516 65.5703 49.7139C66.2617 49.1761 67.0299 48.7536 67.875 48.4463C68.7585 48.139 69.6611 47.9854 70.583 47.9854C71.6969 47.9854 72.734 48.2734 73.6943 48.8496C74.693 49.4258 75.5381 50.2324 76.2295 51.2695C76.9593 52.2682 77.5163 53.459 77.9004 54.8418C78.3229 56.1862 78.5342 57.6266 78.5342 59.1631C78.5342 62.2744 77.7083 65.1745 76.0566 67.8633C74.4049 70.5137 72.1195 72.7992 69.2002 74.7197C66.2809 76.6403 62.8239 78.1576 58.8291 79.2715C54.8343 80.347 50.4938 80.8848 45.8076 80.8848C40.6221 80.8848 35.8398 80.1934 31.4609 78.8105C27.082 77.3893 23.2985 75.4303 20.1104 72.9336C16.9606 70.4368 14.5023 67.4792 12.7354 64.0605C10.9684 60.6419 10.085 56.8968 10.085 52.8252C10.085 48.3695 10.8532 44.1634 12.3896 40.207C13.9645 36.2507 16.0964 32.7936 18.7852 29.8359C21.474 26.8783 24.6045 24.5352 28.1768 22.8066C31.7874 21.0781 35.6286 20.2139 39.7002 20.2139C41.5055 20.2139 43.1572 20.4251 44.6553 20.8477C46.1917 21.2318 47.5169 21.7887 48.6309 22.5186C49.7448 23.2484 50.609 24.1126 51.2236 25.1113C51.8766 26.0716 52.2031 27.1279 52.2031 28.2803C52.2031 29.2021 51.9919 30.0856 51.5693 30.9307C51.1852 31.7373 50.6667 32.4671 50.0137 33.1201C49.3607 33.7347 48.5924 34.234 47.709 34.6182C46.8639 35.0023 45.9613 35.1943 45.001 35.1943C44.0023 35.1943 43.1956 34.9639 42.5811 34.5029C42.0049 34.042 41.4671 33.5426 40.9678 33.0049C40.4684 32.4287 39.9307 31.9102 39.3545 31.4492C38.7783 30.9883 37.9909 30.7578 36.9922 30.7578Z"/>
<path d="M103.886 88.2021C99.6989 88.2021 95.8385 87.4915 92.3047 86.0703C88.8092 84.6491 85.7939 82.6709 83.2588 80.1357C80.7236 77.5622 78.7454 74.5085 77.3242 70.9746C75.903 67.4408 75.1924 63.542 75.1924 59.2783C75.1924 56.9736 75.3844 54.765 75.7686 52.6523C76.1911 50.5013 76.748 48.5039 77.4395 46.6602C77.7467 45.9303 77.9004 45.4118 77.9004 45.1045C77.9004 44.7204 77.8044 44.3555 77.6123 44.0098C77.4202 43.6641 77.209 43.2992 76.9785 42.915C76.748 42.5309 76.5368 42.1276 76.3447 41.7051C76.1527 41.2826 76.0566 40.8024 76.0566 40.2646C76.0566 38.6514 76.9785 37.0765 78.8223 35.54C80.666 33.9652 83.1051 32.5824 86.1396 31.3916C89.1742 30.1624 92.612 29.1829 96.4531 28.4531C100.294 27.6849 104.231 27.3008 108.265 27.3008C113.22 27.3008 117.675 27.9346 121.632 29.2021C125.627 30.4697 129.007 32.2943 131.772 34.6758C134.576 37.0189 136.728 39.8805 138.226 43.2607C139.724 46.641 140.473 50.4437 140.473 54.6689C140.473 59.3936 139.532 63.8109 137.649 67.9209C135.767 71.9925 133.174 75.5264 129.871 78.5225C126.606 81.5186 122.746 83.8809 118.29 85.6094C113.834 87.3379 109.033 88.2021 103.886 88.2021ZM128.892 56.916C128.892 53.9199 128.373 51.2311 127.336 48.8496C126.299 46.4681 124.801 44.4707 122.842 42.8574C120.883 41.2057 118.463 39.9574 115.582 39.1123C112.74 38.2288 109.513 37.7871 105.902 37.7871C99.5645 37.7871 94.7822 39.4004 91.5557 42.627C88.3675 45.8151 86.7734 50.5781 86.7734 56.916C86.7734 59.9889 87.2536 62.8122 88.2139 65.3857C89.1742 67.9209 90.5186 70.1104 92.2471 71.9541C93.9756 73.7594 96.0306 75.1807 98.4121 76.2178C100.832 77.2165 103.482 77.7158 106.363 77.7158C109.667 77.7158 112.701 77.2165 115.467 76.2178C118.232 75.1807 120.595 73.7402 122.554 71.8965C124.551 70.0527 126.107 67.8633 127.221 65.3281C128.335 62.7546 128.892 59.9505 128.892 56.916Z"/>
<path d="M160.927 52.1914C160.927 53.8047 161.004 55.4756 161.157 57.2041C161.311 58.9326 161.484 60.6611 161.676 62.3896C161.906 64.1182 162.098 65.8659 162.252 67.6328C162.406 69.3613 162.482 71.0706 162.482 72.7607C162.482 74.6429 161.829 76.1794 160.523 77.3701C159.217 78.5225 157.47 79.0986 155.28 79.0986C154.205 79.0986 153.187 78.7721 152.227 78.1191C151.305 77.4661 150.786 76.429 150.671 75.0078C150.479 73.2025 150.287 71.1859 150.095 68.958C149.941 66.6917 149.787 64.3678 149.634 61.9863C149.519 59.5664 149.403 57.1465 149.288 54.7266C149.173 52.2682 149.077 49.9251 149 47.6973C148.923 45.431 148.866 43.3568 148.827 41.4746C148.789 39.554 148.77 37.9408 148.77 36.6348C148.77 35.4824 148.846 34.3877 149 33.3506C149.154 32.3135 149.48 31.4108 149.979 30.6426C150.479 29.8743 151.151 29.2598 151.996 28.7988C152.88 28.3379 154.051 28.1074 155.511 28.1074C156.625 28.1074 157.873 28.5107 159.256 29.3174C160.639 30.0856 162.118 31.1419 163.692 32.4863C165.306 33.8307 167.015 35.3864 168.82 37.1533C170.626 38.8818 172.489 40.7064 174.409 42.627C176.33 44.5475 178.289 46.5065 180.286 48.5039C182.322 50.4629 184.377 52.3258 186.451 54.0928C187.373 54.8994 188.41 55.8405 189.562 56.916C190.753 57.9915 191.963 59.0094 193.192 59.9697C194.46 60.93 195.708 61.7559 196.938 62.4473C198.205 63.1003 199.415 63.4268 200.567 63.4268C201.643 63.4268 202.334 62.9658 202.642 62.0439C202.987 61.0837 203.16 59.5664 203.16 57.4922C203.16 55.9557 203.026 54.0544 202.757 51.7881C202.526 49.5218 202.181 47.1019 201.72 44.5283C201.259 41.9548 200.683 39.3812 199.991 36.8076C199.3 34.1956 198.512 31.8141 197.629 29.6631C197.437 29.2021 197.245 28.7604 197.053 28.3379C196.899 27.877 196.822 27.3776 196.822 26.8398C196.822 25.9564 197.11 25.1689 197.687 24.4775C198.263 23.7861 198.954 23.21 199.761 22.749C200.567 22.2881 201.412 21.9424 202.296 21.7119C203.179 21.443 203.909 21.3086 204.485 21.3086C205.753 21.3086 206.886 22 207.885 23.3828C208.883 24.7272 209.748 26.4941 210.478 28.6836C211.246 30.8346 211.88 33.2738 212.379 36.001C212.878 38.6898 213.282 41.3978 213.589 44.125C213.935 46.8522 214.165 49.4642 214.28 51.9609C214.434 54.4193 214.511 56.4743 214.511 58.126C214.511 61.2373 214.376 63.9837 214.107 66.3652C213.877 68.7083 213.358 70.6865 212.552 72.2998C211.784 73.9131 210.65 75.1423 209.152 75.9873C207.654 76.7939 205.657 77.1973 203.16 77.1973C201.163 77.1973 199.069 76.7939 196.88 75.9873C194.69 75.1423 192.463 74.0283 190.196 72.6455C187.968 71.2243 185.702 69.611 183.397 67.8057C181.131 66.0003 178.903 64.1182 176.714 62.1592C174.524 60.2002 172.393 58.2412 170.318 56.2822C168.283 54.3232 166.381 52.4987 164.614 50.8086C163.884 50.0788 163.212 49.7139 162.598 49.7139C162.06 49.7139 161.637 49.9443 161.33 50.4053C161.061 50.8278 160.927 51.4232 160.927 52.1914Z"/>
<path d="M248.793 21.4238C249.6 20.9245 250.425 20.5788 251.271 20.3867C252.116 20.1947 252.903 20.0986 253.633 20.0986C254.593 20.0986 255.457 20.2715 256.226 20.6172C256.994 20.9245 257.647 21.3278 258.185 21.8271C258.722 22.3265 259.126 22.9027 259.395 23.5557C259.702 24.1702 259.855 24.7848 259.855 25.3994C259.855 26.2445 259.567 27.0511 258.991 27.8193C258.453 28.5876 257.685 29.2406 256.687 29.7783C254.689 30.9307 253.018 31.9102 251.674 32.7168C250.329 33.5234 249.177 34.2533 248.217 34.9062C247.295 35.5592 246.488 36.1738 245.797 36.75C245.105 37.3262 244.414 37.96 243.723 38.6514C242.724 39.5732 241.764 40.6296 240.842 41.8203C239.92 43.0111 239.094 44.2018 238.364 45.3926C237.673 46.5449 237.097 47.6589 236.636 48.7344C236.213 49.8099 236.002 50.6934 236.002 51.3848C236.002 51.9609 236.156 52.4219 236.463 52.7676C236.77 53.1133 237.212 53.2861 237.788 53.2861C238.403 53.2861 239.075 53.0749 239.805 52.6523C242.148 51.3464 244.606 50.1748 247.18 49.1377C249.792 48.1006 252.423 47.2171 255.073 46.4873C257.724 45.7575 260.374 45.2197 263.024 44.874C265.675 44.4899 268.248 44.2979 270.745 44.2979C274.701 44.2979 278.331 44.7396 281.635 45.623C284.938 46.4681 287.781 47.6589 290.162 49.1953C292.544 50.7318 294.387 52.5947 295.693 54.7842C296.999 56.9352 297.652 59.2975 297.652 61.8711C297.652 64.752 296.826 67.5176 295.175 70.168C293.523 72.8184 291.257 75.1423 288.376 77.1396C285.495 79.137 282.096 80.7311 278.178 81.9219C274.26 83.1126 270.035 83.708 265.502 83.708C259.471 83.708 253.94 83.0742 248.908 81.8066C243.915 80.5775 239.613 78.849 236.002 76.6211C232.43 74.3932 229.645 71.7428 227.647 68.6699C225.688 65.5586 224.709 62.1592 224.709 58.4717C224.709 54.8226 225.208 51.2503 226.207 47.7549C227.244 44.221 228.761 40.8792 230.759 37.7295C232.795 34.5413 235.311 31.5837 238.307 28.8564C241.303 26.0908 244.798 23.6133 248.793 21.4238ZM286.071 63.8877C286.071 62.5817 285.649 61.391 284.804 60.3154C283.997 59.2399 282.845 58.318 281.347 57.5498C279.887 56.7816 278.101 56.1862 275.988 55.7637C273.914 55.3411 271.609 55.1299 269.074 55.1299C264.273 55.1299 259.567 55.8021 254.958 57.1465C250.387 58.4525 246.085 60.3538 242.052 62.8506C241.091 63.4652 240.611 64.2142 240.611 65.0977C240.611 65.7122 240.957 66.346 241.648 66.999C242.34 67.6136 243.281 68.209 244.472 68.7852C245.662 69.3613 247.064 69.9183 248.678 70.4561C250.291 70.9938 252 71.4548 253.806 71.8389C255.611 72.223 257.474 72.5303 259.395 72.7607C261.315 72.9912 263.197 73.1064 265.041 73.1064C267.999 73.1064 270.745 72.876 273.28 72.415C275.854 71.9157 278.082 71.2627 279.964 70.4561C281.884 69.611 283.382 68.6315 284.458 67.5176C285.534 66.4036 286.071 65.1937 286.071 63.8877Z"/>
<path d="M315.687 37.3262C314.918 37.6335 314.169 37.7871 313.439 37.7871C311.596 37.7871 310.328 36.6924 309.637 34.5029C309.445 33.9268 309.31 33.4466 309.233 33.0625C309.195 32.6784 309.176 32.3327 309.176 32.0254C309.176 30.2201 310.194 28.8757 312.229 27.9922C316.263 26.3789 320.373 25.0729 324.56 24.0742C328.746 23.0755 332.972 22.5762 337.235 22.5762C339.233 22.5762 341.192 22.7874 343.112 23.21C345.071 23.6325 346.819 24.3623 348.355 25.3994C349.892 26.4365 351.14 27.8193 352.101 29.5479C353.061 31.2764 353.541 33.4466 353.541 36.0586C353.541 37.9023 353.157 39.6693 352.389 41.3594C351.659 43.0495 350.679 44.6628 349.45 46.1992C348.221 47.7357 346.819 49.1953 345.244 50.5781C343.669 51.9609 342.056 53.2285 340.404 54.3809C338.753 55.5332 337.12 56.5895 335.507 57.5498C333.894 58.4717 332.434 59.2783 331.128 59.9697C330.014 60.6227 329.457 61.2949 329.457 61.9863C329.457 62.793 330.052 63.4268 331.243 63.8877C335.353 65.3473 339.559 66.7109 343.861 67.9785C348.163 69.2461 352.523 70.6673 356.94 72.2422C359.015 73.0104 360.052 74.2012 360.052 75.8145C360.052 76.5827 359.821 77.3701 359.36 78.1768C358.938 78.945 358.458 79.6556 357.92 80.3086C356.806 81.9603 355.423 82.7861 353.771 82.7861C353.195 82.7861 352.485 82.6709 351.64 82.4404C349.143 81.4801 346.454 80.4814 343.573 79.4443C340.731 78.4072 337.812 77.3893 334.815 76.3906C331.858 75.3535 328.938 74.374 326.058 73.4521C323.177 72.4919 320.507 71.6276 318.049 70.8594C317.165 70.6289 316.57 70.5137 316.263 70.5137C315.955 70.5137 315.706 70.5905 315.514 70.7441C315.36 70.8594 315.283 71.1283 315.283 71.5508C315.283 71.666 315.302 71.8197 315.341 72.0117C315.379 72.1654 315.398 72.3382 315.398 72.5303C315.514 73.1064 315.648 73.8747 315.802 74.835C315.994 75.7568 316.167 76.7171 316.32 77.7158C316.512 78.7145 316.666 79.6748 316.781 80.5967C316.896 81.4801 316.954 82.21 316.954 82.7861C316.954 84.9372 315.783 86.4352 313.439 87.2803L310.847 88.0869C310.463 88.2021 310.117 88.279 309.81 88.3174C309.502 88.3942 309.176 88.4326 308.83 88.4326C306.717 88.4326 305.488 87.1266 305.143 84.5146C304.221 77.5238 303.03 70.6289 301.57 63.8301C300.149 57.0312 298.517 50.2516 296.673 43.4912C296.558 43.1071 296.481 42.7806 296.442 42.5117C296.442 42.2044 296.442 41.9355 296.442 41.7051C296.442 39.6693 297.537 38.2865 299.727 37.5566C300.533 37.2878 301.186 37.0765 301.686 36.9229C302.223 36.7692 302.646 36.654 302.953 36.5771C303.299 36.4619 303.549 36.3851 303.702 36.3467C303.894 36.3083 304.067 36.2891 304.221 36.2891C306.295 36.2891 307.639 37.4606 308.254 39.8037C309.061 42.7998 309.81 45.6999 310.501 48.5039C311.231 51.3079 311.884 54.0736 312.46 56.8008C312.767 58.1452 313.324 58.8174 314.131 58.8174C314.361 58.8174 314.63 58.779 314.938 58.7021C315.245 58.5869 315.61 58.4333 316.032 58.2412C317.261 57.5882 318.74 56.7816 320.469 55.8213C322.236 54.861 324.06 53.8047 325.942 52.6523C327.863 51.4616 329.745 50.2132 331.589 48.9072C333.471 47.6012 335.142 46.2952 336.602 44.9893C338.1 43.6833 339.31 42.3965 340.231 41.1289C341.153 39.8613 341.614 38.6706 341.614 37.5566C341.614 36.8652 341.499 36.2314 341.269 35.6553C341.076 35.0791 340.692 34.5798 340.116 34.1572C339.54 33.7347 338.753 33.4082 337.754 33.1777C336.794 32.9473 335.564 32.832 334.066 32.832C332.607 32.832 331.07 32.9665 329.457 33.2354C327.882 33.4658 326.307 33.7923 324.732 34.2148C323.158 34.6374 321.602 35.1175 320.065 35.6553C318.529 36.193 317.069 36.75 315.687 37.3262Z"/>
<path d="M360.052 69.5342C359.399 69.5342 358.899 69.2077 358.554 68.5547C358.246 67.9017 358.093 66.9798 358.093 65.7891C358.093 65.597 358.093 65.3857 358.093 65.1553C358.093 64.8864 358.131 64.387 358.208 63.6572C358.323 60.8916 359.687 59.2783 362.299 58.8174L363.624 58.7021C364.507 58.5869 365.199 58.318 365.698 57.8955C366.198 57.4346 366.562 56.8008 366.793 55.9941C367.446 53.8047 368.099 51.596 368.752 49.3682C369.405 47.1403 370.096 44.9316 370.826 42.7422C371.21 41.513 371.594 40.207 371.979 38.8242C372.401 37.403 372.843 36.001 373.304 34.6182C373.803 33.2354 374.36 31.8717 374.975 30.5273C375.628 29.1829 376.357 27.9538 377.164 26.8398C377.51 26.3789 377.99 25.8988 378.604 25.3994C379.219 24.9001 379.91 24.4583 380.679 24.0742C381.485 23.6517 382.33 23.3252 383.214 23.0947C384.136 22.8258 385.038 22.6914 385.922 22.6914C387.074 22.6914 388.207 23.0563 389.321 23.7861C390.819 24.8232 392.298 26.0716 393.758 27.5312C395.217 28.9909 396.85 30.8538 398.655 33.1201C400.461 35.3864 402.554 38.1328 404.936 41.3594C407.317 44.5475 410.179 48.4079 413.521 52.9404C414.02 53.5166 414.538 53.9583 415.076 54.2656C415.652 54.5345 416.325 54.6689 417.093 54.6689H420.377C421.721 54.6689 422.758 54.9954 423.488 55.6484C424.257 56.263 424.641 57.1273 424.641 58.2412C424.641 58.4717 424.621 58.7406 424.583 59.0479C424.583 59.3551 424.525 59.6624 424.41 59.9697L423.315 63.1963C423.239 63.5036 423.181 63.7725 423.143 64.0029C423.104 64.2334 423.085 64.4639 423.085 64.6943C423.085 65.501 423.354 66.3268 423.892 67.1719L430.057 75.584C430.748 76.6211 431.094 77.6006 431.094 78.5225C431.094 79.9053 430.306 81.1152 428.731 82.1523L426.542 83.708C426.004 84.0537 425.486 84.3226 424.986 84.5146C424.525 84.7067 424.045 84.8027 423.546 84.8027C422.854 84.8027 422.201 84.5915 421.587 84.1689C421.011 83.7848 420.454 83.2471 419.916 82.5557C418.072 79.9437 416.209 77.3701 414.327 74.835C412.483 72.2998 410.601 69.7839 408.681 67.2871C407.797 66.0579 406.626 65.4434 405.166 65.4434C400.48 65.6354 395.832 65.9043 391.223 66.25C386.652 66.5573 382.062 66.9414 377.452 67.4023C375.8 67.556 374.763 68.4395 374.341 70.0527L371.748 79.5596C371.057 82.0947 369.52 83.3623 367.139 83.3623H366.217L364.431 83.1318C363.125 83.0166 362.126 82.6133 361.435 81.9219C360.782 81.2305 360.455 80.3278 360.455 79.2139C360.455 78.9834 360.474 78.7337 360.513 78.4648C360.551 78.196 360.609 77.9079 360.686 77.6006C360.878 76.8324 361.07 76.0449 361.262 75.2383C361.492 74.4316 361.723 73.6442 361.953 72.876C362.03 72.5687 362.088 72.2998 362.126 72.0693C362.164 71.8005 362.184 71.5508 362.184 71.3203C362.184 70.1296 361.723 69.5342 360.801 69.5342H360.052ZM387.478 39.1123C387.093 38.7666 386.748 38.4785 386.44 38.248C386.133 38.0176 385.807 37.9023 385.461 37.9023C384.501 37.9023 383.828 38.5745 383.444 39.9189C382.676 42.1852 381.927 44.4323 381.197 46.6602C380.506 48.8496 379.795 51.0967 379.065 53.4014C378.989 53.5934 378.95 53.7663 378.95 53.9199C378.95 54.0736 378.95 54.2464 378.95 54.4385C378.95 55.8597 379.699 56.5703 381.197 56.5703H381.773C384.078 56.263 386.383 56.0326 388.688 55.8789C390.992 55.6868 393.297 55.5332 395.602 55.418C396.37 55.3411 396.965 55.1491 397.388 54.8418C397.849 54.4961 398.079 54.0544 398.079 53.5166C398.079 53.0173 397.849 52.4219 397.388 51.7305C395.774 49.5794 394.142 47.4668 392.49 45.3926C390.877 43.2799 389.206 41.1865 387.478 39.1123Z"/>
<path d="M440.889 33.1201C440.581 33.1201 439.986 33.1969 439.103 33.3506C438.257 33.4658 437.259 33.6195 436.106 33.8115C434.954 34.0036 433.744 34.234 432.477 34.5029C431.209 34.7334 430.018 34.9447 428.904 35.1367C427.79 35.3288 426.83 35.5016 426.023 35.6553C425.178 35.7705 424.621 35.8281 424.353 35.8281C421.779 35.8281 420.492 34.4837 420.492 31.7949C420.492 31.0651 420.569 30.3545 420.723 29.6631C420.838 28.9333 421.068 28.2803 421.414 27.7041C421.76 27.0895 422.221 26.571 422.797 26.1484C423.373 25.7259 424.103 25.4378 424.986 25.2842C429.48 24.5928 433.955 23.863 438.411 23.0947C442.867 22.3265 447.361 21.5199 451.894 20.6748C452.892 20.4827 453.795 20.3099 454.602 20.1562C455.408 19.9642 456.311 19.7145 457.31 19.4072C458.385 19.0999 459.557 18.8118 460.824 18.543C462.092 18.2357 463.359 17.9668 464.627 17.7363C465.933 17.5059 467.181 17.3138 468.372 17.1602C469.601 17.0065 470.715 16.9297 471.714 16.9297C472.943 16.9297 473.865 17.333 474.479 18.1396C475.132 18.9079 475.459 20.0026 475.459 21.4238C475.459 22.1536 475.401 22.8643 475.286 23.5557C475.171 24.2087 474.96 24.804 474.652 25.3418C474.345 25.8796 473.923 26.3213 473.385 26.667C472.847 27.0127 472.156 27.224 471.311 27.3008C469.121 27.6081 466.778 27.9922 464.281 28.4531C461.785 28.8757 459.614 29.3558 457.771 29.8936C457.002 30.124 456.426 30.5081 456.042 31.0459C455.658 31.5452 455.408 32.179 455.293 32.9473C455.178 33.6771 455.101 34.4261 455.062 35.1943C455.062 35.9242 455.062 36.6348 455.062 37.3262C455.062 38.9395 455.12 40.5527 455.235 42.166C455.389 43.7793 455.523 45.3926 455.639 47.0059C455.984 52.5371 456.503 58.0107 457.194 63.4268C457.924 68.8428 458.712 74.3164 459.557 79.8477C459.633 80.0397 459.672 80.2318 459.672 80.4238C459.672 80.6159 459.672 80.8079 459.672 81C459.672 83.1126 458.481 84.6107 456.1 85.4941L453.507 86.3008C452.815 86.5312 452.143 86.6465 451.49 86.6465C450.492 86.6465 449.685 86.32 449.07 85.667C448.456 85.0524 448.052 84.1305 447.86 82.9014C446.785 76.2946 445.844 69.7262 445.037 63.1963C444.23 56.6279 443.712 50.0212 443.481 43.376C443.405 42.3005 443.347 41.1289 443.309 39.8613C443.27 38.5938 443.251 37.2878 443.251 35.9434C443.251 34.0612 442.464 33.1201 440.889 33.1201Z"/>
<path d="M487.731 57.377C487.731 59.6816 488.288 61.8327 489.402 63.8301C490.555 65.7891 492.053 67.5176 493.896 69.0156C495.74 70.4753 497.853 71.6276 500.234 72.4727C502.616 73.2793 505.055 73.6826 507.552 73.6826C508.32 73.6826 509.107 73.625 509.914 73.5098C510.721 73.3561 511.451 73.1064 512.104 72.7607C512.757 72.415 513.294 71.9733 513.717 71.4355C514.139 70.8594 514.351 70.1488 514.351 69.3037C514.351 67.6904 513.774 66.0964 512.622 64.5215C511.508 62.9466 510.029 61.391 508.186 59.8545C506.342 58.2796 504.229 56.724 501.848 55.1875C499.466 53.6126 497.046 52.057 494.588 50.5205C492.13 48.984 489.71 47.4476 487.328 45.9111C484.947 44.3363 482.834 42.7806 480.99 41.2441C479.146 39.6693 477.648 38.0944 476.496 36.5195C475.382 34.9062 474.825 33.293 474.825 31.6797C474.825 30.1432 475.209 28.722 475.978 27.416C476.784 26.0716 477.84 24.8617 479.146 23.7861C480.452 22.7106 481.97 21.7503 483.698 20.9053C485.427 20.0602 487.232 19.3496 489.114 18.7734C490.996 18.1973 492.879 17.7747 494.761 17.5059C496.681 17.1986 498.506 17.0449 500.234 17.0449C501.502 17.0449 502.885 17.0833 504.383 17.1602C505.919 17.1986 507.34 17.3714 508.646 17.6787C509.991 17.9476 511.105 18.3701 511.988 18.9463C512.872 19.5225 513.313 20.3483 513.313 21.4238C513.313 21.7695 513.256 22.2113 513.141 22.749C513.025 23.2484 512.699 24.0934 512.161 25.2842C511.623 26.3981 510.99 27.2432 510.26 27.8193C509.568 28.3571 508.666 28.626 507.552 28.626C505.977 28.626 504.306 28.4531 502.539 28.1074C500.811 27.7233 499.063 27.5312 497.296 27.5312C496.336 27.5312 495.356 27.5889 494.357 27.7041C493.397 27.7809 492.514 27.9538 491.707 28.2227C490.9 28.4531 490.247 28.818 489.748 29.3174C489.249 29.7783 488.999 30.3737 488.999 31.1035C488.999 31.8333 489.518 32.6592 490.555 33.5811C491.63 34.5029 493.032 35.5208 494.761 36.6348C496.528 37.7487 498.525 38.9779 500.753 40.3223C502.981 41.6283 505.247 43.0495 507.552 44.5859C509.895 46.084 512.18 47.6973 514.408 49.4258C516.636 51.1159 518.614 52.9212 520.343 54.8418C522.11 56.724 523.512 58.7214 524.549 60.834C525.624 62.9466 526.162 65.1361 526.162 67.4023C526.162 70.168 525.528 72.6071 524.261 74.7197C522.993 76.8324 521.361 78.5993 519.363 80.0205C517.366 81.4417 515.157 82.498 512.737 83.1895C510.317 83.9193 507.955 84.2842 505.65 84.2842C503.307 84.2842 500.926 83.9961 498.506 83.4199C496.124 82.8822 493.82 82.0947 491.592 81.0576C489.364 80.0589 487.271 78.849 485.312 77.4277C483.391 75.9681 481.72 74.3548 480.299 72.5879C478.878 70.7826 477.744 68.8428 476.899 66.7686C476.093 64.6943 475.689 62.5241 475.689 60.2578C475.689 59.2975 475.747 58.3372 475.862 57.377C476.016 56.3783 476.266 55.514 476.611 54.7842C476.957 54.016 477.437 53.4014 478.052 52.9404C478.666 52.4411 479.454 52.1914 480.414 52.1914C480.721 52.1914 481.067 52.2298 481.451 52.3066C481.835 52.3451 482.507 52.5179 483.468 52.8252C484.582 53.1709 485.561 53.7279 486.406 54.4961C487.29 55.2259 487.731 56.1862 487.731 57.377Z"/>
<path d="M558.082 14.9131C557.928 14.3753 557.794 13.8952 557.679 13.4727C557.602 13.0501 557.563 12.6276 557.563 12.2051C557.563 11.1296 557.89 10.2269 558.543 9.49707C559.234 8.76725 560.252 8.40234 561.597 8.40234C567.55 8.40234 570.815 9.82357 571.392 12.666C572.083 16.2767 572.717 19.9066 573.293 23.5557C573.869 27.2048 574.368 30.9115 574.791 34.6758C575.252 38.4017 575.598 42.2044 575.828 46.084C576.097 49.9251 576.231 53.8623 576.231 57.8955C576.231 58.6637 576.193 59.4128 576.116 60.1426C576.039 60.834 575.886 61.4678 575.655 62.0439C575.425 62.5817 575.098 63.0234 574.676 63.3691C574.292 63.7148 573.754 63.8877 573.062 63.8877L568.223 63.1963C567.224 63.0811 566.513 62.793 566.091 62.332C565.707 61.8327 565.476 61.1413 565.399 60.2578C565.092 53.2285 564.324 45.8727 563.095 38.1904C561.866 30.5081 560.195 22.749 558.082 14.9131ZM569.951 85.8398C568.837 85.8398 567.781 85.667 566.782 85.3213C565.822 85.014 564.977 84.5531 564.247 83.9385C563.556 83.3623 562.999 82.6709 562.576 81.8643C562.154 81.0576 561.942 80.1742 561.942 79.2139C561.942 77.6006 562.576 76.2946 563.844 75.2959C565.15 74.2972 566.878 73.7979 569.029 73.7979C570.028 73.7979 570.988 73.9899 571.91 74.374C572.832 74.7197 573.639 75.1999 574.33 75.8145C575.06 76.429 575.636 77.1589 576.059 78.0039C576.481 78.8105 576.692 79.6556 576.692 80.5391C576.692 82.1908 576.078 83.4775 574.849 84.3994C573.658 85.3597 572.025 85.8398 569.951 85.8398Z"/>
<path d="M588.043 14.9131C587.889 14.3753 587.755 13.8952 587.64 13.4727C587.563 13.0501 587.524 12.6276 587.524 12.2051C587.524 11.1296 587.851 10.2269 588.504 9.49707C589.195 8.76725 590.213 8.40234 591.558 8.40234C597.511 8.40234 600.776 9.82357 601.353 12.666C602.044 16.2767 602.678 19.9066 603.254 23.5557C603.83 27.2048 604.329 30.9115 604.752 34.6758C605.213 38.4017 605.559 42.2044 605.789 46.084C606.058 49.9251 606.192 53.8623 606.192 57.8955C606.192 58.6637 606.154 59.4128 606.077 60.1426C606 60.834 605.847 61.4678 605.616 62.0439C605.386 62.5817 605.059 63.0234 604.637 63.3691C604.253 63.7148 603.715 63.8877 603.023 63.8877L598.184 63.1963C597.185 63.0811 596.474 62.793 596.052 62.332C595.668 61.8327 595.437 61.1413 595.36 60.2578C595.053 53.2285 594.285 45.8727 593.056 38.1904C591.826 30.5081 590.156 22.749 588.043 14.9131ZM599.912 85.8398C598.798 85.8398 597.742 85.667 596.743 85.3213C595.783 85.014 594.938 84.5531 594.208 83.9385C593.517 83.3623 592.96 82.6709 592.537 81.8643C592.115 81.0576 591.903 80.1742 591.903 79.2139C591.903 77.6006 592.537 76.2946 593.805 75.2959C595.111 74.2972 596.839 73.7979 598.99 73.7979C599.989 73.7979 600.949 73.9899 601.871 74.374C602.793 74.7197 603.6 75.1999 604.291 75.8145C605.021 76.429 605.597 77.1589 606.02 78.0039C606.442 78.8105 606.653 79.6556 606.653 80.5391C606.653 82.1908 606.039 83.4775 604.81 84.3994C603.619 85.3597 601.986 85.8398 599.912 85.8398Z"/>
<path d="M618.004 14.9131C617.85 14.3753 617.716 13.8952 617.601 13.4727C617.524 13.0501 617.485 12.6276 617.485 12.2051C617.485 11.1296 617.812 10.2269 618.465 9.49707C619.156 8.76725 620.174 8.40234 621.519 8.40234C627.472 8.40234 630.737 9.82357 631.313 12.666C632.005 16.2767 632.639 19.9066 633.215 23.5557C633.791 27.2048 634.29 30.9115 634.713 34.6758C635.174 38.4017 635.52 42.2044 635.75 46.084C636.019 49.9251 636.153 53.8623 636.153 57.8955C636.153 58.6637 636.115 59.4128 636.038 60.1426C635.961 60.834 635.808 61.4678 635.577 62.0439C635.347 62.5817 635.02 63.0234 634.598 63.3691C634.214 63.7148 633.676 63.8877 632.984 63.8877L628.145 63.1963C627.146 63.0811 626.435 62.793 626.013 62.332C625.629 61.8327 625.398 61.1413 625.321 60.2578C625.014 53.2285 624.246 45.8727 623.017 38.1904C621.787 30.5081 620.117 22.749 618.004 14.9131ZM629.873 85.8398C628.759 85.8398 627.703 85.667 626.704 85.3213C625.744 85.014 624.899 84.5531 624.169 83.9385C623.478 83.3623 622.921 82.6709 622.498 81.8643C622.076 81.0576 621.864 80.1742 621.864 79.2139C621.864 77.6006 622.498 76.2946 623.766 75.2959C625.072 74.2972 626.8 73.7979 628.951 73.7979C629.95 73.7979 630.91 73.9899 631.832 74.374C632.754 74.7197 633.561 75.1999 634.252 75.8145C634.982 76.429 635.558 77.1589 635.98 78.0039C636.403 78.8105 636.614 79.6556 636.614 80.5391C636.614 82.1908 636 83.4775 634.771 84.3994C633.58 85.3597 631.947 85.8398 629.873 85.8398Z"/>
</mask>
<path d="M36.9922 30.7578C34.8411 30.7578 32.8438 31.2764 31 32.3135C29.1947 33.3122 27.6006 34.7142 26.2178 36.5195C24.8734 38.2865 23.8171 40.3799 23.0488 42.7998C22.2806 45.2197 21.8965 47.8125 21.8965 50.5781C21.8965 53.4206 22.5303 56.0518 23.7979 58.4717C25.1038 60.8532 26.89 62.9466 29.1562 64.752C31.4609 66.5189 34.1497 67.9017 37.2227 68.9004C40.334 69.8991 43.7142 70.3984 47.3633 70.3984C50.0137 70.3984 52.5104 70.168 54.8535 69.707C57.235 69.2077 59.3092 68.5547 61.0762 67.748C62.8431 66.9414 64.2451 66.0003 65.2822 64.9248C66.3193 63.8109 66.8379 62.6393 66.8379 61.4102C66.8379 60.4499 66.665 59.6624 66.3193 59.0479C65.9736 58.3949 65.5703 57.8187 65.1094 57.3193C64.6868 56.7816 64.3027 56.263 63.957 55.7637C63.6113 55.2259 63.4385 54.5537 63.4385 53.7471C63.4385 52.9788 63.6305 52.249 64.0146 51.5576C64.3988 50.8662 64.9173 50.2516 65.5703 49.7139C66.2617 49.1761 67.0299 48.7536 67.875 48.4463C68.7585 48.139 69.6611 47.9854 70.583 47.9854C71.6969 47.9854 72.734 48.2734 73.6943 48.8496C74.693 49.4258 75.5381 50.2324 76.2295 51.2695C76.9593 52.2682 77.5163 53.459 77.9004 54.8418C78.3229 56.1862 78.5342 57.6266 78.5342 59.1631C78.5342 62.2744 77.7083 65.1745 76.0566 67.8633C74.4049 70.5137 72.1195 72.7992 69.2002 74.7197C66.2809 76.6403 62.8239 78.1576 58.8291 79.2715C54.8343 80.347 50.4938 80.8848 45.8076 80.8848C40.6221 80.8848 35.8398 80.1934 31.4609 78.8105C27.082 77.3893 23.2985 75.4303 20.1104 72.9336C16.9606 70.4368 14.5023 67.4792 12.7354 64.0605C10.9684 60.6419 10.085 56.8968 10.085 52.8252C10.085 48.3695 10.8532 44.1634 12.3896 40.207C13.9645 36.2507 16.0964 32.7936 18.7852 29.8359C21.474 26.8783 24.6045 24.5352 28.1768 22.8066C31.7874 21.0781 35.6286 20.2139 39.7002 20.2139C41.5055 20.2139 43.1572 20.4251 44.6553 20.8477C46.1917 21.2318 47.5169 21.7887 48.6309 22.5186C49.7448 23.2484 50.609 24.1126 51.2236 25.1113C51.8766 26.0716 52.2031 27.1279 52.2031 28.2803C52.2031 29.2021 51.9919 30.0856 51.5693 30.9307C51.1852 31.7373 50.6667 32.4671 50.0137 33.1201C49.3607 33.7347 48.5924 34.234 47.709 34.6182C46.8639 35.0023 45.9613 35.1943 45.001 35.1943C44.0023 35.1943 43.1956 34.9639 42.5811 34.5029C42.0049 34.042 41.4671 33.5426 40.9678 33.0049C40.4684 32.4287 39.9307 31.9102 39.3545 31.4492C38.7783 30.9883 37.9909 30.7578 36.9922 30.7578Z" fill="#936766"/>
<path d="M103.886 88.2021C99.6989 88.2021 95.8385 87.4915 92.3047 86.0703C88.8092 84.6491 85.7939 82.6709 83.2588 80.1357C80.7236 77.5622 78.7454 74.5085 77.3242 70.9746C75.903 67.4408 75.1924 63.542 75.1924 59.2783C75.1924 56.9736 75.3844 54.765 75.7686 52.6523C76.1911 50.5013 76.748 48.5039 77.4395 46.6602C77.7467 45.9303 77.9004 45.4118 77.9004 45.1045C77.9004 44.7204 77.8044 44.3555 77.6123 44.0098C77.4202 43.6641 77.209 43.2992 76.9785 42.915C76.748 42.5309 76.5368 42.1276 76.3447 41.7051C76.1527 41.2826 76.0566 40.8024 76.0566 40.2646C76.0566 38.6514 76.9785 37.0765 78.8223 35.54C80.666 33.9652 83.1051 32.5824 86.1396 31.3916C89.1742 30.1624 92.612 29.1829 96.4531 28.4531C100.294 27.6849 104.231 27.3008 108.265 27.3008C113.22 27.3008 117.675 27.9346 121.632 29.2021C125.627 30.4697 129.007 32.2943 131.772 34.6758C134.576 37.0189 136.728 39.8805 138.226 43.2607C139.724 46.641 140.473 50.4437 140.473 54.6689C140.473 59.3936 139.532 63.8109 137.649 67.9209C135.767 71.9925 133.174 75.5264 129.871 78.5225C126.606 81.5186 122.746 83.8809 118.29 85.6094C113.834 87.3379 109.033 88.2021 103.886 88.2021ZM128.892 56.916C128.892 53.9199 128.373 51.2311 127.336 48.8496C126.299 46.4681 124.801 44.4707 122.842 42.8574C120.883 41.2057 118.463 39.9574 115.582 39.1123C112.74 38.2288 109.513 37.7871 105.902 37.7871C99.5645 37.7871 94.7822 39.4004 91.5557 42.627C88.3675 45.8151 86.7734 50.5781 86.7734 56.916C86.7734 59.9889 87.2536 62.8122 88.2139 65.3857C89.1742 67.9209 90.5186 70.1104 92.2471 71.9541C93.9756 73.7594 96.0306 75.1807 98.4121 76.2178C100.832 77.2165 103.482 77.7158 106.363 77.7158C109.667 77.7158 112.701 77.2165 115.467 76.2178C118.232 75.1807 120.595 73.7402 122.554 71.8965C124.551 70.0527 126.107 67.8633 127.221 65.3281C128.335 62.7546 128.892 59.9505 128.892 56.916Z" fill="#936766"/>
<path d="M160.927 52.1914C160.927 53.8047 161.004 55.4756 161.157 57.2041C161.311 58.9326 161.484 60.6611 161.676 62.3896C161.906 64.1182 162.098 65.8659 162.252 67.6328C162.406 69.3613 162.482 71.0706 162.482 72.7607C162.482 74.6429 161.829 76.1794 160.523 77.3701C159.217 78.5225 157.47 79.0986 155.28 79.0986C154.205 79.0986 153.187 78.7721 152.227 78.1191C151.305 77.4661 150.786 76.429 150.671 75.0078C150.479 73.2025 150.287 71.1859 150.095 68.958C149.941 66.6917 149.787 64.3678 149.634 61.9863C149.519 59.5664 149.403 57.1465 149.288 54.7266C149.173 52.2682 149.077 49.9251 149 47.6973C148.923 45.431 148.866 43.3568 148.827 41.4746C148.789 39.554 148.77 37.9408 148.77 36.6348C148.77 35.4824 148.846 34.3877 149 33.3506C149.154 32.3135 149.48 31.4108 149.979 30.6426C150.479 29.8743 151.151 29.2598 151.996 28.7988C152.88 28.3379 154.051 28.1074 155.511 28.1074C156.625 28.1074 157.873 28.5107 159.256 29.3174C160.639 30.0856 162.118 31.1419 163.692 32.4863C165.306 33.8307 167.015 35.3864 168.82 37.1533C170.626 38.8818 172.489 40.7064 174.409 42.627C176.33 44.5475 178.289 46.5065 180.286 48.5039C182.322 50.4629 184.377 52.3258 186.451 54.0928C187.373 54.8994 188.41 55.8405 189.562 56.916C190.753 57.9915 191.963 59.0094 193.192 59.9697C194.46 60.93 195.708 61.7559 196.938 62.4473C198.205 63.1003 199.415 63.4268 200.567 63.4268C201.643 63.4268 202.334 62.9658 202.642 62.0439C202.987 61.0837 203.16 59.5664 203.16 57.4922C203.16 55.9557 203.026 54.0544 202.757 51.7881C202.526 49.5218 202.181 47.1019 201.72 44.5283C201.259 41.9548 200.683 39.3812 199.991 36.8076C199.3 34.1956 198.512 31.8141 197.629 29.6631C197.437 29.2021 197.245 28.7604 197.053 28.3379C196.899 27.877 196.822 27.3776 196.822 26.8398C196.822 25.9564 197.11 25.1689 197.687 24.4775C198.263 23.7861 198.954 23.21 199.761 22.749C200.567 22.2881 201.412 21.9424 202.296 21.7119C203.179 21.443 203.909 21.3086 204.485 21.3086C205.753 21.3086 206.886 22 207.885 23.3828C208.883 24.7272 209.748 26.4941 210.478 28.6836C211.246 30.8346 211.88 33.2738 212.379 36.001C212.878 38.6898 213.282 41.3978 213.589 44.125C213.935 46.8522 214.165 49.4642 214.28 51.9609C214.434 54.4193 214.511 56.4743 214.511 58.126C214.511 61.2373 214.376 63.9837 214.107 66.3652C213.877 68.7083 213.358 70.6865 212.552 72.2998C211.784 73.9131 210.65 75.1423 209.152 75.9873C207.654 76.7939 205.657 77.1973 203.16 77.1973C201.163 77.1973 199.069 76.7939 196.88 75.9873C194.69 75.1423 192.463 74.0283 190.196 72.6455C187.968 71.2243 185.702 69.611 183.397 67.8057C181.131 66.0003 178.903 64.1182 176.714 62.1592C174.524 60.2002 172.393 58.2412 170.318 56.2822C168.283 54.3232 166.381 52.4987 164.614 50.8086C163.884 50.0788 163.212 49.7139 162.598 49.7139C162.06 49.7139 161.637 49.9443 161.33 50.4053C161.061 50.8278 160.927 51.4232 160.927 52.1914Z" fill="#936766"/>
<path d="M248.793 21.4238C249.6 20.9245 250.425 20.5788 251.271 20.3867C252.116 20.1947 252.903 20.0986 253.633 20.0986C254.593 20.0986 255.457 20.2715 256.226 20.6172C256.994 20.9245 257.647 21.3278 258.185 21.8271C258.722 22.3265 259.126 22.9027 259.395 23.5557C259.702 24.1702 259.855 24.7848 259.855 25.3994C259.855 26.2445 259.567 27.0511 258.991 27.8193C258.453 28.5876 257.685 29.2406 256.687 29.7783C254.689 30.9307 253.018 31.9102 251.674 32.7168C250.329 33.5234 249.177 34.2533 248.217 34.9062C247.295 35.5592 246.488 36.1738 245.797 36.75C245.105 37.3262 244.414 37.96 243.723 38.6514C242.724 39.5732 241.764 40.6296 240.842 41.8203C239.92 43.0111 239.094 44.2018 238.364 45.3926C237.673 46.5449 237.097 47.6589 236.636 48.7344C236.213 49.8099 236.002 50.6934 236.002 51.3848C236.002 51.9609 236.156 52.4219 236.463 52.7676C236.77 53.1133 237.212 53.2861 237.788 53.2861C238.403 53.2861 239.075 53.0749 239.805 52.6523C242.148 51.3464 244.606 50.1748 247.18 49.1377C249.792 48.1006 252.423 47.2171 255.073 46.4873C257.724 45.7575 260.374 45.2197 263.024 44.874C265.675 44.4899 268.248 44.2979 270.745 44.2979C274.701 44.2979 278.331 44.7396 281.635 45.623C284.938 46.4681 287.781 47.6589 290.162 49.1953C292.544 50.7318 294.387 52.5947 295.693 54.7842C296.999 56.9352 297.652 59.2975 297.652 61.8711C297.652 64.752 296.826 67.5176 295.175 70.168C293.523 72.8184 291.257 75.1423 288.376 77.1396C285.495 79.137 282.096 80.7311 278.178 81.9219C274.26 83.1126 270.035 83.708 265.502 83.708C259.471 83.708 253.94 83.0742 248.908 81.8066C243.915 80.5775 239.613 78.849 236.002 76.6211C232.43 74.3932 229.645 71.7428 227.647 68.6699C225.688 65.5586 224.709 62.1592 224.709 58.4717C224.709 54.8226 225.208 51.2503 226.207 47.7549C227.244 44.221 228.761 40.8792 230.759 37.7295C232.795 34.5413 235.311 31.5837 238.307 28.8564C241.303 26.0908 244.798 23.6133 248.793 21.4238ZM286.071 63.8877C286.071 62.5817 285.649 61.391 284.804 60.3154C283.997 59.2399 282.845 58.318 281.347 57.5498C279.887 56.7816 278.101 56.1862 275.988 55.7637C273.914 55.3411 271.609 55.1299 269.074 55.1299C264.273 55.1299 259.567 55.8021 254.958 57.1465C250.387 58.4525 246.085 60.3538 242.052 62.8506C241.091 63.4652 240.611 64.2142 240.611 65.0977C240.611 65.7122 240.957 66.346 241.648 66.999C242.34 67.6136 243.281 68.209 244.472 68.7852C245.662 69.3613 247.064 69.9183 248.678 70.4561C250.291 70.9938 252 71.4548 253.806 71.8389C255.611 72.223 257.474 72.5303 259.395 72.7607C261.315 72.9912 263.197 73.1064 265.041 73.1064C267.999 73.1064 270.745 72.876 273.28 72.415C275.854 71.9157 278.082 71.2627 279.964 70.4561C281.884 69.611 283.382 68.6315 284.458 67.5176C285.534 66.4036 286.071 65.1937 286.071 63.8877Z" fill="#936766"/>
<path d="M315.687 37.3262C314.918 37.6335 314.169 37.7871 313.439 37.7871C311.596 37.7871 310.328 36.6924 309.637 34.5029C309.445 33.9268 309.31 33.4466 309.233 33.0625C309.195 32.6784 309.176 32.3327 309.176 32.0254C309.176 30.2201 310.194 28.8757 312.229 27.9922C316.263 26.3789 320.373 25.0729 324.56 24.0742C328.746 23.0755 332.972 22.5762 337.235 22.5762C339.233 22.5762 341.192 22.7874 343.112 23.21C345.071 23.6325 346.819 24.3623 348.355 25.3994C349.892 26.4365 351.14 27.8193 352.101 29.5479C353.061 31.2764 353.541 33.4466 353.541 36.0586C353.541 37.9023 353.157 39.6693 352.389 41.3594C351.659 43.0495 350.679 44.6628 349.45 46.1992C348.221 47.7357 346.819 49.1953 345.244 50.5781C343.669 51.9609 342.056 53.2285 340.404 54.3809C338.753 55.5332 337.12 56.5895 335.507 57.5498C333.894 58.4717 332.434 59.2783 331.128 59.9697C330.014 60.6227 329.457 61.2949 329.457 61.9863C329.457 62.793 330.052 63.4268 331.243 63.8877C335.353 65.3473 339.559 66.7109 343.861 67.9785C348.163 69.2461 352.523 70.6673 356.94 72.2422C359.015 73.0104 360.052 74.2012 360.052 75.8145C360.052 76.5827 359.821 77.3701 359.36 78.1768C358.938 78.945 358.458 79.6556 357.92 80.3086C356.806 81.9603 355.423 82.7861 353.771 82.7861C353.195 82.7861 352.485 82.6709 351.64 82.4404C349.143 81.4801 346.454 80.4814 343.573 79.4443C340.731 78.4072 337.812 77.3893 334.815 76.3906C331.858 75.3535 328.938 74.374 326.058 73.4521C323.177 72.4919 320.507 71.6276 318.049 70.8594C317.165 70.6289 316.57 70.5137 316.263 70.5137C315.955 70.5137 315.706 70.5905 315.514 70.7441C315.36 70.8594 315.283 71.1283 315.283 71.5508C315.283 71.666 315.302 71.8197 315.341 72.0117C315.379 72.1654 315.398 72.3382 315.398 72.5303C315.514 73.1064 315.648 73.8747 315.802 74.835C315.994 75.7568 316.167 76.7171 316.32 77.7158C316.512 78.7145 316.666 79.6748 316.781 80.5967C316.896 81.4801 316.954 82.21 316.954 82.7861C316.954 84.9372 315.783 86.4352 313.439 87.2803L310.847 88.0869C310.463 88.2021 310.117 88.279 309.81 88.3174C309.502 88.3942 309.176 88.4326 308.83 88.4326C306.717 88.4326 305.488 87.1266 305.143 84.5146C304.221 77.5238 303.03 70.6289 301.57 63.8301C300.149 57.0312 298.517 50.2516 296.673 43.4912C296.558 43.1071 296.481 42.7806 296.442 42.5117C296.442 42.2044 296.442 41.9355 296.442 41.7051C296.442 39.6693 297.537 38.2865 299.727 37.5566C300.533 37.2878 301.186 37.0765 301.686 36.9229C302.223 36.7692 302.646 36.654 302.953 36.5771C303.299 36.4619 303.549 36.3851 303.702 36.3467C303.894 36.3083 304.067 36.2891 304.221 36.2891C306.295 36.2891 307.639 37.4606 308.254 39.8037C309.061 42.7998 309.81 45.6999 310.501 48.5039C311.231 51.3079 311.884 54.0736 312.46 56.8008C312.767 58.1452 313.324 58.8174 314.131 58.8174C314.361 58.8174 314.63 58.779 314.938 58.7021C315.245 58.5869 315.61 58.4333 316.032 58.2412C317.261 57.5882 318.74 56.7816 320.469 55.8213C322.236 54.861 324.06 53.8047 325.942 52.6523C327.863 51.4616 329.745 50.2132 331.589 48.9072C333.471 47.6012 335.142 46.2952 336.602 44.9893C338.1 43.6833 339.31 42.3965 340.231 41.1289C341.153 39.8613 341.614 38.6706 341.614 37.5566C341.614 36.8652 341.499 36.2314 341.269 35.6553C341.076 35.0791 340.692 34.5798 340.116 34.1572C339.54 33.7347 338.753 33.4082 337.754 33.1777C336.794 32.9473 335.564 32.832 334.066 32.832C332.607 32.832 331.07 32.9665 329.457 33.2354C327.882 33.4658 326.307 33.7923 324.732 34.2148C323.158 34.6374 321.602 35.1175 320.065 35.6553C318.529 36.193 317.069 36.75 315.687 37.3262Z" fill="#936766"/>
<path d="M360.052 69.5342C359.399 69.5342 358.899 69.2077 358.554 68.5547C358.246 67.9017 358.093 66.9798 358.093 65.7891C358.093 65.597 358.093 65.3857 358.093 65.1553C358.093 64.8864 358.131 64.387 358.208 63.6572C358.323 60.8916 359.687 59.2783 362.299 58.8174L363.624 58.7021C364.507 58.5869 365.199 58.318 365.698 57.8955C366.198 57.4346 366.562 56.8008 366.793 55.9941C367.446 53.8047 368.099 51.596 368.752 49.3682C369.405 47.1403 370.096 44.9316 370.826 42.7422C371.21 41.513 371.594 40.207 371.979 38.8242C372.401 37.403 372.843 36.001 373.304 34.6182C373.803 33.2354 374.36 31.8717 374.975 30.5273C375.628 29.1829 376.357 27.9538 377.164 26.8398C377.51 26.3789 377.99 25.8988 378.604 25.3994C379.219 24.9001 379.91 24.4583 380.679 24.0742C381.485 23.6517 382.33 23.3252 383.214 23.0947C384.136 22.8258 385.038 22.6914 385.922 22.6914C387.074 22.6914 388.207 23.0563 389.321 23.7861C390.819 24.8232 392.298 26.0716 393.758 27.5312C395.217 28.9909 396.85 30.8538 398.655 33.1201C400.461 35.3864 402.554 38.1328 404.936 41.3594C407.317 44.5475 410.179 48.4079 413.521 52.9404C414.02 53.5166 414.538 53.9583 415.076 54.2656C415.652 54.5345 416.325 54.6689 417.093 54.6689H420.377C421.721 54.6689 422.758 54.9954 423.488 55.6484C424.257 56.263 424.641 57.1273 424.641 58.2412C424.641 58.4717 424.621 58.7406 424.583 59.0479C424.583 59.3551 424.525 59.6624 424.41 59.9697L423.315 63.1963C423.239 63.5036 423.181 63.7725 423.143 64.0029C423.104 64.2334 423.085 64.4639 423.085 64.6943C423.085 65.501 423.354 66.3268 423.892 67.1719L430.057 75.584C430.748 76.6211 431.094 77.6006 431.094 78.5225C431.094 79.9053 430.306 81.1152 428.731 82.1523L426.542 83.708C426.004 84.0537 425.486 84.3226 424.986 84.5146C424.525 84.7067 424.045 84.8027 423.546 84.8027C422.854 84.8027 422.201 84.5915 421.587 84.1689C421.011 83.7848 420.454 83.2471 419.916 82.5557C418.072 79.9437 416.209 77.3701 414.327 74.835C412.483 72.2998 410.601 69.7839 408.681 67.2871C407.797 66.0579 406.626 65.4434 405.166 65.4434C400.48 65.6354 395.832 65.9043 391.223 66.25C386.652 66.5573 382.062 66.9414 377.452 67.4023C375.8 67.556 374.763 68.4395 374.341 70.0527L371.748 79.5596C371.057 82.0947 369.52 83.3623 367.139 83.3623H366.217L364.431 83.1318C363.125 83.0166 362.126 82.6133 361.435 81.9219C360.782 81.2305 360.455 80.3278 360.455 79.2139C360.455 78.9834 360.474 78.7337 360.513 78.4648C360.551 78.196 360.609 77.9079 360.686 77.6006C360.878 76.8324 361.07 76.0449 361.262 75.2383C361.492 74.4316 361.723 73.6442 361.953 72.876C362.03 72.5687 362.088 72.2998 362.126 72.0693C362.164 71.8005 362.184 71.5508 362.184 71.3203C362.184 70.1296 361.723 69.5342 360.801 69.5342H360.052ZM387.478 39.1123C387.093 38.7666 386.748 38.4785 386.44 38.248C386.133 38.0176 385.807 37.9023 385.461 37.9023C384.501 37.9023 383.828 38.5745 383.444 39.9189C382.676 42.1852 381.927 44.4323 381.197 46.6602C380.506 48.8496 379.795 51.0967 379.065 53.4014C378.989 53.5934 378.95 53.7663 378.95 53.9199C378.95 54.0736 378.95 54.2464 378.95 54.4385C378.95 55.8597 379.699 56.5703 381.197 56.5703H381.773C384.078 56.263 386.383 56.0326 388.688 55.8789C390.992 55.6868 393.297 55.5332 395.602 55.418C396.37 55.3411 396.965 55.1491 397.388 54.8418C397.849 54.4961 398.079 54.0544 398.079 53.5166C398.079 53.0173 397.849 52.4219 397.388 51.7305C395.774 49.5794 394.142 47.4668 392.49 45.3926C390.877 43.2799 389.206 41.1865 387.478 39.1123Z" fill="#936766"/>
<path d="M440.889 33.1201C440.581 33.1201 439.986 33.1969 439.103 33.3506C438.257 33.4658 437.259 33.6195 436.106 33.8115C434.954 34.0036 433.744 34.234 432.477 34.5029C431.209 34.7334 430.018 34.9447 428.904 35.1367C427.79 35.3288 426.83 35.5016 426.023 35.6553C425.178 35.7705 424.621 35.8281 424.353 35.8281C421.779 35.8281 420.492 34.4837 420.492 31.7949C420.492 31.0651 420.569 30.3545 420.723 29.6631C420.838 28.9333 421.068 28.2803 421.414 27.7041C421.76 27.0895 422.221 26.571 422.797 26.1484C423.373 25.7259 424.103 25.4378 424.986 25.2842C429.48 24.5928 433.955 23.863 438.411 23.0947C442.867 22.3265 447.361 21.5199 451.894 20.6748C452.892 20.4827 453.795 20.3099 454.602 20.1562C455.408 19.9642 456.311 19.7145 457.31 19.4072C458.385 19.0999 459.557 18.8118 460.824 18.543C462.092 18.2357 463.359 17.9668 464.627 17.7363C465.933 17.5059 467.181 17.3138 468.372 17.1602C469.601 17.0065 470.715 16.9297 471.714 16.9297C472.943 16.9297 473.865 17.333 474.479 18.1396C475.132 18.9079 475.459 20.0026 475.459 21.4238C475.459 22.1536 475.401 22.8643 475.286 23.5557C475.171 24.2087 474.96 24.804 474.652 25.3418C474.345 25.8796 473.923 26.3213 473.385 26.667C472.847 27.0127 472.156 27.224 471.311 27.3008C469.121 27.6081 466.778 27.9922 464.281 28.4531C461.785 28.8757 459.614 29.3558 457.771 29.8936C457.002 30.124 456.426 30.5081 456.042 31.0459C455.658 31.5452 455.408 32.179 455.293 32.9473C455.178 33.6771 455.101 34.4261 455.062 35.1943C455.062 35.9242 455.062 36.6348 455.062 37.3262C455.062 38.9395 455.12 40.5527 455.235 42.166C455.389 43.7793 455.523 45.3926 455.639 47.0059C455.984 52.5371 456.503 58.0107 457.194 63.4268C457.924 68.8428 458.712 74.3164 459.557 79.8477C459.633 80.0397 459.672 80.2318 459.672 80.4238C459.672 80.6159 459.672 80.8079 459.672 81C459.672 83.1126 458.481 84.6107 456.1 85.4941L453.507 86.3008C452.815 86.5312 452.143 86.6465 451.49 86.6465C450.492 86.6465 449.685 86.32 449.07 85.667C448.456 85.0524 448.052 84.1305 447.86 82.9014C446.785 76.2946 445.844 69.7262 445.037 63.1963C444.23 56.6279 443.712 50.0212 443.481 43.376C443.405 42.3005 443.347 41.1289 443.309 39.8613C443.27 38.5938 443.251 37.2878 443.251 35.9434C443.251 34.0612 442.464 33.1201 440.889 33.1201Z" fill="#936766"/>
<path d="M487.731 57.377C487.731 59.6816 488.288 61.8327 489.402 63.8301C490.555 65.7891 492.053 67.5176 493.896 69.0156C495.74 70.4753 497.853 71.6276 500.234 72.4727C502.616 73.2793 505.055 73.6826 507.552 73.6826C508.32 73.6826 509.107 73.625 509.914 73.5098C510.721 73.3561 511.451 73.1064 512.104 72.7607C512.757 72.415 513.294 71.9733 513.717 71.4355C514.139 70.8594 514.351 70.1488 514.351 69.3037C514.351 67.6904 513.774 66.0964 512.622 64.5215C511.508 62.9466 510.029 61.391 508.186 59.8545C506.342 58.2796 504.229 56.724 501.848 55.1875C499.466 53.6126 497.046 52.057 494.588 50.5205C492.13 48.984 489.71 47.4476 487.328 45.9111C484.947 44.3363 482.834 42.7806 480.99 41.2441C479.146 39.6693 477.648 38.0944 476.496 36.5195C475.382 34.9062 474.825 33.293 474.825 31.6797C474.825 30.1432 475.209 28.722 475.978 27.416C476.784 26.0716 477.84 24.8617 479.146 23.7861C480.452 22.7106 481.97 21.7503 483.698 20.9053C485.427 20.0602 487.232 19.3496 489.114 18.7734C490.996 18.1973 492.879 17.7747 494.761 17.5059C496.681 17.1986 498.506 17.0449 500.234 17.0449C501.502 17.0449 502.885 17.0833 504.383 17.1602C505.919 17.1986 507.34 17.3714 508.646 17.6787C509.991 17.9476 511.105 18.3701 511.988 18.9463C512.872 19.5225 513.313 20.3483 513.313 21.4238C513.313 21.7695 513.256 22.2113 513.141 22.749C513.025 23.2484 512.699 24.0934 512.161 25.2842C511.623 26.3981 510.99 27.2432 510.26 27.8193C509.568 28.3571 508.666 28.626 507.552 28.626C505.977 28.626 504.306 28.4531 502.539 28.1074C500.811 27.7233 499.063 27.5312 497.296 27.5312C496.336 27.5312 495.356 27.5889 494.357 27.7041C493.397 27.7809 492.514 27.9538 491.707 28.2227C490.9 28.4531 490.247 28.818 489.748 29.3174C489.249 29.7783 488.999 30.3737 488.999 31.1035C488.999 31.8333 489.518 32.6592 490.555 33.5811C491.63 34.5029 493.032 35.5208 494.761 36.6348C496.528 37.7487 498.525 38.9779 500.753 40.3223C502.981 41.6283 505.247 43.0495 507.552 44.5859C509.895 46.084 512.18 47.6973 514.408 49.4258C516.636 51.1159 518.614 52.9212 520.343 54.8418C522.11 56.724 523.512 58.7214 524.549 60.834C525.624 62.9466 526.162 65.1361 526.162 67.4023C526.162 70.168 525.528 72.6071 524.261 74.7197C522.993 76.8324 521.361 78.5993 519.363 80.0205C517.366 81.4417 515.157 82.498 512.737 83.1895C510.317 83.9193 507.955 84.2842 505.65 84.2842C503.307 84.2842 500.926 83.9961 498.506 83.4199C496.124 82.8822 493.82 82.0947 491.592 81.0576C489.364 80.0589 487.271 78.849 485.312 77.4277C483.391 75.9681 481.72 74.3548 480.299 72.5879C478.878 70.7826 477.744 68.8428 476.899 66.7686C476.093 64.6943 475.689 62.5241 475.689 60.2578C475.689 59.2975 475.747 58.3372 475.862 57.377C476.016 56.3783 476.266 55.514 476.611 54.7842C476.957 54.016 477.437 53.4014 478.052 52.9404C478.666 52.4411 479.454 52.1914 480.414 52.1914C480.721 52.1914 481.067 52.2298 481.451 52.3066C481.835 52.3451 482.507 52.5179 483.468 52.8252C484.582 53.1709 485.561 53.7279 486.406 54.4961C487.29 55.2259 487.731 56.1862 487.731 57.377Z" fill="#936766"/>
<path d="M558.082 14.9131C557.928 14.3753 557.794 13.8952 557.679 13.4727C557.602 13.0501 557.563 12.6276 557.563 12.2051C557.563 11.1296 557.89 10.2269 558.543 9.49707C559.234 8.76725 560.252 8.40234 561.597 8.40234C567.55 8.40234 570.815 9.82357 571.392 12.666C572.083 16.2767 572.717 19.9066 573.293 23.5557C573.869 27.2048 574.368 30.9115 574.791 34.6758C575.252 38.4017 575.598 42.2044 575.828 46.084C576.097 49.9251 576.231 53.8623 576.231 57.8955C576.231 58.6637 576.193 59.4128 576.116 60.1426C576.039 60.834 575.886 61.4678 575.655 62.0439C575.425 62.5817 575.098 63.0234 574.676 63.3691C574.292 63.7148 573.754 63.8877 573.062 63.8877L568.223 63.1963C567.224 63.0811 566.513 62.793 566.091 62.332C565.707 61.8327 565.476 61.1413 565.399 60.2578C565.092 53.2285 564.324 45.8727 563.095 38.1904C561.866 30.5081 560.195 22.749 558.082 14.9131ZM569.951 85.8398C568.837 85.8398 567.781 85.667 566.782 85.3213C565.822 85.014 564.977 84.5531 564.247 83.9385C563.556 83.3623 562.999 82.6709 562.576 81.8643C562.154 81.0576 561.942 80.1742 561.942 79.2139C561.942 77.6006 562.576 76.2946 563.844 75.2959C565.15 74.2972 566.878 73.7979 569.029 73.7979C570.028 73.7979 570.988 73.9899 571.91 74.374C572.832 74.7197 573.639 75.1999 574.33 75.8145C575.06 76.429 575.636 77.1589 576.059 78.0039C576.481 78.8105 576.692 79.6556 576.692 80.5391C576.692 82.1908 576.078 83.4775 574.849 84.3994C573.658 85.3597 572.025 85.8398 569.951 85.8398Z" fill="#936766"/>
<path d="M588.043 14.9131C587.889 14.3753 587.755 13.8952 587.64 13.4727C587.563 13.0501 587.524 12.6276 587.524 12.2051C587.524 11.1296 587.851 10.2269 588.504 9.49707C589.195 8.76725 590.213 8.40234 591.558 8.40234C597.511 8.40234 600.776 9.82357 601.353 12.666C602.044 16.2767 602.678 19.9066 603.254 23.5557C603.83 27.2048 604.329 30.9115 604.752 34.6758C605.213 38.4017 605.559 42.2044 605.789 46.084C606.058 49.9251 606.192 53.8623 606.192 57.8955C606.192 58.6637 606.154 59.4128 606.077 60.1426C606 60.834 605.847 61.4678 605.616 62.0439C605.386 62.5817 605.059 63.0234 604.637 63.3691C604.253 63.7148 603.715 63.8877 603.023 63.8877L598.184 63.1963C597.185 63.0811 596.474 62.793 596.052 62.332C595.668 61.8327 595.437 61.1413 595.36 60.2578C595.053 53.2285 594.285 45.8727 593.056 38.1904C591.826 30.5081 590.156 22.749 588.043 14.9131ZM599.912 85.8398C598.798 85.8398 597.742 85.667 596.743 85.3213C595.783 85.014 594.938 84.5531 594.208 83.9385C593.517 83.3623 592.96 82.6709 592.537 81.8643C592.115 81.0576 591.903 80.1742 591.903 79.2139C591.903 77.6006 592.537 76.2946 593.805 75.2959C595.111 74.2972 596.839 73.7979 598.99 73.7979C599.989 73.7979 600.949 73.9899 601.871 74.374C602.793 74.7197 603.6 75.1999 604.291 75.8145C605.021 76.429 605.597 77.1589 606.02 78.0039C606.442 78.8105 606.653 79.6556 606.653 80.5391C606.653 82.1908 606.039 83.4775 604.81 84.3994C603.619 85.3597 601.986 85.8398 599.912 85.8398Z" fill="#936766"/>
<path d="M618.004 14.9131C617.85 14.3753 617.716 13.8952 617.601 13.4727C617.524 13.0501 617.485 12.6276 617.485 12.2051C617.485 11.1296 617.812 10.2269 618.465 9.49707C619.156 8.76725 620.174 8.40234 621.519 8.40234C627.472 8.40234 630.737 9.82357 631.313 12.666C632.005 16.2767 632.639 19.9066 633.215 23.5557C633.791 27.2048 634.29 30.9115 634.713 34.6758C635.174 38.4017 635.52 42.2044 635.75 46.084C636.019 49.9251 636.153 53.8623 636.153 57.8955C636.153 58.6637 636.115 59.4128 636.038 60.1426C635.961 60.834 635.808 61.4678 635.577 62.0439C635.347 62.5817 635.02 63.0234 634.598 63.3691C634.214 63.7148 633.676 63.8877 632.984 63.8877L628.145 63.1963C627.146 63.0811 626.435 62.793 626.013 62.332C625.629 61.8327 625.398 61.1413 625.321 60.2578C625.014 53.2285 624.246 45.8727 623.017 38.1904C621.787 30.5081 620.117 22.749 618.004 14.9131ZM629.873 85.8398C628.759 85.8398 627.703 85.667 626.704 85.3213C625.744 85.014 624.899 84.5531 624.169 83.9385C623.478 83.3623 622.921 82.6709 622.498 81.8643C622.076 81.0576 621.864 80.1742 621.864 79.2139C621.864 77.6006 622.498 76.2946 623.766 75.2959C625.072 74.2972 626.8 73.7979 628.951 73.7979C629.95 73.7979 630.91 73.9899 631.832 74.374C632.754 74.7197 633.561 75.1999 634.252 75.8145C634.982 76.429 635.558 77.1589 635.98 78.0039C636.403 78.8105 636.614 79.6556 636.614 80.5391C636.614 82.1908 636 83.4775 634.771 84.3994C633.58 85.3597 631.947 85.8398 629.873 85.8398Z" fill="#936766"/>
<path d="M36.9922 30.7578C34.8411 30.7578 32.8438 31.2764 31 32.3135C29.1947 33.3122 27.6006 34.7142 26.2178 36.5195C24.8734 38.2865 23.8171 40.3799 23.0488 42.7998C22.2806 45.2197 21.8965 47.8125 21.8965 50.5781C21.8965 53.4206 22.5303 56.0518 23.7979 58.4717C25.1038 60.8532 26.89 62.9466 29.1562 64.752C31.4609 66.5189 34.1497 67.9017 37.2227 68.9004C40.334 69.8991 43.7142 70.3984 47.3633 70.3984C50.0137 70.3984 52.5104 70.168 54.8535 69.707C57.235 69.2077 59.3092 68.5547 61.0762 67.748C62.8431 66.9414 64.2451 66.0003 65.2822 64.9248C66.3193 63.8109 66.8379 62.6393 66.8379 61.4102C66.8379 60.4499 66.665 59.6624 66.3193 59.0479C65.9736 58.3949 65.5703 57.8187 65.1094 57.3193C64.6868 56.7816 64.3027 56.263 63.957 55.7637C63.6113 55.2259 63.4385 54.5537 63.4385 53.7471C63.4385 52.9788 63.6305 52.249 64.0146 51.5576C64.3988 50.8662 64.9173 50.2516 65.5703 49.7139C66.2617 49.1761 67.0299 48.7536 67.875 48.4463C68.7585 48.139 69.6611 47.9854 70.583 47.9854C71.6969 47.9854 72.734 48.2734 73.6943 48.8496C74.693 49.4258 75.5381 50.2324 76.2295 51.2695C76.9593 52.2682 77.5163 53.459 77.9004 54.8418C78.3229 56.1862 78.5342 57.6266 78.5342 59.1631C78.5342 62.2744 77.7083 65.1745 76.0566 67.8633C74.4049 70.5137 72.1195 72.7992 69.2002 74.7197C66.2809 76.6403 62.8239 78.1576 58.8291 79.2715C54.8343 80.347 50.4938 80.8848 45.8076 80.8848C40.6221 80.8848 35.8398 80.1934 31.4609 78.8105C27.082 77.3893 23.2985 75.4303 20.1104 72.9336C16.9606 70.4368 14.5023 67.4792 12.7354 64.0605C10.9684 60.6419 10.085 56.8968 10.085 52.8252C10.085 48.3695 10.8532 44.1634 12.3896 40.207C13.9645 36.2507 16.0964 32.7936 18.7852 29.8359C21.474 26.8783 24.6045 24.5352 28.1768 22.8066C31.7874 21.0781 35.6286 20.2139 39.7002 20.2139C41.5055 20.2139 43.1572 20.4251 44.6553 20.8477C46.1917 21.2318 47.5169 21.7887 48.6309 22.5186C49.7448 23.2484 50.609 24.1126 51.2236 25.1113C51.8766 26.0716 52.2031 27.1279 52.2031 28.2803C52.2031 29.2021 51.9919 30.0856 51.5693 30.9307C51.1852 31.7373 50.6667 32.4671 50.0137 33.1201C49.3607 33.7347 48.5924 34.234 47.709 34.6182C46.8639 35.0023 45.9613 35.1943 45.001 35.1943C44.0023 35.1943 43.1956 34.9639 42.5811 34.5029C42.0049 34.042 41.4671 33.5426 40.9678 33.0049C40.4684 32.4287 39.9307 31.9102 39.3545 31.4492C38.7783 30.9883 37.9909 30.7578 36.9922 30.7578Z" stroke="white" stroke-width="16" mask="url(#path-1-outside-1)"/>
<path d="M103.886 88.2021C99.6989 88.2021 95.8385 87.4915 92.3047 86.0703C88.8092 84.6491 85.7939 82.6709 83.2588 80.1357C80.7236 77.5622 78.7454 74.5085 77.3242 70.9746C75.903 67.4408 75.1924 63.542 75.1924 59.2783C75.1924 56.9736 75.3844 54.765 75.7686 52.6523C76.1911 50.5013 76.748 48.5039 77.4395 46.6602C77.7467 45.9303 77.9004 45.4118 77.9004 45.1045C77.9004 44.7204 77.8044 44.3555 77.6123 44.0098C77.4202 43.6641 77.209 43.2992 76.9785 42.915C76.748 42.5309 76.5368 42.1276 76.3447 41.7051C76.1527 41.2826 76.0566 40.8024 76.0566 40.2646C76.0566 38.6514 76.9785 37.0765 78.8223 35.54C80.666 33.9652 83.1051 32.5824 86.1396 31.3916C89.1742 30.1624 92.612 29.1829 96.4531 28.4531C100.294 27.6849 104.231 27.3008 108.265 27.3008C113.22 27.3008 117.675 27.9346 121.632 29.2021C125.627 30.4697 129.007 32.2943 131.772 34.6758C134.576 37.0189 136.728 39.8805 138.226 43.2607C139.724 46.641 140.473 50.4437 140.473 54.6689C140.473 59.3936 139.532 63.8109 137.649 67.9209C135.767 71.9925 133.174 75.5264 129.871 78.5225C126.606 81.5186 122.746 83.8809 118.29 85.6094C113.834 87.3379 109.033 88.2021 103.886 88.2021ZM128.892 56.916C128.892 53.9199 128.373 51.2311 127.336 48.8496C126.299 46.4681 124.801 44.4707 122.842 42.8574C120.883 41.2057 118.463 39.9574 115.582 39.1123C112.74 38.2288 109.513 37.7871 105.902 37.7871C99.5645 37.7871 94.7822 39.4004 91.5557 42.627C88.3675 45.8151 86.7734 50.5781 86.7734 56.916C86.7734 59.9889 87.2536 62.8122 88.2139 65.3857C89.1742 67.9209 90.5186 70.1104 92.2471 71.9541C93.9756 73.7594 96.0306 75.1807 98.4121 76.2178C100.832 77.2165 103.482 77.7158 106.363 77.7158C109.667 77.7158 112.701 77.2165 115.467 76.2178C118.232 75.1807 120.595 73.7402 122.554 71.8965C124.551 70.0527 126.107 67.8633 127.221 65.3281C128.335 62.7546 128.892 59.9505 128.892 56.916Z" stroke="white" stroke-width="16" mask="url(#path-1-outside-1)"/>
<path d="M160.927 52.1914C160.927 53.8047 161.004 55.4756 161.157 57.2041C161.311 58.9326 161.484 60.6611 161.676 62.3896C161.906 64.1182 162.098 65.8659 162.252 67.6328C162.406 69.3613 162.482 71.0706 162.482 72.7607C162.482 74.6429 161.829 76.1794 160.523 77.3701C159.217 78.5225 157.47 79.0986 155.28 79.0986C154.205 79.0986 153.187 78.7721 152.227 78.1191C151.305 77.4661 150.786 76.429 150.671 75.0078C150.479 73.2025 150.287 71.1859 150.095 68.958C149.941 66.6917 149.787 64.3678 149.634 61.9863C149.519 59.5664 149.403 57.1465 149.288 54.7266C149.173 52.2682 149.077 49.9251 149 47.6973C148.923 45.431 148.866 43.3568 148.827 41.4746C148.789 39.554 148.77 37.9408 148.77 36.6348C148.77 35.4824 148.846 34.3877 149 33.3506C149.154 32.3135 149.48 31.4108 149.979 30.6426C150.479 29.8743 151.151 29.2598 151.996 28.7988C152.88 28.3379 154.051 28.1074 155.511 28.1074C156.625 28.1074 157.873 28.5107 159.256 29.3174C160.639 30.0856 162.118 31.1419 163.692 32.4863C165.306 33.8307 167.015 35.3864 168.82 37.1533C170.626 38.8818 172.489 40.7064 174.409 42.627C176.33 44.5475 178.289 46.5065 180.286 48.5039C182.322 50.4629 184.377 52.3258 186.451 54.0928C187.373 54.8994 188.41 55.8405 189.562 56.916C190.753 57.9915 191.963 59.0094 193.192 59.9697C194.46 60.93 195.708 61.7559 196.938 62.4473C198.205 63.1003 199.415 63.4268 200.567 63.4268C201.643 63.4268 202.334 62.9658 202.642 62.0439C202.987 61.0837 203.16 59.5664 203.16 57.4922C203.16 55.9557 203.026 54.0544 202.757 51.7881C202.526 49.5218 202.181 47.1019 201.72 44.5283C201.259 41.9548 200.683 39.3812 199.991 36.8076C199.3 34.1956 198.512 31.8141 197.629 29.6631C197.437 29.2021 197.245 28.7604 197.053 28.3379C196.899 27.877 196.822 27.3776 196.822 26.8398C196.822 25.9564 197.11 25.1689 197.687 24.4775C198.263 23.7861 198.954 23.21 199.761 22.749C200.567 22.2881 201.412 21.9424 202.296 21.7119C203.179 21.443 203.909 21.3086 204.485 21.3086C205.753 21.3086 206.886 22 207.885 23.3828C208.883 24.7272 209.748 26.4941 210.478 28.6836C211.246 30.8346 211.88 33.2738 212.379 36.001C212.878 38.6898 213.282 41.3978 213.589 44.125C213.935 46.8522 214.165 49.4642 214.28 51.9609C214.434 54.4193 214.511 56.4743 214.511 58.126C214.511 61.2373 214.376 63.9837 214.107 66.3652C213.877 68.7083 213.358 70.6865 212.552 72.2998C211.784 73.9131 210.65 75.1423 209.152 75.9873C207.654 76.7939 205.657 77.1973 203.16 77.1973C201.163 77.1973 199.069 76.7939 196.88 75.9873C194.69 75.1423 192.463 74.0283 190.196 72.6455C187.968 71.2243 185.702 69.611 183.397 67.8057C181.131 66.0003 178.903 64.1182 176.714 62.1592C174.524 60.2002 172.393 58.2412 170.318 56.2822C168.283 54.3232 166.381 52.4987 164.614 50.8086C163.884 50.0788 163.212 49.7139 162.598 49.7139C162.06 49.7139 161.637 49.9443 161.33 50.4053C161.061 50.8278 160.927 51.4232 160.927 52.1914Z" stroke="white" stroke-width="16" mask="url(#path-1-outside-1)"/>
<path d="M248.793 21.4238C249.6 20.9245 250.425 20.5788 251.271 20.3867C252.116 20.1947 252.903 20.0986 253.633 20.0986C254.593 20.0986 255.457 20.2715 256.226 20.6172C256.994 20.9245 257.647 21.3278 258.185 21.8271C258.722 22.3265 259.126 22.9027 259.395 23.5557C259.702 24.1702 259.855 24.7848 259.855 25.3994C259.855 26.2445 259.567 27.0511 258.991 27.8193C258.453 28.5876 257.685 29.2406 256.687 29.7783C254.689 30.9307 253.018 31.9102 251.674 32.7168C250.329 33.5234 249.177 34.2533 248.217 34.9062C247.295 35.5592 246.488 36.1738 245.797 36.75C245.105 37.3262 244.414 37.96 243.723 38.6514C242.724 39.5732 241.764 40.6296 240.842 41.8203C239.92 43.0111 239.094 44.2018 238.364 45.3926C237.673 46.5449 237.097 47.6589 236.636 48.7344C236.213 49.8099 236.002 50.6934 236.002 51.3848C236.002 51.9609 236.156 52.4219 236.463 52.7676C236.77 53.1133 237.212 53.2861 237.788 53.2861C238.403 53.2861 239.075 53.0749 239.805 52.6523C242.148 51.3464 244.606 50.1748 247.18 49.1377C249.792 48.1006 252.423 47.2171 255.073 46.4873C257.724 45.7575 260.374 45.2197 263.024 44.874C265.675 44.4899 268.248 44.2979 270.745 44.2979C274.701 44.2979 278.331 44.7396 281.635 45.623C284.938 46.4681 287.781 47.6589 290.162 49.1953C292.544 50.7318 294.387 52.5947 295.693 54.7842C296.999 56.9352 297.652 59.2975 297.652 61.8711C297.652 64.752 296.826 67.5176 295.175 70.168C293.523 72.8184 291.257 75.1423 288.376 77.1396C285.495 79.137 282.096 80.7311 278.178 81.9219C274.26 83.1126 270.035 83.708 265.502 83.708C259.471 83.708 253.94 83.0742 248.908 81.8066C243.915 80.5775 239.613 78.849 236.002 76.6211C232.43 74.3932 229.645 71.7428 227.647 68.6699C225.688 65.5586 224.709 62.1592 224.709 58.4717C224.709 54.8226 225.208 51.2503 226.207 47.7549C227.244 44.221 228.761 40.8792 230.759 37.7295C232.795 34.5413 235.311 31.5837 238.307 28.8564C241.303 26.0908 244.798 23.6133 248.793 21.4238ZM286.071 63.8877C286.071 62.5817 285.649 61.391 284.804 60.3154C283.997 59.2399 282.845 58.318 281.347 57.5498C279.887 56.7816 278.101 56.1862 275.988 55.7637C273.914 55.3411 271.609 55.1299 269.074 55.1299C264.273 55.1299 259.567 55.8021 254.958 57.1465C250.387 58.4525 246.085 60.3538 242.052 62.8506C241.091 63.4652 240.611 64.2142 240.611 65.0977C240.611 65.7122 240.957 66.346 241.648 66.999C242.34 67.6136 243.281 68.209 244.472 68.7852C245.662 69.3613 247.064 69.9183 248.678 70.4561C250.291 70.9938 252 71.4548 253.806 71.8389C255.611 72.223 257.474 72.5303 259.395 72.7607C261.315 72.9912 263.197 73.1064 265.041 73.1064C267.999 73.1064 270.745 72.876 273.28 72.415C275.854 71.9157 278.082 71.2627 279.964 70.4561C281.884 69.611 283.382 68.6315 284.458 67.5176C285.534 66.4036 286.071 65.1937 286.071 63.8877Z" stroke="white" stroke-width="16" mask="url(#path-1-outside-1)"/>
<path d="M315.687 37.3262C314.918 37.6335 314.169 37.7871 313.439 37.7871C311.596 37.7871 310.328 36.6924 309.637 34.5029C309.445 33.9268 309.31 33.4466 309.233 33.0625C309.195 32.6784 309.176 32.3327 309.176 32.0254C309.176 30.2201 310.194 28.8757 312.229 27.9922C316.263 26.3789 320.373 25.0729 324.56 24.0742C328.746 23.0755 332.972 22.5762 337.235 22.5762C339.233 22.5762 341.192 22.7874 343.112 23.21C345.071 23.6325 346.819 24.3623 348.355 25.3994C349.892 26.4365 351.14 27.8193 352.101 29.5479C353.061 31.2764 353.541 33.4466 353.541 36.0586C353.541 37.9023 353.157 39.6693 352.389 41.3594C351.659 43.0495 350.679 44.6628 349.45 46.1992C348.221 47.7357 346.819 49.1953 345.244 50.5781C343.669 51.9609 342.056 53.2285 340.404 54.3809C338.753 55.5332 337.12 56.5895 335.507 57.5498C333.894 58.4717 332.434 59.2783 331.128 59.9697C330.014 60.6227 329.457 61.2949 329.457 61.9863C329.457 62.793 330.052 63.4268 331.243 63.8877C335.353 65.3473 339.559 66.7109 343.861 67.9785C348.163 69.2461 352.523 70.6673 356.94 72.2422C359.015 73.0104 360.052 74.2012 360.052 75.8145C360.052 76.5827 359.821 77.3701 359.36 78.1768C358.938 78.945 358.458 79.6556 357.92 80.3086C356.806 81.9603 355.423 82.7861 353.771 82.7861C353.195 82.7861 352.485 82.6709 351.64 82.4404C349.143 81.4801 346.454 80.4814 343.573 79.4443C340.731 78.4072 337.812 77.3893 334.815 76.3906C331.858 75.3535 328.938 74.374 326.058 73.4521C323.177 72.4919 320.507 71.6276 318.049 70.8594C317.165 70.6289 316.57 70.5137 316.263 70.5137C315.955 70.5137 315.706 70.5905 315.514 70.7441C315.36 70.8594 315.283 71.1283 315.283 71.5508C315.283 71.666 315.302 71.8197 315.341 72.0117C315.379 72.1654 315.398 72.3382 315.398 72.5303C315.514 73.1064 315.648 73.8747 315.802 74.835C315.994 75.7568 316.167 76.7171 316.32 77.7158C316.512 78.7145 316.666 79.6748 316.781 80.5967C316.896 81.4801 316.954 82.21 316.954 82.7861C316.954 84.9372 315.783 86.4352 313.439 87.2803L310.847 88.0869C310.463 88.2021 310.117 88.279 309.81 88.3174C309.502 88.3942 309.176 88.4326 308.83 88.4326C306.717 88.4326 305.488 87.1266 305.143 84.5146C304.221 77.5238 303.03 70.6289 301.57 63.8301C300.149 57.0312 298.517 50.2516 296.673 43.4912C296.558 43.1071 296.481 42.7806 296.442 42.5117C296.442 42.2044 296.442 41.9355 296.442 41.7051C296.442 39.6693 297.537 38.2865 299.727 37.5566C300.533 37.2878 301.186 37.0765 301.686 36.9229C302.223 36.7692 302.646 36.654 302.953 36.5771C303.299 36.4619 303.549 36.3851 303.702 36.3467C303.894 36.3083 304.067 36.2891 304.221 36.2891C306.295 36.2891 307.639 37.4606 308.254 39.8037C309.061 42.7998 309.81 45.6999 310.501 48.5039C311.231 51.3079 311.884 54.0736 312.46 56.8008C312.767 58.1452 313.324 58.8174 314.131 58.8174C314.361 58.8174 314.63 58.779 314.938 58.7021C315.245 58.5869 315.61 58.4333 316.032 58.2412C317.261 57.5882 318.74 56.7816 320.469 55.8213C322.236 54.861 324.06 53.8047 325.942 52.6523C327.863 51.4616 329.745 50.2132 331.589 48.9072C333.471 47.6012 335.142 46.2952 336.602 44.9893C338.1 43.6833 339.31 42.3965 340.231 41.1289C341.153 39.8613 341.614 38.6706 341.614 37.5566C341.614 36.8652 341.499 36.2314 341.269 35.6553C341.076 35.0791 340.692 34.5798 340.116 34.1572C339.54 33.7347 338.753 33.4082 337.754 33.1777C336.794 32.9473 335.564 32.832 334.066 32.832C332.607 32.832 331.07 32.9665 329.457 33.2354C327.882 33.4658 326.307 33.7923 324.732 34.2148C323.158 34.6374 321.602 35.1175 320.065 35.6553C318.529 36.193 317.069 36.75 315.687 37.3262Z" stroke="white" stroke-width="16" mask="url(#path-1-outside-1)"/>
<path d="M360.052 69.5342C359.399 69.5342 358.899 69.2077 358.554 68.5547C358.246 67.9017 358.093 66.9798 358.093 65.7891C358.093 65.597 358.093 65.3857 358.093 65.1553C358.093 64.8864 358.131 64.387 358.208 63.6572C358.323 60.8916 359.687 59.2783 362.299 58.8174L363.624 58.7021C364.507 58.5869 365.199 58.318 365.698 57.8955C366.198 57.4346 366.562 56.8008 366.793 55.9941C367.446 53.8047 368.099 51.596 368.752 49.3682C369.405 47.1403 370.096 44.9316 370.826 42.7422C371.21 41.513 371.594 40.207 371.979 38.8242C372.401 37.403 372.843 36.001 373.304 34.6182C373.803 33.2354 374.36 31.8717 374.975 30.5273C375.628 29.1829 376.357 27.9538 377.164 26.8398C377.51 26.3789 377.99 25.8988 378.604 25.3994C379.219 24.9001 379.91 24.4583 380.679 24.0742C381.485 23.6517 382.33 23.3252 383.214 23.0947C384.136 22.8258 385.038 22.6914 385.922 22.6914C387.074 22.6914 388.207 23.0563 389.321 23.7861C390.819 24.8232 392.298 26.0716 393.758 27.5312C395.217 28.9909 396.85 30.8538 398.655 33.1201C400.461 35.3864 402.554 38.1328 404.936 41.3594C407.317 44.5475 410.179 48.4079 413.521 52.9404C414.02 53.5166 414.538 53.9583 415.076 54.2656C415.652 54.5345 416.325 54.6689 417.093 54.6689H420.377C421.721 54.6689 422.758 54.9954 423.488 55.6484C424.257 56.263 424.641 57.1273 424.641 58.2412C424.641 58.4717 424.621 58.7406 424.583 59.0479C424.583 59.3551 424.525 59.6624 424.41 59.9697L423.315 63.1963C423.239 63.5036 423.181 63.7725 423.143 64.0029C423.104 64.2334 423.085 64.4639 423.085 64.6943C423.085 65.501 423.354 66.3268 423.892 67.1719L430.057 75.584C430.748 76.6211 431.094 77.6006 431.094 78.5225C431.094 79.9053 430.306 81.1152 428.731 82.1523L426.542 83.708C426.004 84.0537 425.486 84.3226 424.986 84.5146C424.525 84.7067 424.045 84.8027 423.546 84.8027C422.854 84.8027 422.201 84.5915 421.587 84.1689C421.011 83.7848 420.454 83.2471 419.916 82.5557C418.072 79.9437 416.209 77.3701 414.327 74.835C412.483 72.2998 410.601 69.7839 408.681 67.2871C407.797 66.0579 406.626 65.4434 405.166 65.4434C400.48 65.6354 395.832 65.9043 391.223 66.25C386.652 66.5573 382.062 66.9414 377.452 67.4023C375.8 67.556 374.763 68.4395 374.341 70.0527L371.748 79.5596C371.057 82.0947 369.52 83.3623 367.139 83.3623H366.217L364.431 83.1318C363.125 83.0166 362.126 82.6133 361.435 81.9219C360.782 81.2305 360.455 80.3278 360.455 79.2139C360.455 78.9834 360.474 78.7337 360.513 78.4648C360.551 78.196 360.609 77.9079 360.686 77.6006C360.878 76.8324 361.07 76.0449 361.262 75.2383C361.492 74.4316 361.723 73.6442 361.953 72.876C362.03 72.5687 362.088 72.2998 362.126 72.0693C362.164 71.8005 362.184 71.5508 362.184 71.3203C362.184 70.1296 361.723 69.5342 360.801 69.5342H360.052ZM387.478 39.1123C387.093 38.7666 386.748 38.4785 386.44 38.248C386.133 38.0176 385.807 37.9023 385.461 37.9023C384.501 37.9023 383.828 38.5745 383.444 39.9189C382.676 42.1852 381.927 44.4323 381.197 46.6602C380.506 48.8496 379.795 51.0967 379.065 53.4014C378.989 53.5934 378.95 53.7663 378.95 53.9199C378.95 54.0736 378.95 54.2464 378.95 54.4385C378.95 55.8597 379.699 56.5703 381.197 56.5703H381.773C384.078 56.263 386.383 56.0326 388.688 55.8789C390.992 55.6868 393.297 55.5332 395.602 55.418C396.37 55.3411 396.965 55.1491 397.388 54.8418C397.849 54.4961 398.079 54.0544 398.079 53.5166C398.079 53.0173 397.849 52.4219 397.388 51.7305C395.774 49.5794 394.142 47.4668 392.49 45.3926C390.877 43.2799 389.206 41.1865 387.478 39.1123Z" stroke="white" stroke-width="16" mask="url(#path-1-outside-1)"/>
<path d="M440.889 33.1201C440.581 33.1201 439.986 33.1969 439.103 33.3506C438.257 33.4658 437.259 33.6195 436.106 33.8115C434.954 34.0036 433.744 34.234 432.477 34.5029C431.209 34.7334 430.018 34.9447 428.904 35.1367C427.79 35.3288 426.83 35.5016 426.023 35.6553C425.178 35.7705 424.621 35.8281 424.353 35.8281C421.779 35.8281 420.492 34.4837 420.492 31.7949C420.492 31.0651 420.569 30.3545 420.723 29.6631C420.838 28.9333 421.068 28.2803 421.414 27.7041C421.76 27.0895 422.221 26.571 422.797 26.1484C423.373 25.7259 424.103 25.4378 424.986 25.2842C429.48 24.5928 433.955 23.863 438.411 23.0947C442.867 22.3265 447.361 21.5199 451.894 20.6748C452.892 20.4827 453.795 20.3099 454.602 20.1562C455.408 19.9642 456.311 19.7145 457.31 19.4072C458.385 19.0999 459.557 18.8118 460.824 18.543C462.092 18.2357 463.359 17.9668 464.627 17.7363C465.933 17.5059 467.181 17.3138 468.372 17.1602C469.601 17.0065 470.715 16.9297 471.714 16.9297C472.943 16.9297 473.865 17.333 474.479 18.1396C475.132 18.9079 475.459 20.0026 475.459 21.4238C475.459 22.1536 475.401 22.8643 475.286 23.5557C475.171 24.2087 474.96 24.804 474.652 25.3418C474.345 25.8796 473.923 26.3213 473.385 26.667C472.847 27.0127 472.156 27.224 471.311 27.3008C469.121 27.6081 466.778 27.9922 464.281 28.4531C461.785 28.8757 459.614 29.3558 457.771 29.8936C457.002 30.124 456.426 30.5081 456.042 31.0459C455.658 31.5452 455.408 32.179 455.293 32.9473C455.178 33.6771 455.101 34.4261 455.062 35.1943C455.062 35.9242 455.062 36.6348 455.062 37.3262C455.062 38.9395 455.12 40.5527 455.235 42.166C455.389 43.7793 455.523 45.3926 455.639 47.0059C455.984 52.5371 456.503 58.0107 457.194 63.4268C457.924 68.8428 458.712 74.3164 459.557 79.8477C459.633 80.0397 459.672 80.2318 459.672 80.4238C459.672 80.6159 459.672 80.8079 459.672 81C459.672 83.1126 458.481 84.6107 456.1 85.4941L453.507 86.3008C452.815 86.5312 452.143 86.6465 451.49 86.6465C450.492 86.6465 449.685 86.32 449.07 85.667C448.456 85.0524 448.052 84.1305 447.86 82.9014C446.785 76.2946 445.844 69.7262 445.037 63.1963C444.23 56.6279 443.712 50.0212 443.481 43.376C443.405 42.3005 443.347 41.1289 443.309 39.8613C443.27 38.5938 443.251 37.2878 443.251 35.9434C443.251 34.0612 442.464 33.1201 440.889 33.1201Z" stroke="white" stroke-width="16" mask="url(#path-1-outside-1)"/>
<path d="M487.731 57.377C487.731 59.6816 488.288 61.8327 489.402 63.8301C490.555 65.7891 492.053 67.5176 493.896 69.0156C495.74 70.4753 497.853 71.6276 500.234 72.4727C502.616 73.2793 505.055 73.6826 507.552 73.6826C508.32 73.6826 509.107 73.625 509.914 73.5098C510.721 73.3561 511.451 73.1064 512.104 72.7607C512.757 72.415 513.294 71.9733 513.717 71.4355C514.139 70.8594 514.351 70.1488 514.351 69.3037C514.351 67.6904 513.774 66.0964 512.622 64.5215C511.508 62.9466 510.029 61.391 508.186 59.8545C506.342 58.2796 504.229 56.724 501.848 55.1875C499.466 53.6126 497.046 52.057 494.588 50.5205C492.13 48.984 489.71 47.4476 487.328 45.9111C484.947 44.3363 482.834 42.7806 480.99 41.2441C479.146 39.6693 477.648 38.0944 476.496 36.5195C475.382 34.9062 474.825 33.293 474.825 31.6797C474.825 30.1432 475.209 28.722 475.978 27.416C476.784 26.0716 477.84 24.8617 479.146 23.7861C480.452 22.7106 481.97 21.7503 483.698 20.9053C485.427 20.0602 487.232 19.3496 489.114 18.7734C490.996 18.1973 492.879 17.7747 494.761 17.5059C496.681 17.1986 498.506 17.0449 500.234 17.0449C501.502 17.0449 502.885 17.0833 504.383 17.1602C505.919 17.1986 507.34 17.3714 508.646 17.6787C509.991 17.9476 511.105 18.3701 511.988 18.9463C512.872 19.5225 513.313 20.3483 513.313 21.4238C513.313 21.7695 513.256 22.2113 513.141 22.749C513.025 23.2484 512.699 24.0934 512.161 25.2842C511.623 26.3981 510.99 27.2432 510.26 27.8193C509.568 28.3571 508.666 28.626 507.552 28.626C505.977 28.626 504.306 28.4531 502.539 28.1074C500.811 27.7233 499.063 27.5312 497.296 27.5312C496.336 27.5312 495.356 27.5889 494.357 27.7041C493.397 27.7809 492.514 27.9538 491.707 28.2227C490.9 28.4531 490.247 28.818 489.748 29.3174C489.249 29.7783 488.999 30.3737 488.999 31.1035C488.999 31.8333 489.518 32.6592 490.555 33.5811C491.63 34.5029 493.032 35.5208 494.761 36.6348C496.528 37.7487 498.525 38.9779 500.753 40.3223C502.981 41.6283 505.247 43.0495 507.552 44.5859C509.895 46.084 512.18 47.6973 514.408 49.4258C516.636 51.1159 518.614 52.9212 520.343 54.8418C522.11 56.724 523.512 58.7214 524.549 60.834C525.624 62.9466 526.162 65.1361 526.162 67.4023C526.162 70.168 525.528 72.6071 524.261 74.7197C522.993 76.8324 521.361 78.5993 519.363 80.0205C517.366 81.4417 515.157 82.498 512.737 83.1895C510.317 83.9193 507.955 84.2842 505.65 84.2842C503.307 84.2842 500.926 83.9961 498.506 83.4199C496.124 82.8822 493.82 82.0947 491.592 81.0576C489.364 80.0589 487.271 78.849 485.312 77.4277C483.391 75.9681 481.72 74.3548 480.299 72.5879C478.878 70.7826 477.744 68.8428 476.899 66.7686C476.093 64.6943 475.689 62.5241 475.689 60.2578C475.689 59.2975 475.747 58.3372 475.862 57.377C476.016 56.3783 476.266 55.514 476.611 54.7842C476.957 54.016 477.437 53.4014 478.052 52.9404C478.666 52.4411 479.454 52.1914 480.414 52.1914C480.721 52.1914 481.067 52.2298 481.451 52.3066C481.835 52.3451 482.507 52.5179 483.468 52.8252C484.582 53.1709 485.561 53.7279 486.406 54.4961C487.29 55.2259 487.731 56.1862 487.731 57.377Z" stroke="white" stroke-width="16" mask="url(#path-1-outside-1)"/>
<path d="M558.082 14.9131C557.928 14.3753 557.794 13.8952 557.679 13.4727C557.602 13.0501 557.563 12.6276 557.563 12.2051C557.563 11.1296 557.89 10.2269 558.543 9.49707C559.234 8.76725 560.252 8.40234 561.597 8.40234C567.55 8.40234 570.815 9.82357 571.392 12.666C572.083 16.2767 572.717 19.9066 573.293 23.5557C573.869 27.2048 574.368 30.9115 574.791 34.6758C575.252 38.4017 575.598 42.2044 575.828 46.084C576.097 49.9251 576.231 53.8623 576.231 57.8955C576.231 58.6637 576.193 59.4128 576.116 60.1426C576.039 60.834 575.886 61.4678 575.655 62.0439C575.425 62.5817 575.098 63.0234 574.676 63.3691C574.292 63.7148 573.754 63.8877 573.062 63.8877L568.223 63.1963C567.224 63.0811 566.513 62.793 566.091 62.332C565.707 61.8327 565.476 61.1413 565.399 60.2578C565.092 53.2285 564.324 45.8727 563.095 38.1904C561.866 30.5081 560.195 22.749 558.082 14.9131ZM569.951 85.8398C568.837 85.8398 567.781 85.667 566.782 85.3213C565.822 85.014 564.977 84.5531 564.247 83.9385C563.556 83.3623 562.999 82.6709 562.576 81.8643C562.154 81.0576 561.942 80.1742 561.942 79.2139C561.942 77.6006 562.576 76.2946 563.844 75.2959C565.15 74.2972 566.878 73.7979 569.029 73.7979C570.028 73.7979 570.988 73.9899 571.91 74.374C572.832 74.7197 573.639 75.1999 574.33 75.8145C575.06 76.429 575.636 77.1589 576.059 78.0039C576.481 78.8105 576.692 79.6556 576.692 80.5391C576.692 82.1908 576.078 83.4775 574.849 84.3994C573.658 85.3597 572.025 85.8398 569.951 85.8398Z" stroke="white" stroke-width="16" mask="url(#path-1-outside-1)"/>
<path d="M588.043 14.9131C587.889 14.3753 587.755 13.8952 587.64 13.4727C587.563 13.0501 587.524 12.6276 587.524 12.2051C587.524 11.1296 587.851 10.2269 588.504 9.49707C589.195 8.76725 590.213 8.40234 591.558 8.40234C597.511 8.40234 600.776 9.82357 601.353 12.666C602.044 16.2767 602.678 19.9066 603.254 23.5557C603.83 27.2048 604.329 30.9115 604.752 34.6758C605.213 38.4017 605.559 42.2044 605.789 46.084C606.058 49.9251 606.192 53.8623 606.192 57.8955C606.192 58.6637 606.154 59.4128 606.077 60.1426C606 60.834 605.847 61.4678 605.616 62.0439C605.386 62.5817 605.059 63.0234 604.637 63.3691C604.253 63.7148 603.715 63.8877 603.023 63.8877L598.184 63.1963C597.185 63.0811 596.474 62.793 596.052 62.332C595.668 61.8327 595.437 61.1413 595.36 60.2578C595.053 53.2285 594.285 45.8727 593.056 38.1904C591.826 30.5081 590.156 22.749 588.043 14.9131ZM599.912 85.8398C598.798 85.8398 597.742 85.667 596.743 85.3213C595.783 85.014 594.938 84.5531 594.208 83.9385C593.517 83.3623 592.96 82.6709 592.537 81.8643C592.115 81.0576 591.903 80.1742 591.903 79.2139C591.903 77.6006 592.537 76.2946 593.805 75.2959C595.111 74.2972 596.839 73.7979 598.99 73.7979C599.989 73.7979 600.949 73.9899 601.871 74.374C602.793 74.7197 603.6 75.1999 604.291 75.8145C605.021 76.429 605.597 77.1589 606.02 78.0039C606.442 78.8105 606.653 79.6556 606.653 80.5391C606.653 82.1908 606.039 83.4775 604.81 84.3994C603.619 85.3597 601.986 85.8398 599.912 85.8398Z" stroke="white" stroke-width="16" mask="url(#path-1-outside-1)"/>
<path d="M618.004 14.9131C617.85 14.3753 617.716 13.8952 617.601 13.4727C617.524 13.0501 617.485 12.6276 617.485 12.2051C617.485 11.1296 617.812 10.2269 618.465 9.49707C619.156 8.76725 620.174 8.40234 621.519 8.40234C627.472 8.40234 630.737 9.82357 631.313 12.666C632.005 16.2767 632.639 19.9066 633.215 23.5557C633.791 27.2048 634.29 30.9115 634.713 34.6758C635.174 38.4017 635.52 42.2044 635.75 46.084C636.019 49.9251 636.153 53.8623 636.153 57.8955C636.153 58.6637 636.115 59.4128 636.038 60.1426C635.961 60.834 635.808 61.4678 635.577 62.0439C635.347 62.5817 635.02 63.0234 634.598 63.3691C634.214 63.7148 633.676 63.8877 632.984 63.8877L628.145 63.1963C627.146 63.0811 626.435 62.793 626.013 62.332C625.629 61.8327 625.398 61.1413 625.321 60.2578C625.014 53.2285 624.246 45.8727 623.017 38.1904C621.787 30.5081 620.117 22.749 618.004 14.9131ZM629.873 85.8398C628.759 85.8398 627.703 85.667 626.704 85.3213C625.744 85.014 624.899 84.5531 624.169 83.9385C623.478 83.3623 622.921 82.6709 622.498 81.8643C622.076 81.0576 621.864 80.1742 621.864 79.2139C621.864 77.6006 622.498 76.2946 623.766 75.2959C625.072 74.2972 626.8 73.7979 628.951 73.7979C629.95 73.7979 630.91 73.9899 631.832 74.374C632.754 74.7197 633.561 75.1999 634.252 75.8145C634.982 76.429 635.558 77.1589 635.98 78.0039C636.403 78.8105 636.614 79.6556 636.614 80.5391C636.614 82.1908 636 83.4775 634.771 84.3994C633.58 85.3597 631.947 85.8398 629.873 85.8398Z" stroke="white" stroke-width="16" mask="url(#path-1-outside-1)"/>
</g>
<defs>
<filter id="filter0_d" x="0.0849609" y="0.402344" width="646.529" height="100.03" filterUnits="userSpaceOnUse" color-interpolation-filters="sRGB">
<feFlood flood-opacity="0" result="BackgroundImageFix"/>
<feColorMatrix in="SourceAlpha" type="matrix" values="0 0 0 0 0 0 0 0 0 0 0 0 0 0 0 0 0 0 127 0"/>
<feOffset dy="2"/>
<feGaussianBlur stdDeviation="1"/>
<feColorMatrix type="matrix" values="0 0 0 0 0 0 0 0 0 0 0 0 0 0 0 0 0 0 0.25 0"/>
<feBlend mode="normal" in2="BackgroundImageFix" result="effect1_dropShadow"/>
<feBlend mode="normal" in="SourceGraphic" in2="effect1_dropShadow" result="shape"/>
</filter>
</defs>
</svg>
