<svg width="64" height="68" viewBox="0 0 64 68" fill="none" xmlns="http://www.w3.org/2000/svg">
<path d="M44.2783 21.7464C46.3704 19.3722 49.4172 19.4489 50.8907 20.1888C53.8377 21.6687 55.2195 26.0468 51.029 29.1192C47.2874 31.8625 43.9933 29.8669 42.9379 28.5403C41.8824 27.2137 41.663 24.7141 44.2783 21.7464Z" fill="white"/>
<path d="M48.844 35.8786C51.1032 34.2272 53.754 34.9138 54.9089 35.8607C57.2186 37.7546 57.6351 41.8655 53.4144 43.701C49.6459 45.3398 47.1259 42.9242 46.4428 41.5491C45.7597 40.1741 46.02 37.9428 48.844 35.8786Z" fill="white"/>
<path d="M30.1557 16.5624C30.1638 13.4555 32.4942 11.3444 34.0825 10.8034C37.259 9.72137 41.1656 11.7297 40.0453 16.8034C39.045 21.3335 35.2704 22.3098 33.6101 22.1534C31.9499 21.997 30.1456 20.4459 30.1557 16.5624Z" fill="white"/>
<path d="M17.3828 16.5175C17.5807 14.1095 19.4791 12.6433 20.7175 12.34C23.1944 11.7334 26.0345 13.5762 24.8713 17.4276C23.8328 20.8665 20.9087 21.3474 19.6587 21.1047C18.4087 20.862 17.1355 19.5275 17.3828 16.5175Z" fill="white"/>
<path d="M27.257 54.3021C22.0638 53.8994 18.2704 51.3238 15.8283 47.0706C13.3862 42.8174 13.4819 36.4796 15.0464 33.0362C16.8302 29.1102 19.0697 26.439 24.885 25.3865C30.9514 24.2885 38.8299 29.798 41.1285 34.2748C45.8083 43.3888 41.6812 48.6914 40.0156 50.7288C37.33 54.0139 31.0984 54.6001 27.257 54.3021Z" fill="white"/>
</svg>
