<svg width="262" height="1140" viewBox="0 0 262 1140" fill="none" xmlns="http://www.w3.org/2000/svg">
<path d="M171.02 719.649C168.323 718.581 167.313 715.863 167.405 714.317C167.588 711.225 170.715 708.564 174.727 711.256C178.309 713.661 177.823 717.228 177.1 718.598C176.377 719.967 174.391 720.984 171.02 719.649Z" fill="white"/>
<path d="M181.076 710.963C178.917 709.51 178.55 706.941 178.924 705.609C179.674 702.944 182.92 701.224 185.922 704.35C188.602 707.141 187.496 710.163 186.602 711.22C185.708 712.276 183.775 712.78 181.076 710.963Z" fill="white"/>
<path d="M171.718 733.836C169.15 734.851 166.587 733.486 165.581 732.26C163.568 729.809 163.85 725.695 168.432 725.016C172.523 724.41 174.659 727.424 175.115 728.943C175.571 730.462 174.926 732.567 171.718 733.836Z" fill="white"/>
<path d="M176.181 745.14C174.123 745.757 172.244 744.562 171.558 743.567C170.184 741.578 170.705 738.461 174.293 738.222C177.498 738.008 178.925 740.434 179.165 741.619C179.405 742.804 178.752 744.368 176.181 745.14Z" fill="white"/>
<path d="M203.888 723.98C205.385 728.702 204.596 732.903 201.946 736.46C199.296 740.018 194.031 742.019 190.638 741.769C186.769 741.485 183.775 740.384 180.857 735.591C177.814 730.591 179.585 721.815 182.47 718.31C188.344 711.175 194.175 713.078 196.443 713.88C200.101 715.172 202.78 720.487 203.888 723.98Z" fill="white"/>
<path d="M155.472 1053.86C151.629 1049.14 152.564 1043.13 154.316 1040.39C157.819 1034.92 166.271 1033.25 170.858 1042.29C174.953 1050.36 170.406 1056.4 167.68 1058.16C164.953 1059.93 160.275 1059.76 155.472 1053.86Z" fill="white"/>
<path d="M182.781 1048.26C180.318 1043.39 182.278 1038.31 184.329 1036.25C188.431 1032.14 196.138 1032.32 198.431 1041.12C200.478 1048.98 195.356 1053.38 192.637 1054.39C189.917 1055.41 185.861 1054.35 182.781 1048.26Z" fill="white"/>
<path d="M142.21 1080.55C136.47 1079.78 133.175 1074.65 132.589 1071.37C131.417 1064.82 136.147 1057.58 145.233 1061.03C153.345 1064.12 154.166 1071.82 153.444 1075.07C152.723 1078.32 149.386 1081.51 142.21 1080.55Z" fill="white"/>
<path d="M138.798 1105.82C134.399 1104.84 132.184 1100.73 131.946 1098.2C131.47 1093.15 135.616 1087.98 142.432 1091.22C148.517 1094.11 148.644 1100.01 147.87 1102.43C147.096 1104.84 144.297 1107.04 138.798 1105.82Z" fill="white"/>
<path d="M211.208 1095.47C209.111 1105.65 203.362 1112.53 194.864 1116.33C186.367 1120.13 174.678 1118.39 168.721 1114.46C161.929 1109.97 157.576 1104.89 157.146 1093.13C156.697 1080.85 168.933 1066.6 177.807 1063.14C195.871 1056.1 204.597 1065.55 207.928 1069.35C213.301 1075.46 212.76 1087.94 211.208 1095.47Z" fill="white"/>
<path d="M210.168 156.709C207.417 154.602 207.142 151.149 207.751 149.403C208.97 145.909 213.431 143.869 217.164 148.272C220.498 152.203 218.776 156.145 217.498 157.483C216.221 158.821 213.607 159.342 210.168 156.709Z" fill="white"/>
<path d="M224.556 150.005C222.548 147.631 222.964 144.559 223.829 143.15C225.559 140.332 229.85 139.412 232.281 143.984C234.452 148.066 232.196 151.179 230.824 152.101C229.452 153.023 227.066 152.973 224.556 150.005Z" fill="white"/>
<path d="M206.344 173.242C203.063 173.572 200.562 171.167 199.805 169.43C198.291 165.957 199.955 161.321 205.443 162.034C210.343 162.671 211.815 166.832 211.844 168.726C211.873 170.62 210.446 172.829 206.344 173.242Z" fill="white"/>
<path d="M207.789 187.688C205.223 187.727 203.453 185.741 202.988 184.374C202.059 181.639 203.672 178.227 207.875 179.122C211.627 179.921 212.477 183.175 212.366 184.614C212.256 186.054 210.996 187.639 207.789 187.688Z" fill="white"/>
<path d="M246.531 172.401C246.712 178.317 244.436 182.887 240.23 186.112C236.025 189.337 229.322 189.92 225.503 188.527C221.15 186.939 218.068 184.698 216.277 178.238C214.409 171.499 219.306 161.99 223.764 158.903C232.84 152.618 238.921 156.705 241.267 158.366C245.049 161.044 246.396 168.026 246.531 172.401Z" fill="white"/>
<path d="M41.5775 41.3049C36.8809 36.7514 37.1229 30.2162 38.6484 27.0745C41.6993 20.7914 50.5121 17.945 56.547 27.0198C61.9353 35.1223 57.841 42.1362 55.1522 44.3649C52.4634 46.5936 47.4483 46.9967 41.5775 41.3049Z" fill="white"/>
<path d="M70.0286 31.8909C66.7851 26.9986 68.2378 21.3295 70.1688 18.8772C74.0307 13.9726 82.2801 13.1901 85.8356 22.2961C89.0102 30.4266 84.0968 35.7681 81.3216 37.1966C78.5464 38.6251 74.083 38.0063 70.0286 31.8909Z" fill="white"/>
<path d="M30.7805 71.4668C24.5553 71.3653 20.3927 66.3077 19.3546 62.8852C17.2786 56.0401 21.4163 47.7121 31.5503 50.2534C40.5985 52.5225 42.4454 60.648 42.0838 64.2061C41.7223 67.7643 38.5619 71.5936 30.7805 71.4668Z" fill="white"/>
<path d="M30.3197 98.8722C25.5003 98.3824 22.6174 94.2693 22.0456 91.6038C20.902 86.2729 24.6768 80.2289 32.3606 82.829C39.2212 85.1505 40.0999 91.4376 39.5774 94.1132C39.0549 96.7887 36.344 99.4845 30.3197 98.8722Z" fill="white"/>
<path d="M106.319 78.7084C105.361 89.8403 100.09 97.9099 91.4967 103.035C82.9034 108.159 70.2066 107.782 63.3522 104.332C55.537 100.398 50.2496 95.5208 48.3092 83.0145C46.2851 69.9683 57.5533 53.2129 66.5905 48.402C84.9888 38.6077 95.4944 47.6066 99.5285 51.2356C106.033 57.0871 107.027 70.4739 106.319 78.7084Z" fill="white"/>
<path d="M185.923 238.243C182.345 236.826 181.005 233.22 181.126 231.169C181.369 227.068 185.517 223.536 190.841 227.109C195.594 230.298 194.948 235.032 193.989 236.849C193.03 238.666 190.395 240.014 185.923 238.243Z" fill="white"/>
<path d="M199.264 226.72C196.4 224.792 195.912 221.384 196.409 219.616C197.404 216.081 201.71 213.798 205.693 217.946C209.25 221.649 207.782 225.659 206.596 227.06C205.41 228.461 202.845 229.13 199.264 226.72Z" fill="white"/>
<path d="M186.848 257.066C183.442 258.413 180.041 256.602 178.706 254.976C176.036 251.723 176.409 246.266 182.489 245.364C187.917 244.56 190.751 248.56 191.356 250.575C191.96 252.59 191.105 255.383 186.848 257.066Z" fill="white"/>
<path d="M192.769 272.063C190.04 272.882 187.547 271.296 186.636 269.977C184.814 267.337 185.504 263.202 190.266 262.885C194.517 262.601 196.41 265.82 196.729 267.392C197.047 268.964 196.181 271.039 192.769 272.063Z" fill="white"/>
<path d="M229.529 243.99C231.516 250.255 230.469 255.828 226.953 260.548C223.437 265.268 216.452 267.923 211.95 267.591C206.817 267.214 202.845 265.754 198.974 259.394C194.936 252.76 197.286 241.117 201.114 236.467C208.907 227.001 216.642 229.525 219.652 230.589C224.505 232.304 228.06 239.355 229.529 243.99Z" fill="white"/>
<path d="M107.329 477.718C99.2623 474.523 96.2402 466.393 96.5142 461.769C97.062 452.52 106.415 444.558 118.418 452.613C129.135 459.805 127.68 470.478 125.517 474.575C123.354 478.671 117.413 481.711 107.329 477.718Z" fill="white"/>
<path d="M137.41 451.736C130.951 447.388 129.852 439.704 130.973 435.719C133.215 427.748 142.926 422.6 151.906 431.953C159.925 440.303 156.617 449.343 153.941 452.503C151.266 455.662 145.483 457.171 137.41 451.736Z" fill="white"/>
<path d="M109.415 520.159C101.735 523.196 94.0665 519.112 91.0566 515.446C85.0369 508.113 85.8781 495.807 99.586 493.775C111.825 491.961 118.214 500.979 119.578 505.523C120.942 510.066 119.014 516.363 109.415 520.159Z" fill="white"/>
<path d="M122.767 553.974C116.613 555.821 110.992 552.245 108.938 549.269C104.83 543.318 106.386 533.995 117.121 533.279C126.707 532.64 130.976 539.898 131.694 543.441C132.413 546.985 130.46 551.665 122.767 553.974Z" fill="white"/>
<path d="M205.651 490.676C210.13 504.802 207.769 517.367 199.841 528.01C191.914 538.653 176.165 544.638 166.014 543.891C154.44 543.039 145.484 539.748 136.756 525.409C127.651 510.45 132.951 484.198 141.581 473.714C159.152 452.37 176.594 458.062 183.38 460.46C194.322 464.327 202.337 480.226 205.651 490.676Z" fill="white"/>
</svg>
